<svg width="22" height="22" viewBox="0 0 22 22" fill="none" xmlns="http://www.w3.org/2000/svg">
<path d="M18.5 6.50177C18.5 7.3302 19.1716 8.00177 20 8.00177C20.8284 8.00177 21.5 7.3302 21.5 6.50177H18.5ZM15.5 0.50177C14.6716 0.50177 14 1.17334 14 2.00177C14 2.8302 14.6716 3.50177 15.5 3.50177V0.50177ZM3.5 15.5018C3.5 14.6733 2.82843 14.0018 2 14.0018C1.17157 14.0018 0.5 14.6733 0.5 15.5018H3.5ZM6.5 21.5018C7.32843 21.5018 8 20.8302 8 20.0018C8 19.1733 7.32843 18.5018 6.5 18.5018V21.5018ZM6.5 3.50177C7.32843 3.50177 8 2.8302 8 2.00177C8 1.17334 7.32843 0.50177 6.5 0.50177V3.50177ZM0.5 6.50177C0.5 7.3302 1.17157 8.00177 2 8.00177C2.82843 8.00177 3.5 7.3302 3.5 6.50177H0.5ZM15.5 18.5018C14.6716 18.5018 14 19.1733 14 20.0018C14 20.8302 14.6716 21.5018 15.5 21.5018V18.5018ZM21.5 15.5018C21.5 14.6733 20.8284 14.0018 20 14.0018C19.1716 14.0018 18.5 14.6733 18.5 15.5018H21.5ZM21.5 6.50177C21.5 3.18806 18.8137 0.50177 15.5 0.50177V3.50177C17.1569 3.50177 18.5 4.84492 18.5 6.50177H21.5ZM0.5 15.5018C0.5 18.8155 3.18629 21.5018 6.5 21.5018V18.5018C4.84315 18.5018 3.5 17.1586 3.5 15.5018H0.5ZM6.5 0.50177C3.18629 0.50177 0.5 3.18806 0.5 6.50177H3.5C3.5 4.84492 4.84315 3.50177 6.5 3.50177V0.50177ZM15.5 21.5018C18.8137 21.5018 21.5 18.8155 21.5 15.5018H18.5C18.5 17.1586 17.1569 18.5018 15.5 18.5018V21.5018Z" fill="white"/>
</svg>
