<svg width="50" height="46" viewBox="0 0 50 46" fill="none" xmlns="http://www.w3.org/2000/svg">
<g clip-path="url(#clip0_28_227)" filter="url(#filter0_d_28_227)">
<path d="M19.3895 11.3284H18.6095V10.5506C18.6095 10.4219 18.514 10.3173 18.3967 10.3173H16.594C16.0455 10.3173 15.6012 9.83008 15.6012 9.2282V9.18923C15.6012 8.58791 16.046 8.10017 16.594 8.10017H21.6965C21.7996 8.10017 21.894 8.02445 21.9133 7.91309C21.9367 7.7867 21.862 7.6631 21.7462 7.63804C21.7325 7.63526 21.7183 7.63359 21.7046 7.63359H19.6023C19.0538 7.63359 18.6095 7.14641 18.6095 6.54453V6.42761C18.6095 6.19153 18.7842 6 18.9995 6C19.2148 6 19.3895 6.19153 19.3895 6.42761V6.54453C19.3895 6.67315 19.4849 6.77782 19.6023 6.77782H21.6756C22.2099 6.77782 22.6699 7.22714 22.6964 7.81176C22.7243 8.43702 22.2688 8.95538 21.7046 8.95538H16.594C16.4767 8.95538 16.3812 9.06006 16.3812 9.18867V9.22765C16.3812 9.35626 16.4767 9.46094 16.594 9.46094H18.3967C18.9451 9.46094 19.3895 9.94812 19.3895 10.55V11.3278V11.3284Z" fill="url(#paint0_linear_28_227)"/>
<path d="M20.4041 12.7104H17.5944L17.9696 11.2211C18.0351 10.9605 18.252 10.7795 18.4983 10.7795H19.4992C19.746 10.7795 19.9623 10.9599 20.0283 11.2211L20.4036 12.7104H20.4041Z" fill="url(#paint1_linear_28_227)"/>
<path d="M31.835 22.276C31.9426 22.6757 32 23.0995 32 23.5382C32 25.1417 31.2281 26.5476 30.0698 27.3343C29.923 27.4351 29.7702 27.5247 29.6123 27.6027C29.5721 27.6233 29.532 27.6428 29.4909 27.6611C29.01 27.8805 28.4824 28.0019 27.9284 28.0019C26.8076 28.0019 25.7925 27.5058 25.0572 26.7024L25.0501 26.6946L25.048 26.6923L25.0181 26.6595C24.9912 26.63 24.9643 26.601 24.9373 26.5721C24.9104 26.5431 24.8835 26.5147 24.8556 26.4863C24.8317 26.4613 24.8073 26.4362 24.7825 26.4117C24.7667 26.3956 24.751 26.3794 24.7352 26.3633C24.7286 26.3572 24.7215 26.351 24.7154 26.3449C24.7134 26.3427 24.7119 26.3405 24.7098 26.3388C24.688 26.3171 24.6657 26.2959 24.6438 26.2742C24.6037 26.2352 24.5626 26.1968 24.522 26.1584C24.4752 26.1144 24.4275 26.071 24.3793 26.0287C24.3727 26.0225 24.365 26.0164 24.3579 26.0092C24.3564 26.0075 24.3554 26.0069 24.3544 26.0064L24.3529 26.0047C24.3529 26.0047 24.3513 26.0042 24.3503 26.0025C24.3361 25.9902 24.3224 25.9786 24.3092 25.9669L24.2985 25.9574C24.2696 25.9318 24.2406 25.9073 24.2112 25.8828C24.2076 25.88 24.2041 25.8767 24.2005 25.8744C24.1924 25.8666 24.1843 25.8594 24.1756 25.8527L24.1589 25.8388C24.1548 25.8349 24.1507 25.8316 24.1467 25.8288C24.1223 25.8076 24.0979 25.7881 24.073 25.7681C24.0624 25.7586 24.0512 25.7503 24.0395 25.7414C24.0202 25.7252 24.0004 25.7091 23.9806 25.694C23.975 25.6896 23.9695 25.6851 23.9639 25.6807C23.937 25.659 23.91 25.6384 23.8831 25.6178C23.8694 25.6077 23.8567 25.5977 23.8435 25.5883C23.841 25.5855 23.8379 25.5827 23.8344 25.581C23.8293 25.5771 23.8252 25.5732 23.8202 25.5693H23.8196C23.7536 25.5198 23.6876 25.4713 23.6206 25.424C23.6038 25.4118 23.5866 25.4001 23.5688 25.3873C23.5546 25.3772 23.5398 25.3672 23.5246 25.3577C23.5195 25.3533 23.5139 25.3494 23.5084 25.3466L23.5079 25.3461C23.5007 25.3405 23.4931 25.3349 23.485 25.3299L23.4362 25.2971C23.4114 25.2798 23.3865 25.2636 23.3611 25.2481C23.3372 25.2314 23.3129 25.2152 23.288 25.1996C23.2859 25.1979 23.2839 25.1974 23.2814 25.1957C23.2773 25.1935 23.2722 25.1896 23.2666 25.1863C23.258 25.1807 23.2489 25.1751 23.2402 25.1701C23.1864 25.1361 23.1321 25.1027 23.0777 25.0704C23.0772 25.0699 23.0757 25.0699 23.0752 25.0682H23.0747C23.0193 25.0354 22.9635 25.0031 22.9071 24.9719C22.8746 24.9535 22.8416 24.9351 22.8091 24.9173C22.7812 24.9017 22.7537 24.8867 22.7253 24.8722C22.7233 24.8706 22.7213 24.8694 22.7187 24.8683C22.7187 24.8689 22.7182 24.8683 22.7182 24.8683C22.6974 24.8566 22.6761 24.8455 22.6552 24.8349C22.6537 24.8344 22.6527 24.8333 22.6512 24.8333C22.6354 24.8249 22.6192 24.816 22.6029 24.8076C22.5684 24.7904 22.5339 24.7737 22.4993 24.7564C22.4836 24.7481 22.4679 24.7403 22.4521 24.733C22.4384 24.7269 22.4242 24.7197 22.411 24.7136C22.4089 24.7119 22.4074 24.7113 22.4054 24.7113C22.4049 24.7097 22.4034 24.7097 22.4029 24.7097C22.3952 24.7058 22.3866 24.7019 22.3785 24.6974C22.3643 24.6913 22.3495 24.684 22.3343 24.6774C22.3272 24.6746 22.3201 24.6712 22.314 24.6679H22.3135C22.3099 24.6662 22.3064 24.664 22.3033 24.6623H22.3028C22.2866 24.6545 22.2703 24.6473 22.2541 24.6406C22.2454 24.6362 22.2363 24.6317 22.2271 24.6284C22.215 24.6228 22.2033 24.6178 22.1911 24.6128C22.1667 24.6016 22.1429 24.5911 22.119 24.581C22.1043 24.5749 22.0885 24.5677 22.0738 24.5616C22.0697 24.5599 22.0652 24.5588 22.0611 24.556C22.0169 24.5382 21.9732 24.5192 21.9286 24.5025C21.9214 24.4998 21.9138 24.4964 21.9057 24.4931C21.8488 24.4708 21.7914 24.4485 21.7341 24.4268L21.664 24.4012C21.6218 24.3862 21.5812 24.3722 21.5391 24.3583L21.4563 24.3305C21.4131 24.3166 21.3705 24.3032 21.3273 24.2893C21.3171 24.2865 21.308 24.2832 21.2989 24.2809C21.2577 24.2681 21.2166 24.2564 21.1755 24.2453H21.175C21.175 24.2453 21.1724 24.2436 21.1709 24.2436C21.1704 24.2431 21.1694 24.2431 21.1689 24.2431C21.1257 24.2303 21.082 24.218 21.0384 24.2063C21.0114 24.1991 20.9835 24.1924 20.9566 24.1852C20.9185 24.1751 20.8794 24.1657 20.8408 24.1562C20.8043 24.1468 20.7672 24.1384 20.7301 24.1306C20.7032 24.1245 20.6753 24.1184 20.6484 24.1122C20.6016 24.1022 20.5549 24.0927 20.5072 24.0833C20.4843 24.0794 20.462 24.0749 20.4391 24.0699C20.3807 24.0588 20.3223 24.0488 20.2639 24.0393C20.1588 24.022 20.0537 24.0076 19.9486 23.9948C19.909 23.9892 19.8689 23.9853 19.8303 23.9808C19.7698 23.9747 19.7094 23.9691 19.6485 23.9647C19.6302 23.9625 19.6114 23.9608 19.5931 23.9602C19.5368 23.9552 19.4804 23.9519 19.424 23.9491C19.3621 23.9452 19.2996 23.943 19.2377 23.9413C19.225 23.9407 19.2128 23.9407 19.2006 23.9407C19.1351 23.9385 19.0701 23.938 19.0046 23.938H18.9995C18.9563 23.938 18.9137 23.9385 18.871 23.9396H18.8517C18.8319 23.9396 18.8126 23.9402 18.7928 23.9413H18.7791C18.7725 23.9413 18.7654 23.9419 18.7593 23.9419C18.7552 23.9419 18.7507 23.9419 18.7471 23.9424C18.7288 23.9424 18.7095 23.943 18.6912 23.9441C18.6694 23.9446 18.6481 23.9458 18.6257 23.9469L18.576 23.9491C18.5673 23.9491 18.5587 23.9497 18.5506 23.9508C18.5455 23.9508 18.5399 23.9508 18.5348 23.9524C18.5257 23.9524 18.5166 23.9524 18.5074 23.9541C18.5018 23.9541 18.4952 23.9541 18.4896 23.9547C18.4597 23.9563 18.4302 23.9586 18.4003 23.9608C18.3967 23.9608 18.3927 23.9613 18.3891 23.9613C18.3825 23.9619 18.3764 23.9619 18.3698 23.963H18.3693C18.3515 23.9647 18.3348 23.9658 18.3175 23.9675C18.282 23.9703 18.2474 23.9736 18.2119 23.9769C18.2078 23.9775 18.2032 23.9775 18.1992 23.9786C18.1834 23.9797 18.1677 23.9819 18.152 23.9842C18.1195 23.987 18.0875 23.9914 18.0555 23.9953L18.055 23.9959H18.0545C18.0494 23.9959 18.0443 23.9964 18.0397 23.9975C18.0204 23.9992 18.0016 24.0014 17.9829 24.0048C17.9285 24.012 17.8737 24.0198 17.8198 24.0282L17.8026 24.0304C17.7985 24.0304 17.795 24.0309 17.7904 24.0321C17.7812 24.0337 17.7711 24.0348 17.762 24.0365C17.7614 24.0365 17.7599 24.0365 17.7594 24.0371C17.7366 24.0398 17.7147 24.0432 17.6919 24.0482H17.6904L17.6386 24.0577C17.6182 24.0605 17.5974 24.0649 17.5771 24.0688C17.5238 24.0783 17.4715 24.0888 17.4182 24.1C17.3907 24.1055 17.3628 24.1117 17.3359 24.1172C17.3141 24.1217 17.2927 24.1267 17.2714 24.1323C17.2684 24.1323 17.2648 24.1328 17.2623 24.1345C17.2516 24.1362 17.2414 24.1384 17.2313 24.1417C17.2191 24.144 17.2069 24.1473 17.1957 24.1495C17.1851 24.1518 17.1744 24.1551 17.1648 24.1573H17.1643C17.1536 24.1596 17.1424 24.1629 17.1323 24.1651C17.1277 24.1657 17.1226 24.1668 17.118 24.1679C17.1003 24.1724 17.0835 24.1763 17.0662 24.1813C17.0536 24.1841 17.0414 24.1874 17.0292 24.1907L17.0119 24.1952L16.9505 24.2113C16.9454 24.213 16.9403 24.2136 16.9357 24.2152C16.9104 24.2225 16.8845 24.2292 16.8591 24.2369C16.8525 24.2386 16.8454 24.2397 16.8393 24.2425C16.8367 24.2431 16.8327 24.2442 16.8301 24.2453H16.8296C16.7565 24.2653 16.6844 24.2882 16.6118 24.3104C16.6031 24.3132 16.5945 24.316 16.5864 24.3188L16.5777 24.321C16.5706 24.3233 16.5635 24.3255 16.5564 24.3288C16.5564 24.3288 16.5564 24.3283 16.5559 24.3288C16.5483 24.331 16.5396 24.3333 16.5315 24.3366C16.4924 24.3489 16.4543 24.3622 16.4152 24.3761C16.3949 24.3823 16.3741 24.3901 16.3538 24.3979C16.3106 24.4129 16.268 24.4285 16.2253 24.4446C16.2126 24.4491 16.2004 24.4541 16.1893 24.458C16.1791 24.4619 16.1689 24.4658 16.1588 24.4697C16.1486 24.4736 16.139 24.4775 16.1288 24.4819C16.1014 24.492 16.073 24.5031 16.0461 24.5148C16.0359 24.5187 16.0262 24.5226 16.0171 24.5265C16.0085 24.5298 15.9993 24.5332 15.9907 24.5376C15.9724 24.5448 15.9536 24.5526 15.9354 24.5599C15.9232 24.5643 15.911 24.5699 15.8993 24.5749C15.879 24.5844 15.8587 24.5927 15.8389 24.6022C15.8246 24.6078 15.8114 24.6139 15.7977 24.62C15.7906 24.6222 15.7835 24.6256 15.7774 24.6284C15.7718 24.6306 15.7668 24.6328 15.7617 24.6362C15.7505 24.6406 15.7388 24.6456 15.7277 24.6512C15.7007 24.6629 15.6743 24.6751 15.6489 24.6879C15.6398 24.6924 15.6296 24.6963 15.6205 24.7013C15.6134 24.7052 15.6058 24.7085 15.5987 24.7124H15.5982C15.5941 24.7141 15.5905 24.7163 15.586 24.7186C15.5768 24.7225 15.5677 24.7269 15.5586 24.7308C15.5489 24.7353 15.5393 24.7403 15.5296 24.7458C15.5134 24.7536 15.4971 24.7614 15.4814 24.7692C15.4346 24.7926 15.3884 24.816 15.3422 24.8399C15.3295 24.8461 15.3173 24.8533 15.3052 24.8594C15.2986 24.8617 15.2925 24.8656 15.2854 24.8695C15.2854 24.8695 15.2848 24.87 15.2848 24.8695C15.2691 24.8772 15.2544 24.8856 15.2386 24.8951C15.2264 24.9012 15.2153 24.9073 15.2041 24.9134C15.1955 24.9173 15.1873 24.9218 15.1792 24.9274C15.1762 24.9279 15.1736 24.9296 15.1716 24.9318C15.1604 24.9363 15.1498 24.9429 15.1381 24.9491L15.0807 24.9819C14.9837 25.0365 14.8877 25.0938 14.7928 25.1529C14.7593 25.1729 14.7252 25.1946 14.6922 25.2169C14.6821 25.223 14.6719 25.2302 14.6618 25.2364C14.6435 25.2481 14.6247 25.2603 14.6064 25.272C14.5988 25.2776 14.5902 25.2837 14.582 25.2893C14.58 25.2898 14.5785 25.2909 14.577 25.292C14.5678 25.2976 14.5592 25.3037 14.5505 25.3093C14.5429 25.3138 14.5358 25.3193 14.5287 25.3243C14.5175 25.3316 14.5064 25.3394 14.4952 25.3477C14.4617 25.3694 14.4292 25.3923 14.3967 25.4151C14.318 25.4697 14.2403 25.5264 14.1641 25.5855C14.122 25.6166 14.0803 25.6484 14.0392 25.6812C14.0336 25.6857 14.028 25.6896 14.0219 25.6946C14.0021 25.7102 13.9823 25.7258 13.963 25.7419C13.9178 25.7776 13.8731 25.8143 13.8284 25.8516C13.8279 25.8522 13.8269 25.8522 13.8269 25.8533C13.7721 25.8989 13.7177 25.9457 13.6644 25.993C13.6553 26.0003 13.6466 26.0086 13.6375 26.0164C13.5847 26.0632 13.5324 26.1111 13.4806 26.1595C13.4395 26.1974 13.3988 26.2363 13.3587 26.2753C13.3369 26.2965 13.3145 26.3182 13.2927 26.3399C13.2434 26.3883 13.1947 26.4373 13.1464 26.4874C13.12 26.5142 13.0941 26.542 13.0682 26.5693C13.0423 26.5966 13.017 26.6244 12.9916 26.6523C12.989 26.655 12.9865 26.6578 12.9839 26.6601L12.955 26.6918C12.9484 26.6996 12.9423 26.7068 12.9367 26.7135C12.921 26.7308 12.9057 26.7475 12.89 26.7653C12.8966 26.7569 12.9042 26.748 12.9113 26.7402C12.1786 27.5208 11.1787 28.0019 10.0757 28.0019C7.82305 28.0013 6 26.0025 6 23.5376C6 23.0917 6.06043 22.6479 6.18027 22.222C6.19094 22.183 6.20211 22.144 6.2143 22.1062L8.28566 15.0774C8.29937 15.0301 8.31258 14.9822 8.3268 14.9348C8.33238 14.9148 8.33898 14.8942 8.34508 14.8742C8.35879 14.8296 8.3725 14.7862 8.38773 14.7422C8.39078 14.7339 8.39332 14.7244 8.39688 14.7149C8.41516 14.6604 8.43445 14.6058 8.45527 14.5518C8.45527 14.5512 8.45527 14.5501 8.45578 14.5496C8.47254 14.5022 8.49133 14.4543 8.51062 14.407C8.51469 14.3953 8.51926 14.3836 8.52434 14.3719C8.54566 14.3185 8.56852 14.2645 8.59086 14.2127C8.63859 14.1014 8.68938 13.9917 8.74422 13.8848C8.77113 13.8313 8.79906 13.7779 8.82699 13.7255C9.82027 11.8698 11.6591 10.6243 13.7645 10.6243C14.81 10.6243 15.7896 10.9316 16.6331 11.4678C16.9916 11.6961 17.3765 11.8709 17.7772 11.9878C18.5785 12.2228 19.4215 12.2228 20.2228 11.9878C20.6235 11.8709 21.0084 11.6955 21.3669 11.4678C22.2104 10.9311 23.19 10.6243 24.2355 10.6243C26.3409 10.6243 28.1797 11.8703 29.173 13.7255C29.2014 13.7784 29.2289 13.8313 29.2558 13.8848C29.3101 13.9922 29.3614 14.1014 29.4091 14.2127C29.432 14.2645 29.4543 14.3185 29.4757 14.3719C29.4828 14.3881 29.4894 14.4054 29.495 14.4215C29.5112 14.4605 29.5259 14.5 29.5402 14.5395C29.5452 14.5512 29.5493 14.5629 29.5529 14.5752C29.5706 14.6208 29.5869 14.6676 29.6026 14.7144C29.6432 14.8341 29.6803 14.9549 29.7138 15.0768L30.0002 16.0506L31.7634 22.0332C31.7654 22.0405 31.7674 22.0466 31.77 22.0533C31.7705 22.0555 31.7715 22.0572 31.772 22.0594L31.8309 22.2598C31.8319 22.2643 31.8334 22.2693 31.835 22.2743V22.276Z" fill="url(#paint2_linear_28_227)"/>
<path d="M15.9907 24.5342C15.9709 24.542 15.9511 24.5503 15.9318 24.5592C15.9211 24.5631 15.9105 24.5681 15.8998 24.5731C15.8983 24.5731 15.8973 24.5737 15.8957 24.5737C15.8754 24.5832 15.8551 24.5915 15.8353 24.601C15.8211 24.6065 15.8079 24.6127 15.7942 24.6188C15.7871 24.621 15.78 24.6244 15.7739 24.6271C15.7566 24.6344 15.7404 24.6422 15.7241 24.6494C15.6972 24.6611 15.6708 24.6734 15.6454 24.6862C15.6363 24.6906 15.6271 24.6945 15.617 24.6995C15.6083 24.7023 15.6007 24.7068 15.5926 24.7107C15.5545 24.729 15.5154 24.748 15.4768 24.7674C15.4306 24.7897 15.3839 24.8137 15.3377 24.8382C15.3356 24.8387 15.3336 24.8404 15.3311 24.8409C15.3204 24.846 15.3102 24.851 15.3006 24.8571C15.294 24.8593 15.2879 24.8632 15.2808 24.8671C15.2808 24.8671 15.2803 24.8677 15.2803 24.8671C15.2534 24.881 15.2264 24.8961 15.1995 24.9117C15.1909 24.9156 15.1823 24.92 15.1741 24.925C15.1604 24.9323 15.1472 24.94 15.1335 24.9473L15.0761 24.9801C15.0721 24.9824 15.067 24.9857 15.0624 24.9879C14.97 25.0403 14.8786 25.0948 14.7877 25.1511C14.7542 25.1711 14.7202 25.1928 14.6871 25.2151C14.677 25.2212 14.6668 25.2285 14.6567 25.2346C14.6196 25.258 14.583 25.283 14.546 25.3075C14.5384 25.312 14.5312 25.3175 14.5241 25.3226C14.5211 25.3248 14.5175 25.327 14.514 25.3287C14.5064 25.3342 14.4982 25.3398 14.4896 25.3448C14.4571 25.3671 14.4241 25.3899 14.3916 25.4133C14.3129 25.4679 14.2352 25.5247 14.159 25.5837C14.1169 25.6149 14.0752 25.6466 14.0341 25.6795C14.0285 25.6839 14.0229 25.6878 14.0168 25.6928C13.997 25.7084 13.9772 25.724 13.9579 25.7401C13.9127 25.7758 13.868 25.8125 13.8234 25.8498C13.8229 25.8504 13.8218 25.8504 13.8218 25.8515C13.767 25.8972 13.7127 25.9439 13.6593 25.9912C13.6502 25.9985 13.6416 26.0068 13.6324 26.0146C13.5796 26.0614 13.5273 26.1093 13.4755 26.1577C13.4344 26.1956 13.3937 26.2346 13.3536 26.2735C13.3318 26.2947 13.3095 26.3164 13.2876 26.3381C13.2384 26.3866 13.1896 26.4356 13.1414 26.4857C13.0997 26.5285 13.0576 26.5731 13.0164 26.6165C13.0134 26.6204 13.0098 26.6243 13.0063 26.6282L12.9789 26.6588C12.9555 26.6839 12.9327 26.7095 12.9103 26.7351L12.9062 26.7396C12.1735 27.5202 11.1736 28.0012 10.0706 28.0012C7.82305 28.0012 6 26.0024 6 23.5375C6 23.0915 6.06043 22.6478 6.18027 22.2219C6.19094 22.1829 6.20211 22.1439 6.2143 22.106L8.28566 15.0773C8.29937 15.0299 8.31258 14.9821 8.3268 14.9347C8.33238 14.9147 8.33898 14.8941 8.34508 14.874C8.35879 14.8295 8.3725 14.7861 8.38773 14.7421C8.39078 14.7337 8.39332 14.7243 8.39688 14.7148C8.41516 14.6602 8.43445 14.6057 8.45527 14.5517C8.45527 14.5511 8.45527 14.55 8.45578 14.5494C8.47254 14.5021 8.49133 14.4542 8.51062 14.4069C8.51469 14.3952 8.51926 14.3835 8.52434 14.3718C8.54566 14.3184 8.56852 14.2644 8.59086 14.2126C8.66297 14.0461 8.74168 13.8835 8.82699 13.7249C8.53398 14.4364 8.37098 15.2259 8.37098 16.0572C8.37098 17.2081 8.68379 18.2782 9.22156 19.1718C10.0762 20.5944 11.5006 21.5688 13.1383 21.7063C13.1952 21.7107 13.2521 21.7141 13.3095 21.7174C13.3851 21.7213 13.4618 21.723 13.5385 21.723C13.6223 21.723 13.7061 21.7208 13.7888 21.7157C13.8924 21.7107 13.9955 21.7013 14.0986 21.6885C14.1834 21.679 14.2677 21.6667 14.352 21.6512C14.5379 21.6194 14.7202 21.5754 14.8984 21.5231L15.9912 24.5342H15.9907Z" fill="url(#paint3_linear_28_227)"/>
<path d="M30.0698 27.3336C29.9231 27.4344 29.7702 27.5241 29.6123 27.602C29.5722 27.6226 29.5321 27.6421 29.4909 27.6605C29.01 27.8798 28.4824 28.0012 27.9284 28.0012C26.8076 28.0012 25.7925 27.5051 25.0572 26.7017L25.0501 26.6939L25.0481 26.6917L25.0181 26.6588C24.9912 26.6293 24.9643 26.6004 24.9374 26.5714C24.9105 26.5419 24.8825 26.5141 24.8556 26.4857C24.8317 26.4606 24.8074 26.4356 24.7825 26.4111C24.7586 26.386 24.7342 26.3621 24.7094 26.3381C24.6875 26.3164 24.6652 26.2952 24.6433 26.2735C24.6032 26.2346 24.5626 26.1956 24.5215 26.1577C24.4748 26.1137 24.427 26.0703 24.3788 26.028C24.3722 26.0219 24.3646 26.0157 24.3574 26.0085C24.3559 26.0068 24.3549 26.0063 24.3539 26.0057L24.3524 26.0041C24.3524 26.0041 24.3503 26.0029 24.3498 26.0018C24.3356 25.9896 24.3219 25.9779 24.3087 25.9662L24.298 25.9567C24.2691 25.9311 24.2401 25.9066 24.2107 25.8821C24.1995 25.871 24.1873 25.8621 24.1762 25.8515C24.1762 25.8515 24.1762 25.8521 24.1757 25.8515L24.1589 25.8376C24.1548 25.8337 24.1508 25.8303 24.1467 25.8276C24.1223 25.8064 24.098 25.7869 24.0731 25.7669C24.0624 25.7574 24.0512 25.749 24.0396 25.7401C24.0203 25.724 24.0005 25.7078 23.9806 25.6928C23.9751 25.6884 23.9695 25.6839 23.9639 25.6795L23.8832 25.6165C23.8694 25.6065 23.8567 25.5965 23.8435 25.587C23.841 25.5842 23.838 25.5815 23.8344 25.5798L23.8197 25.5681C23.7537 25.5185 23.6876 25.4701 23.6206 25.4228C23.6039 25.4105 23.5866 25.3988 23.5688 25.386C23.549 25.3721 23.5292 25.3587 23.5094 25.3448H23.5089C23.5008 25.3393 23.4931 25.3342 23.4855 25.3287L23.4368 25.2958C23.3875 25.263 23.3383 25.2307 23.2885 25.1984C23.2865 25.1967 23.2844 25.1962 23.2819 25.1945C23.2778 25.1923 23.2728 25.1884 23.2672 25.185C23.2585 25.1795 23.2494 25.1739 23.2408 25.1689C23.1859 25.1344 23.1311 25.1004 23.0757 25.067H23.0752C23.0199 25.0336 22.964 25.0019 22.9076 24.9707C22.8751 24.9523 22.8421 24.9339 22.8096 24.9161C22.7817 24.9005 22.7538 24.8855 22.7258 24.871C22.7238 24.8693 22.7218 24.8682 22.7192 24.8671C22.7192 24.8677 22.7187 24.8671 22.7187 24.8671C22.6979 24.8554 22.6766 24.8443 22.6558 24.8337C22.638 24.8242 22.6202 24.8159 22.6035 24.8064C22.5689 24.7892 22.5344 24.7725 22.4999 24.7552C22.4841 24.7468 22.4684 24.7391 22.4526 24.7318C22.4379 24.724 22.4232 24.7168 22.408 24.7101C22.3978 24.7056 22.3887 24.7006 22.379 24.6962C22.3648 24.6901 22.3501 24.6828 22.3348 24.6761C22.3277 24.6734 22.3206 24.67 22.3145 24.6667H22.314C22.3105 24.6644 22.3069 24.6628 22.3033 24.6611C22.2871 24.6533 22.2708 24.6461 22.2546 24.6394C22.246 24.6349 22.2368 24.6305 22.2277 24.6271C22.2155 24.6216 22.2038 24.6166 22.1916 24.6116C22.1673 24.6004 22.1434 24.5898 22.1195 24.5798C22.1048 24.5737 22.0896 24.5665 22.0743 24.5603C22.0703 24.5587 22.0657 24.5575 22.0616 24.5548C22.0454 24.5475 22.0281 24.5408 22.0114 24.5336L23.1042 21.5225C23.2824 21.5754 23.4647 21.6189 23.6506 21.6506C23.6556 21.6523 23.6607 21.6528 23.6653 21.6528C23.744 21.6679 23.8232 21.6784 23.9035 21.6879C23.9568 21.6951 24.0101 21.7002 24.0629 21.7052C24.1132 21.7091 24.1635 21.713 24.2148 21.7152C24.2259 21.7157 24.2366 21.7169 24.2483 21.7169C24.3199 21.7208 24.392 21.7224 24.4641 21.7224C24.5408 21.7224 24.6174 21.7208 24.6931 21.7169C24.7739 21.713 24.8541 21.7068 24.9343 21.699C26.5426 21.5404 27.938 20.5727 28.781 19.1718C29.3188 18.2782 29.6316 17.2081 29.6316 16.0572C29.6316 15.9124 29.6265 15.7688 29.6169 15.6274C29.5722 14.9698 29.4229 14.3262 29.1756 13.7249C29.204 13.7777 29.2314 13.8306 29.2583 13.8841C29.3122 13.9916 29.3635 14.1012 29.4117 14.212C29.4346 14.2638 29.4569 14.3178 29.4782 14.3713C29.4853 14.3874 29.4919 14.4047 29.4975 14.4208C29.5138 14.4598 29.5285 14.4993 29.5427 14.5389C29.5478 14.5506 29.5519 14.5622 29.5554 14.5745C29.5732 14.6202 29.5894 14.6669 29.6052 14.7137C29.6458 14.8334 29.6829 14.9542 29.7164 15.0762L30.0028 16.05L31.7659 22.0325C31.768 22.0398 31.77 22.0459 31.7725 22.0526L31.8335 22.2592C31.835 22.2636 31.836 22.2686 31.8375 22.2742C31.9452 22.674 32.0026 23.0977 32.0026 23.5364C32.0026 25.1399 31.2307 26.5458 30.0724 27.3325L30.0698 27.3336Z" fill="url(#paint4_linear_28_227)"/>
<path d="M31.8349 22.2759C31.9426 22.6756 32 23.0993 32 23.5381C32 25.1416 31.2281 26.5475 30.0698 27.3342C29.923 27.435 29.7702 27.5246 29.6122 27.6026C29.5721 27.6232 29.532 27.6426 29.4909 27.661L24.1685 21.8254L24.0598 21.7063L22.5044 20.0009H22.5039L21.8656 19.2999C21.864 19.2982 21.862 19.2971 21.8605 19.2943C21.8092 19.2448 21.7594 19.1941 21.7107 19.1417C21.6863 19.1156 21.6619 19.0894 21.6386 19.0627C21.567 18.9825 21.4989 18.8995 21.4334 18.8132C21.3689 18.7292 21.308 18.6423 21.2496 18.5527C21.2481 18.551 21.247 18.5488 21.246 18.5466C21.178 18.4413 21.114 18.3322 21.0551 18.2208C21.0277 18.1702 21.0013 18.1189 20.9764 18.0666C20.9606 18.0332 20.9454 17.9998 20.9297 17.9653C20.9154 17.9347 20.9017 17.9029 20.8885 17.8717C20.8794 17.85 20.8703 17.8283 20.8616 17.8066C20.852 17.7827 20.8423 17.7593 20.8332 17.7348C20.8225 17.708 20.8124 17.6808 20.8027 17.654C20.7651 17.5505 20.7311 17.4452 20.7006 17.3389C20.6895 17.2994 20.6788 17.2598 20.6686 17.2197C20.6595 17.1824 20.6504 17.1451 20.6417 17.1078C20.628 17.0471 20.6158 16.9865 20.6042 16.9252C20.597 16.8901 20.591 16.8551 20.5859 16.8194C20.5788 16.7788 20.5727 16.7376 20.5676 16.6964C20.5635 16.6674 20.56 16.6385 20.5569 16.609C20.5351 16.4258 20.5239 16.2409 20.5244 16.0561C20.5244 13.6747 22.285 11.7444 24.4569 11.7444C24.5036 11.7444 24.5499 11.7449 24.5961 11.7472C24.623 11.7477 24.6499 11.7488 24.6763 11.7511C24.7103 11.7527 24.7444 11.755 24.7784 11.7583C24.8388 11.7639 24.8997 11.7706 24.9592 11.7795C24.9871 11.7834 25.014 11.7873 25.0409 11.7917C25.0521 11.7934 25.0638 11.7945 25.0744 11.7973C25.0942 11.8001 25.114 11.8045 25.1333 11.8084C25.1994 11.8207 25.2644 11.8351 25.3294 11.8513C25.3583 11.8585 25.3883 11.8663 25.4172 11.8747C25.4853 11.8936 25.5528 11.9136 25.6193 11.9359C25.6213 11.9365 25.6244 11.9376 25.6269 11.9381C25.6879 11.9593 25.7488 11.9821 25.8092 12.0066C25.8163 12.0089 25.8235 12.0122 25.8295 12.015C25.858 12.0267 25.8859 12.0384 25.9138 12.0506C25.9463 12.0645 25.9783 12.0785 26.0103 12.094C26.0403 12.108 26.0703 12.123 26.0997 12.1375C26.1038 12.1391 26.1083 12.1414 26.1124 12.1436C26.1408 12.1586 26.1698 12.1731 26.1977 12.1887C26.2312 12.206 26.2637 12.2243 26.2962 12.2438C26.3247 12.26 26.3521 12.2772 26.38 12.2945C26.4105 12.3134 26.4394 12.3318 26.4694 12.3513C26.4983 12.3702 26.5283 12.3902 26.5567 12.4103C26.6725 12.4905 26.7842 12.5768 26.8914 12.6703C27.0788 12.8323 27.2524 13.0127 27.4099 13.2093L27.4205 13.221L29.6138 15.6262L30.0002 16.05L31.7633 22.0325C31.7654 22.0398 31.7674 22.0459 31.7699 22.0526L31.8309 22.2592C31.8324 22.2642 31.8334 22.2686 31.8349 22.2742V22.2759Z" fill="url(#paint5_linear_28_227)"/>
<path d="M24.457 20.3683C26.6288 20.3683 28.3895 18.4379 28.3895 16.0566C28.3895 13.6753 26.6288 11.7449 24.457 11.7449C22.2851 11.7449 20.5245 13.6753 20.5245 16.0566C20.5245 18.4379 22.2851 20.3683 24.457 20.3683Z" fill="url(#paint6_linear_28_227)"/>
<path d="M24.8668 22.3985L29.6128 27.6021C29.5727 27.6227 29.5325 27.6422 29.4914 27.6606C29.0105 27.8799 28.4829 28.0013 27.9289 28.0013C26.8081 28.0013 25.793 27.5052 25.0577 26.7018C25.0755 26.7213 25.0932 26.7413 25.111 26.7619C25.0912 26.7397 25.0704 26.7168 25.0506 26.6946L25.0486 26.6923L25.0186 26.6595C24.9653 26.601 24.9109 26.5437 24.8561 26.4869C24.8317 26.4618 24.8078 26.4373 24.783 26.4123C24.7601 26.39 24.7383 26.3672 24.7154 26.3455C24.7134 26.3432 24.7119 26.341 24.7098 26.3393C24.688 26.3176 24.6657 26.2965 24.6438 26.2747C24.6037 26.2358 24.5626 26.1974 24.522 26.1589C24.4752 26.115 24.4275 26.0715 24.3793 26.0292C24.3727 26.0231 24.365 26.017 24.3579 26.0097C24.3564 26.008 24.3554 26.0075 24.3544 26.0069L24.3528 26.0053C24.3528 26.0053 24.3513 26.0047 24.3503 26.003C24.3361 25.9908 24.3224 25.9791 24.3092 25.9674L24.2985 25.9579C24.2696 25.9323 24.2406 25.9078 24.2112 25.8833C24.2 25.8722 24.1878 25.8633 24.1766 25.8527C24.1766 25.8527 24.1766 25.8533 24.1761 25.8527L24.1594 25.8388C24.1553 25.8349 24.1512 25.8315 24.1472 25.8288C24.1228 25.8076 24.0984 25.7881 24.0736 25.7681C24.0629 25.7586 24.0517 25.7503 24.04 25.7414C24.0207 25.7252 24.0009 25.7091 23.9811 25.694C23.9755 25.6896 23.97 25.6851 23.9644 25.6807L23.8836 25.6177C23.8699 25.6077 23.8572 25.5977 23.844 25.5882C23.8364 25.581 23.8283 25.576 23.8207 25.5699H23.8202C23.7541 25.5203 23.6881 25.4719 23.6211 25.4245C23.5896 25.4017 23.5576 25.38 23.5251 25.3583C23.52 25.3538 23.5145 25.3499 23.5089 25.3472L23.5084 25.3466C23.5012 25.341 23.4936 25.3355 23.4855 25.3305L23.4368 25.2976C23.4119 25.2803 23.387 25.2642 23.3616 25.2486C23.3377 25.2319 23.3134 25.2158 23.2885 25.2002C23.2864 25.1985 23.2844 25.1979 23.2819 25.1963C23.2778 25.194 23.2727 25.1901 23.2671 25.1868C23.2585 25.1812 23.2494 25.1757 23.2407 25.1707C23.1869 25.1367 23.1326 25.1033 23.0782 25.071C23.0767 25.0704 23.0762 25.0693 23.0747 25.0688C23.0193 25.0359 22.9635 25.0036 22.9071 24.9724C22.8746 24.9541 22.8416 24.9357 22.8091 24.9179C22.7812 24.9023 22.7532 24.8873 22.7253 24.8728C22.7233 24.8711 22.7212 24.87 22.7187 24.8689C22.7187 24.8694 22.7182 24.8689 22.7182 24.8689C22.6974 24.8572 22.6761 24.8461 22.6552 24.8355C22.6537 24.8349 22.6527 24.8338 22.6512 24.8338C22.5714 24.7926 22.4917 24.7525 22.411 24.7141C22.4089 24.7124 22.4074 24.7119 22.4054 24.7119C22.4049 24.7102 22.4034 24.7102 22.4029 24.7102C22.38 24.6985 22.3577 24.6885 22.3348 24.6773C22.3277 24.6746 22.3206 24.6712 22.3145 24.6679C22.3109 24.6662 22.3074 24.664 22.3038 24.6623H22.3033C22.2871 24.6545 22.2708 24.6473 22.2546 24.6406C22.2459 24.6361 22.2368 24.6317 22.2277 24.6284C22.2155 24.6228 22.2038 24.6178 22.1916 24.6128C22.1672 24.6016 22.1434 24.591 22.1195 24.581C22.1048 24.5749 22.0895 24.5677 22.0743 24.5615C22.0702 24.5599 22.0657 24.5588 22.0616 24.556C22.0174 24.5382 21.9737 24.5192 21.9291 24.5025C21.922 24.4997 21.9143 24.4964 21.9062 24.4931C21.8493 24.4708 21.792 24.4485 21.7346 24.4268L21.6645 24.4012C21.6223 24.3862 21.5817 24.3722 21.5396 24.3583L21.4568 24.3305C21.4136 24.3166 21.371 24.3026 21.3278 24.2893C21.3177 24.2865 21.3085 24.2831 21.2994 24.2809C21.2582 24.2681 21.2171 24.2564 21.176 24.2453H21.1755C21.1755 24.2453 21.1729 24.2436 21.1714 24.2436C21.1709 24.2431 21.1699 24.2431 21.1694 24.2431C21.1262 24.2303 21.0825 24.218 21.0389 24.2063C21.012 24.1985 20.9845 24.1913 20.9571 24.1852C20.9185 24.1746 20.8804 24.1651 20.8413 24.1562C20.8048 24.1467 20.7677 24.1384 20.7306 24.1306C20.7037 24.1234 20.6758 24.1183 20.6489 24.1122C20.6021 24.1022 20.5544 24.0927 20.5077 24.0833C20.4848 24.0794 20.4625 24.0749 20.4396 24.0699C20.3812 24.0588 20.3228 24.0487 20.2645 24.0393C20.1593 24.022 20.0542 24.0075 19.9491 23.9947C19.9095 23.9892 19.8694 23.9853 19.8308 23.9808C19.7703 23.9747 19.7099 23.9691 19.649 23.9647C19.6307 23.9624 19.6119 23.9608 19.5936 23.9602C19.5373 23.9552 19.4809 23.9519 19.4245 23.9491C19.3626 23.9452 19.3001 23.943 19.2382 23.9413C19.2255 23.9407 19.2133 23.9407 19.2011 23.9407C19.1356 23.9385 19.0706 23.9379 19.0051 23.9379H19C18.9573 23.9379 18.9142 23.9379 18.8715 23.9396H18.8411C18.8207 23.9402 18.8004 23.9402 18.7801 23.9413C18.7735 23.9413 18.7664 23.9418 18.7603 23.9418C18.7562 23.9418 18.7517 23.9418 18.7481 23.9424C18.7075 23.943 18.6674 23.9446 18.6268 23.9469L18.577 23.9491C18.5628 23.9496 18.5496 23.9508 18.5359 23.9519C18.5267 23.9519 18.5176 23.9519 18.5084 23.9535C18.4729 23.9552 18.4368 23.9574 18.4013 23.9608C18.3977 23.9608 18.3937 23.9613 18.3901 23.9613C18.3835 23.9619 18.3774 23.9619 18.3708 23.963H18.3703C18.353 23.9647 18.3358 23.9658 18.3185 23.9675C18.2789 23.9702 18.2388 23.9747 18.2002 23.9786C18.1845 23.9797 18.1687 23.9819 18.153 23.9842C18.1205 23.9869 18.0885 23.9914 18.0565 23.9959C18.056 23.9953 18.056 23.9959 18.056 23.9959H18.0555C18.0504 23.9959 18.0453 23.9964 18.0407 23.9975C18.0214 23.9992 18.0027 24.002 17.9839 24.0048C17.9295 24.012 17.8747 24.0198 17.8209 24.0281L17.8036 24.0304C17.7995 24.0304 17.796 24.0309 17.7914 24.032C17.7823 24.0337 17.7721 24.0348 17.763 24.0365C17.7625 24.0365 17.7609 24.0365 17.7604 24.0371C17.7376 24.0398 17.7152 24.0443 17.6929 24.0482C17.6751 24.051 17.6573 24.0538 17.6396 24.0577C17.6193 24.0604 17.5984 24.0649 17.5781 24.0688C17.5248 24.0783 17.4725 24.0888 17.4192 24.1C17.3918 24.1055 17.3638 24.1117 17.3369 24.1172C17.3151 24.1217 17.2937 24.1267 17.2724 24.1323C17.2694 24.1323 17.2658 24.1328 17.2633 24.1345C17.2526 24.1362 17.2425 24.1384 17.2323 24.1417C17.2201 24.144 17.2079 24.1473 17.1968 24.1495C17.1861 24.1517 17.1754 24.154 17.1658 24.1573H17.1653C17.1546 24.1595 17.1434 24.1629 17.1333 24.1651C17.1282 24.1657 17.1231 24.1673 17.1191 24.1679C17.1013 24.1723 17.0845 24.1762 17.0673 24.1813L17.0302 24.1907L17.0129 24.1952L16.9515 24.2113C16.9464 24.213 16.9413 24.2136 16.9368 24.2152C16.9114 24.2225 16.8855 24.2291 16.8601 24.2369C16.8535 24.2386 16.8464 24.2397 16.8403 24.2425C16.8377 24.2431 16.8337 24.2442 16.8311 24.2447L16.8306 24.2453C16.7575 24.2653 16.6854 24.2882 16.6128 24.3104C16.6041 24.3132 16.5955 24.316 16.5874 24.3188L16.5787 24.321C16.5716 24.3232 16.564 24.3255 16.5569 24.3288C16.5493 24.331 16.5407 24.3333 16.5325 24.3366C16.4934 24.3488 16.4553 24.3622 16.4162 24.3761C16.3959 24.3823 16.3751 24.3901 16.3548 24.3978C16.3121 24.4129 16.269 24.4285 16.2263 24.4446C16.2136 24.4491 16.2014 24.4541 16.1903 24.458C16.1796 24.4619 16.17 24.4658 16.1598 24.4697C16.1496 24.4736 16.14 24.4775 16.1298 24.4819C16.1024 24.4919 16.0745 24.5031 16.0471 24.5148C16.0369 24.5187 16.0278 24.5226 16.0181 24.5265C16.0095 24.5298 16.0003 24.5331 15.9917 24.5376C15.9816 24.5415 15.9714 24.5459 15.9618 24.551C15.9206 24.5671 15.88 24.5844 15.8399 24.6022C15.8257 24.6077 15.8125 24.6139 15.7987 24.62L13.9874 22.634L13.8244 22.4552L13.2678 21.845L13.1429 21.708L10.9476 19.3011C10.9476 19.3011 10.9441 19.2983 10.9425 19.2955C10.8923 19.2471 10.843 19.1964 10.7948 19.1446H10.7943C10.7943 19.1446 10.7927 19.1441 10.7927 19.143C10.7684 19.1168 10.744 19.0906 10.7201 19.0639C10.6485 18.9837 10.5805 18.9008 10.515 18.8145C10.4505 18.7304 10.3895 18.6435 10.3311 18.5539C10.3296 18.5522 10.3286 18.55 10.3276 18.5478C10.2286 18.3941 10.1387 18.2343 10.0579 18.0678C10.0422 18.0344 10.0269 18.001 10.0112 17.9665C9.99699 17.9359 9.98379 17.9041 9.97008 17.873C9.96093 17.8512 9.95179 17.8295 9.94316 17.8078C9.93351 17.7839 9.92386 17.7605 9.91472 17.736C9.90406 17.7093 9.8939 17.682 9.88425 17.6553C9.84668 17.5517 9.81265 17.4465 9.78218 17.3401C9.77101 17.3006 9.76035 17.2611 9.75019 17.221C9.74105 17.1837 9.73191 17.1464 9.72328 17.1091C9.70957 17.0484 9.69738 16.9877 9.6857 16.9264C9.67859 16.8914 9.6725 16.8563 9.66742 16.8206C9.66031 16.78 9.65422 16.7388 9.64914 16.6976C9.64508 16.6686 9.64152 16.6397 9.63847 16.6102C9.61664 16.427 9.60547 16.2422 9.60597 16.0573C9.60597 13.676 11.3666 11.7456 13.5385 11.7456C13.5852 11.7456 13.6314 11.7462 13.6776 11.7484C13.7045 11.7489 13.7314 11.7501 13.7578 11.7523C13.7919 11.754 13.8259 11.7562 13.8599 11.7595C13.9203 11.7651 13.9813 11.7718 14.0407 11.7807C14.0681 11.7846 14.095 11.7885 14.1225 11.7929C14.1336 11.7946 14.1453 11.7957 14.156 11.7985C14.1758 11.8013 14.1956 11.8057 14.2149 11.8096C14.2809 11.8219 14.3464 11.8364 14.4104 11.8525C14.4393 11.8597 14.4693 11.8675 14.4982 11.8759C14.5663 11.8948 14.6338 11.9149 14.7003 11.9371C14.7024 11.9377 14.7054 11.9388 14.708 11.9394C14.7689 11.9605 14.8298 11.9833 14.8903 12.0078C14.8974 12.0101 14.9045 12.0134 14.9106 12.0162C14.939 12.0279 14.967 12.0396 14.9949 12.0518C15.0274 12.0658 15.0594 12.0797 15.0914 12.0953C15.1213 12.1092 15.1513 12.1242 15.1807 12.1387C15.1848 12.1404 15.1894 12.1426 15.1934 12.1448C15.2219 12.1598 15.2508 12.1743 15.2787 12.1899C15.3123 12.2072 15.3448 12.2255 15.3773 12.245C15.4057 12.2612 15.4331 12.2784 15.4611 12.2957C15.4915 12.3146 15.5205 12.333 15.5504 12.3525C15.5794 12.3714 15.6093 12.3915 15.6378 12.4115C15.7536 12.4917 15.8653 12.578 15.9724 12.6715C16.1598 12.8336 16.3335 13.0139 16.4909 13.2105L16.5016 13.2222L21.0602 18.2204L22.4892 19.7872L22.7055 20.0243L24.2264 21.6919L24.2498 21.7175L24.8708 22.3985H24.8668Z" fill="url(#paint7_linear_28_227)"/>
<path d="M13.5334 20.3683C15.7053 20.3683 17.4659 18.4379 17.4659 16.0566C17.4659 13.6753 15.7053 11.7449 13.5334 11.7449C11.3615 11.7449 9.60089 13.6753 9.60089 16.0566C9.60089 18.4379 11.3615 20.3683 13.5334 20.3683Z" fill="url(#paint8_linear_28_227)"/>
<path d="M17.3242 17.0794L14.0214 13.4598C13.9081 13.3084 13.7395 13.2209 13.5608 13.2209C13.2317 13.2209 12.9651 13.5133 12.9651 13.874V15.4336H11.5427C11.2137 15.4336 10.9471 15.7259 10.9471 16.0867C10.9471 16.2899 11.0319 16.4714 11.1649 16.5917L14.4657 20.213C15.8764 19.8422 16.986 18.6262 17.3242 17.0794Z" fill="url(#paint9_linear_28_227)"/>
<path d="M15.5794 15.4336H14.157V13.874C14.157 13.5133 13.8904 13.2209 13.5613 13.2209C13.2323 13.2209 12.9657 13.5133 12.9657 13.874V15.4336H11.5433C11.2142 15.4336 10.9476 15.7259 10.9476 16.0867C10.9476 16.4475 11.2142 16.7398 11.5433 16.7398H12.9657V18.2993C12.9657 18.6601 13.2323 18.9524 13.5613 18.9524C13.8904 18.9524 14.157 18.6601 14.157 18.2993V16.7398H15.5794C15.9085 16.7398 16.1751 16.4475 16.1751 16.0867C16.1751 15.7259 15.9085 15.4336 15.5794 15.4336Z" fill="url(#paint10_linear_28_227)"/>
<path d="M30.0698 27.3337C29.923 27.4345 29.7702 27.5242 29.6122 27.6021C29.5721 27.6227 29.532 27.6422 29.4909 27.6606C29.01 27.8799 28.4824 28.0013 27.9283 28.0013C26.8076 28.0013 25.7925 27.5052 25.0572 26.7018C25.0749 26.7213 25.0927 26.7413 25.1105 26.7619C25.0907 26.7397 25.0699 26.7168 25.0501 26.6946L25.048 26.6923L25.0181 26.6595C24.9647 26.601 24.9104 26.5437 24.8556 26.4869C24.8312 26.4618 24.8073 26.4373 24.7824 26.4123C24.7596 26.39 24.7377 26.3672 24.7149 26.3455C24.7129 26.3432 24.7113 26.341 24.7093 26.3393C24.6875 26.3176 24.6651 26.2965 24.6433 26.2747C24.6032 26.2358 24.562 26.1974 24.5214 26.1589C24.4747 26.1149 24.427 26.0715 24.3787 26.0292C24.3721 26.0231 24.3645 26.017 24.3574 26.0097C24.3559 26.008 24.3549 26.0075 24.3538 26.0069L24.3523 26.0053C24.3523 26.0053 24.3508 26.0047 24.3498 26.003C24.3356 25.9908 24.3219 25.9791 24.3086 25.9674L24.298 25.9579C24.269 25.9323 24.2401 25.9078 24.2106 25.8833C24.2071 25.8805 24.2035 25.8772 24.2 25.875C24.1924 25.8672 24.1842 25.8611 24.1756 25.8533C24.1756 25.8533 24.1756 25.8538 24.1751 25.8533L24.1583 25.8393C24.1543 25.8354 24.1502 25.8321 24.1461 25.8293C24.1213 25.8093 24.0974 25.7887 24.0725 25.7686C24.0619 25.7592 24.0507 25.7508 24.039 25.7419C24.0197 25.7258 23.9999 25.7096 23.9801 25.6946C23.9745 25.6901 23.9689 25.6857 23.9633 25.6812L23.8826 25.6183C23.8689 25.6083 23.8562 25.5983 23.843 25.5888C23.8354 25.5816 23.8272 25.5765 23.8196 25.5704H23.8191C23.7531 25.5209 23.6871 25.4724 23.6201 25.4251C23.5886 25.4023 23.5566 25.3806 23.5241 25.3588C23.519 25.3544 23.5134 25.3505 23.5078 25.3477L23.5073 25.3471C23.5002 25.3416 23.4926 25.336 23.4845 25.331L23.4357 25.2982C23.4108 25.2809 23.386 25.2647 23.3606 25.2492C23.3342 25.2313 23.3077 25.2141 23.2808 25.1974C23.2768 25.1951 23.2717 25.1913 23.2661 25.1879C23.2575 25.1823 23.2483 25.1768 23.2397 25.1718C23.1859 25.1378 23.1315 25.1044 23.0772 25.0721C23.0757 25.0715 23.0752 25.0704 23.0736 25.0699C23.0183 25.037 22.9624 25.0047 22.9061 24.9735C22.8736 24.9552 22.8406 24.9368 22.8081 24.919C22.7801 24.9034 22.7522 24.8884 22.7243 24.8739C22.7222 24.8722 22.7202 24.8711 22.7177 24.87C22.7177 24.8705 22.7172 24.87 22.7172 24.87C22.6963 24.8583 22.675 24.8472 22.6542 24.8366C22.6527 24.836 22.6517 24.8349 22.6501 24.8349C22.5704 24.7937 22.4907 24.7536 22.4099 24.7152C22.4079 24.7135 22.4064 24.713 22.4044 24.713C22.4038 24.7113 22.4023 24.7113 22.4018 24.7113C22.379 24.6996 22.3566 24.6896 22.3338 24.6785C22.3267 24.6757 22.3195 24.6723 22.3135 24.669C22.3099 24.6673 22.3063 24.6651 22.3028 24.6634H22.3023C22.286 24.6556 22.2698 24.6484 22.2535 24.6417C22.2449 24.6373 22.2358 24.6328 22.2266 24.6295C22.2144 24.6239 22.2027 24.6189 22.1906 24.6139C22.1662 24.6027 22.1423 24.5922 22.1185 24.5821C22.1037 24.576 22.0885 24.5688 22.0733 24.5626C22.0692 24.561 22.0646 24.5599 22.0606 24.5571C22.0164 24.5393 21.9727 24.5203 21.928 24.5036C21.9209 24.5008 21.9133 24.4975 21.9052 24.4942C21.8483 24.4719 21.7909 24.4496 21.7335 24.4279L21.6635 24.4023C21.6213 24.3873 21.5807 24.3733 21.5385 24.3594L21.4558 24.3316C21.4035 24.3149 21.3506 24.2982 21.2983 24.282C21.2572 24.2692 21.2161 24.2575 21.1749 24.2464H21.1744C21.1744 24.2464 21.1719 24.2447 21.1704 24.2447C21.1699 24.2442 21.1688 24.2442 21.1683 24.2442C21.1252 24.2314 21.0815 24.2191 21.0378 24.2074C21.0109 24.1996 20.9835 24.1924 20.9561 24.1863C20.9175 24.1757 20.8794 24.1662 20.8403 24.1573C20.8037 24.1478 20.7667 24.1395 20.7296 24.1317C20.7027 24.1245 20.6747 24.1195 20.6478 24.1133C20.6011 24.1033 20.5534 24.0938 20.5067 24.0844C20.4838 24.0805 20.4615 24.076 20.4386 24.071C20.3802 24.0599 20.3218 24.0499 20.2634 24.0404C20.1583 24.0231 20.0532 24.0087 19.9481 23.9958C19.9085 23.9903 19.8683 23.9864 19.8297 23.9819C19.7693 23.9758 19.7089 23.9702 19.6479 23.9658C19.6297 23.9636 19.6109 23.9619 19.5926 23.9613C19.5362 23.9563 19.4799 23.953 19.4235 23.9502C19.3615 23.9463 19.2991 23.9441 19.2371 23.9424C19.2244 23.9418 19.2122 23.9418 19.2001 23.9418C19.1345 23.9396 19.0695 23.9391 19.004 23.9391H18.999C18.9558 23.9391 18.9131 23.9396 18.8705 23.9407H18.84C18.8243 23.9413 18.808 23.9413 18.7928 23.9424H18.7791C18.7725 23.9424 18.7654 23.943 18.7593 23.943L18.6912 23.9452C18.6694 23.9457 18.6481 23.9468 18.6257 23.948L18.576 23.9502C18.5673 23.9502 18.5587 23.9507 18.5506 23.9519C18.5363 23.9524 18.5216 23.9535 18.5074 23.9546C18.5018 23.9546 18.4952 23.9546 18.4896 23.9552C18.4597 23.9569 18.4302 23.9591 18.4002 23.9613C18.3967 23.9613 18.3926 23.9619 18.3891 23.9619C18.3825 23.9619 18.3764 23.9624 18.3698 23.9636H18.3693C18.3515 23.9652 18.3347 23.9663 18.3175 23.968C18.2819 23.9702 18.2464 23.9741 18.2119 23.9775C18.2078 23.978 18.2032 23.978 18.1992 23.9791C18.1834 23.9803 18.1677 23.9825 18.1519 23.9847C18.1194 23.9875 18.0874 23.9919 18.0554 23.9958C18.0549 23.9958 18.0549 23.9964 18.0549 23.9964H18.0544C18.0494 23.9964 18.0443 23.997 18.0397 23.9981C18.0204 23.9997 18.0016 24.0025 17.9828 24.0053C17.9285 24.0125 17.8736 24.0203 17.8198 24.0287C17.8142 24.0287 17.8086 24.0304 17.8026 24.0309C17.7985 24.0309 17.7949 24.0315 17.7904 24.0326C17.7812 24.0343 17.7711 24.0354 17.7619 24.037C17.7614 24.037 17.7599 24.037 17.7594 24.0376C17.7365 24.0404 17.7142 24.0448 17.6919 24.0487H17.6903L17.6385 24.0582C17.6182 24.061 17.5974 24.0654 17.5771 24.0693C17.5238 24.0788 17.4715 24.0894 17.4181 24.1005C17.3907 24.1061 17.3628 24.1122 17.3359 24.1178C17.314 24.1222 17.2927 24.1272 17.2714 24.1328C17.2683 24.1328 17.2648 24.1334 17.2622 24.135C17.2516 24.1367 17.2414 24.1389 17.2313 24.1423C17.2191 24.1445 17.2069 24.1478 17.1957 24.1501C17.1851 24.1523 17.1744 24.1556 17.1647 24.1579H17.1642C17.1536 24.1601 17.1424 24.1634 17.1322 24.1657C17.1272 24.1662 17.1221 24.1679 17.118 24.1684C17.1002 24.1729 17.0835 24.1768 17.0662 24.1818C17.0535 24.1846 17.0413 24.1879 17.0292 24.1913L17.0119 24.1957L16.9504 24.2119C16.9454 24.2135 16.9403 24.2141 16.9357 24.2158C16.9103 24.223 16.8844 24.2297 16.859 24.2375C16.8524 24.2392 16.8453 24.2403 16.8392 24.2431C16.8367 24.2436 16.8326 24.2447 16.8301 24.2453H16.8296C16.7565 24.2664 16.6844 24.2887 16.6117 24.3115C16.6031 24.3143 16.5945 24.3171 16.5863 24.3199C16.5762 24.3227 16.5665 24.326 16.5564 24.3299C16.5564 24.3299 16.5564 24.3294 16.5559 24.3299C16.5483 24.3321 16.5396 24.3344 16.5315 24.3377C16.4924 24.35 16.4543 24.3633 16.4152 24.3772C16.3949 24.3834 16.3741 24.3912 16.3538 24.399C16.3106 24.414 16.2679 24.4296 16.2253 24.4457C16.2126 24.4502 16.2004 24.4552 16.1892 24.4591C16.1786 24.463 16.1689 24.4669 16.1588 24.4708C16.1486 24.4747 16.139 24.4786 16.1288 24.483C16.1014 24.4931 16.0729 24.5042 16.046 24.5159C16.0359 24.5198 16.0267 24.5237 16.0171 24.5276C16.0085 24.5309 15.9993 24.5343 15.9907 24.5387C15.9805 24.5426 15.9704 24.5471 15.9607 24.5521C15.9414 24.5593 15.9226 24.5671 15.9033 24.5755C15.8815 24.5849 15.8602 24.5938 15.8388 24.6033C15.8246 24.6089 15.8114 24.615 15.7977 24.6211L15.7617 24.6373C15.7241 24.6534 15.6865 24.6707 15.6489 24.6885C15.6398 24.6929 15.6296 24.6968 15.6205 24.7018C15.6134 24.7057 15.6058 24.7091 15.5986 24.713H15.5981C15.5941 24.7146 15.5905 24.7169 15.586 24.7191C15.5667 24.7275 15.5484 24.7369 15.5291 24.7464C15.5128 24.7542 15.4966 24.762 15.4808 24.7698C15.4341 24.7932 15.3879 24.8165 15.3417 24.8405C15.329 24.8466 15.3168 24.8538 15.3046 24.86C15.298 24.8628 15.2919 24.8672 15.2853 24.8711C15.2691 24.8789 15.2533 24.8872 15.2381 24.8962C15.2259 24.9023 15.2147 24.9084 15.2036 24.9145C15.1949 24.9184 15.1868 24.9229 15.1787 24.9285C15.1756 24.929 15.1731 24.9307 15.1711 24.9329C15.1406 24.9485 15.1101 24.9658 15.0802 24.9825C14.9832 25.037 14.8872 25.0944 14.7922 25.1534C14.7587 25.1745 14.7247 25.1951 14.6917 25.2174C14.6815 25.2235 14.6714 25.2308 14.6612 25.2369C14.6348 25.2542 14.6079 25.272 14.5815 25.2898C14.5795 25.2904 14.5779 25.2915 14.5764 25.2926C14.5673 25.2982 14.5586 25.3043 14.55 25.3098C14.5424 25.3143 14.5353 25.3199 14.5282 25.3249C14.5251 25.3271 14.5216 25.3293 14.518 25.331C14.5104 25.3371 14.5023 25.3421 14.4947 25.3483C14.4611 25.37 14.4286 25.3928 14.3961 25.4156L13.9742 24.9529L13.9701 24.9485C13.9625 24.9407 13.9544 24.9329 13.9467 24.9246C13.9381 24.9162 13.9295 24.9079 13.9213 24.8989C13.9051 24.8822 13.8888 24.8655 13.8731 24.8483C13.8574 24.831 13.8421 24.8143 13.8264 24.7965C13.8101 24.7787 13.7944 24.7603 13.7792 24.7414C13.735 24.6879 13.6928 24.6328 13.6522 24.5755C13.6111 24.5175 13.572 24.4585 13.5354 24.3973C13.5232 24.3761 13.511 24.3561 13.4994 24.3349C13.4638 24.2726 13.4303 24.2085 13.3993 24.1434C13.3582 24.056 13.3206 23.9658 13.2871 23.8745H13.2866C13.2708 23.8277 13.2556 23.7809 13.2414 23.7347C13.2338 23.7113 13.2272 23.6874 13.2201 23.6629C13.2135 23.6395 13.2074 23.6156 13.2008 23.5911C13.1952 23.5671 13.1886 23.5421 13.1835 23.5181C13.1779 23.4942 13.1723 23.4691 13.1672 23.4441C13.1622 23.419 13.1581 23.3945 13.1535 23.37C13.15 23.3539 13.1479 23.3372 13.1449 23.3205C13.1424 23.3049 13.1398 23.2893 13.1378 23.2737C13.1352 23.2559 13.1327 23.237 13.1307 23.2191C13.1271 23.1941 13.1241 23.1685 13.122 23.1429C13.1205 23.1312 13.1195 23.1189 13.1185 23.1072C13.117 23.0889 13.1149 23.0694 13.1144 23.0504C13.1109 23.0037 13.1088 22.9575 13.1073 22.9107C13.1068 22.8851 13.1068 22.8589 13.1068 22.8322C13.1068 22.4953 13.1606 22.1613 13.2673 21.845C13.282 21.8021 13.2972 21.7604 13.3135 21.7192C13.3805 21.5471 13.4623 21.3829 13.5588 21.2287C14.0254 20.4831 14.8085 19.9937 15.6956 19.9937C15.72 19.9937 15.7439 19.9937 15.7672 19.9943C15.8099 19.9959 15.8531 19.9982 15.8947 20.0021C15.912 20.0037 15.9292 20.0049 15.9465 20.0065C15.9577 20.0071 15.9683 20.0088 15.979 20.0104C16.0024 20.0127 16.0257 20.016 16.0486 20.0199C16.0648 20.0221 16.0821 20.0243 16.0983 20.0277C16.1126 20.0299 16.1268 20.0321 16.141 20.0355C16.1567 20.0383 16.1715 20.041 16.1862 20.0449C16.2024 20.0477 16.2182 20.0522 16.2344 20.055L16.2796 20.0667C16.2938 20.0694 16.307 20.0739 16.3208 20.0778C16.3355 20.0817 16.3507 20.0856 16.3649 20.09C16.3786 20.0928 16.3913 20.0973 16.404 20.1017C16.4426 20.1134 16.4807 20.1262 16.5183 20.1407C16.532 20.1452 16.5452 20.1502 16.5579 20.1557C16.6513 20.1914 16.7427 20.2337 16.8316 20.2816L16.891 20.3144C16.9504 20.3484 17.0088 20.3851 17.0657 20.4247C17.085 20.4369 17.1038 20.4503 17.1226 20.4642C17.147 20.4815 17.1708 20.4993 17.1942 20.5176C17.2247 20.5416 17.2551 20.5666 17.2851 20.5923C17.3049 20.6078 17.3232 20.6251 17.3425 20.6418C17.3745 20.6708 17.4054 20.7008 17.4359 20.7303L17.4379 20.7326C17.4704 20.766 17.5024 20.7994 17.5339 20.8339C17.5497 20.8517 17.5649 20.869 17.5801 20.8868C17.5959 20.9046 17.6106 20.9224 17.6253 20.9402C17.6274 20.9419 17.6279 20.943 17.6294 20.9447L19.6764 23.1891C19.7028 23.2147 19.7277 23.2403 19.7531 23.2676C19.7531 23.2659 19.7526 23.2654 19.7526 23.2637C19.7485 23.2331 19.7444 23.2024 19.7414 23.1718C19.7363 23.1273 19.7327 23.0827 19.7302 23.0382C19.7282 23.0076 19.7267 22.9775 19.7251 22.9474V22.9396C19.7236 22.9034 19.7231 22.8678 19.7231 22.8316C19.7231 21.2637 20.8819 19.9932 22.3119 19.9932C22.3566 19.9932 22.4013 19.9948 22.4455 19.9971C22.4668 19.9976 22.4876 19.9993 22.5085 20.001C22.509 20.0015 22.5105 20.0015 22.511 20.0015C22.5277 20.0032 22.5455 20.0043 22.5628 20.006C22.574 20.0065 22.5846 20.0082 22.5953 20.0099C22.6186 20.0121 22.6415 20.0154 22.6649 20.0193C22.6786 20.021 22.6918 20.0232 22.7055 20.0255C22.738 20.031 22.771 20.0371 22.8025 20.0438C22.8192 20.0466 22.837 20.0511 22.8543 20.0555C22.8822 20.0616 22.9096 20.0689 22.937 20.0767C22.9538 20.0811 22.9711 20.0861 22.9883 20.0917C23.0381 20.1056 23.0863 20.1212 23.1346 20.1402C23.1513 20.1463 23.1691 20.1524 23.1864 20.1596C23.2118 20.1691 23.2377 20.1797 23.262 20.1908C23.3001 20.2081 23.3392 20.2259 23.3768 20.2443C23.3804 20.2459 23.3839 20.2471 23.387 20.2487C23.4073 20.2599 23.4276 20.2699 23.4474 20.2805C23.4672 20.2916 23.488 20.3022 23.5078 20.3133C23.549 20.3367 23.5886 20.3606 23.6282 20.3874C23.6465 20.3996 23.6642 20.4113 23.682 20.4241C23.7013 20.4364 23.7196 20.4497 23.7389 20.4636C23.7633 20.4809 23.7871 20.4987 23.8105 20.5171C23.841 20.541 23.8714 20.5661 23.9014 20.5917C23.9212 20.6073 23.9395 20.6246 23.9588 20.6413C23.9908 20.6708 24.0217 20.7003 24.0522 20.7298L24.0542 20.732C24.0867 20.7649 24.1187 20.7988 24.1502 20.8333C24.166 20.8512 24.1812 20.8684 24.1964 20.8862C24.2122 20.9041 24.2269 20.9219 24.2416 20.9397C24.2436 20.9414 24.2442 20.9425 24.2457 20.9441L30.0738 27.3343L30.0698 27.3337Z" fill="url(#paint11_linear_28_227)"/>
<path d="M15.6911 25.6689C17.1209 25.6689 18.28 24.398 18.28 22.8304C18.28 21.2628 17.1209 19.9919 15.6911 19.9919C14.2614 19.9919 13.1023 21.2628 13.1023 22.8304C13.1023 24.398 14.2614 25.6689 15.6911 25.6689Z" fill="url(#paint12_linear_28_227)"/>
<path d="M15.6911 24.9173C16.7423 24.9173 17.5944 23.983 17.5944 22.8305C17.5944 21.6779 16.7423 20.7437 15.6911 20.7437C14.64 20.7437 13.7878 21.6779 13.7878 22.8305C13.7878 23.983 14.64 24.9173 15.6911 24.9173Z" fill="url(#paint13_linear_28_227)"/>
<path d="M18.2754 23.0009L16.9403 21.5365C16.627 21.173 16.1837 20.9458 15.6916 20.9458C14.7425 20.9458 13.9737 21.7893 13.9737 22.8294C13.9737 23.3689 14.1809 23.855 14.5125 24.1985L15.8475 25.6623C17.1531 25.5771 18.1982 24.4318 18.2759 22.9998L18.2754 23.0009Z" fill="url(#paint14_linear_28_227)"/>
<path d="M15.6911 24.7139C16.6399 24.7139 17.409 23.8706 17.409 22.8304C17.409 21.7901 16.6399 20.9468 15.6911 20.9468C14.7423 20.9468 13.9731 21.7901 13.9731 22.8304C13.9731 23.8706 14.7423 24.7139 15.6911 24.7139Z" fill="url(#paint15_linear_28_227)"/>
<path d="M22.3074 25.6689C23.7372 25.6689 24.8962 24.398 24.8962 22.8304C24.8962 21.2628 23.7372 19.9919 22.3074 19.9919C20.8776 19.9919 19.7186 21.2628 19.7186 22.8304C19.7186 24.398 20.8776 25.6689 22.3074 25.6689Z" fill="url(#paint16_linear_28_227)"/>
<path d="M22.3074 24.9173C23.3585 24.9173 24.2107 23.983 24.2107 22.8305C24.2107 21.6779 23.3585 20.7437 22.3074 20.7437C21.2562 20.7437 20.4041 21.6779 20.4041 22.8305C20.4041 23.983 21.2562 24.9173 22.3074 24.9173Z" fill="url(#paint17_linear_28_227)"/>
<path d="M24.8911 23.0009L23.5556 21.5365C23.2422 21.173 22.7989 20.9458 22.3069 20.9458C21.3578 20.9458 20.5889 21.7893 20.5889 22.8294C20.5889 23.3689 20.7961 23.855 21.1277 24.1985L22.4628 25.6623C23.7683 25.5771 24.8134 24.4318 24.8911 22.9998V23.0009Z" fill="url(#paint18_linear_28_227)"/>
<path d="M22.3074 24.7139C23.2562 24.7139 24.0253 23.8706 24.0253 22.8304C24.0253 21.7901 23.2562 20.9468 22.3074 20.9468C21.3586 20.9468 20.5895 21.7901 20.5895 22.8304C20.5895 23.8706 21.3586 24.7139 22.3074 24.7139Z" fill="url(#paint19_linear_28_227)"/>
<path d="M24.493 12.4408C24.4585 12.4408 24.4224 12.443 24.3869 12.4469C24.3808 12.4475 24.3747 12.4486 24.3686 12.4497L24.361 12.4508C24.3346 12.4547 24.3082 12.4586 24.2828 12.4648C24.2772 12.4659 24.2721 12.4675 24.2665 12.4692L24.2594 12.4714C24.233 12.4781 24.2076 12.4854 24.1822 12.4943C24.1782 12.4959 24.1736 12.4976 24.1645 12.5009C24.1375 12.511 24.1111 12.5221 24.0847 12.5343L24.0741 12.5399C24.0167 12.5683 23.9623 12.6028 23.9111 12.6424L23.905 12.6468C23.8506 12.6891 23.8004 12.7376 23.7552 12.791C23.3718 13.2114 21.472 15.2932 21.4182 15.355C21.242 15.5616 21.1455 15.8299 21.1455 16.11C21.1455 16.7224 21.6 17.2202 22.1581 17.2202C22.4409 17.2202 22.7035 17.0949 22.8959 16.8689L25.1836 14.3606C25.3913 14.1479 25.5061 13.86 25.5061 13.5499C25.5061 12.938 25.0516 12.4397 24.4935 12.4397L24.493 12.4408Z" fill="url(#paint20_linear_28_227)"/>
<path d="M26.7187 19.5838C26.1611 20.0158 25.5091 20.2798 24.8292 20.3488L23.8328 19.2564C23.7881 19.2107 23.748 19.1601 23.7125 19.1055H23.712C23.6952 19.0788 23.6795 19.0515 23.6647 19.0237C23.6642 19.022 23.6627 19.0198 23.6622 19.0181C23.6485 18.9919 23.6358 18.9652 23.6246 18.9379C23.6231 18.934 23.6221 18.9301 23.6195 18.9262C23.6094 18.9006 23.6002 18.8744 23.5916 18.8477C23.5901 18.8422 23.5881 18.836 23.586 18.8305C23.5789 18.8054 23.5723 18.7792 23.5677 18.7536C23.5657 18.7458 23.5637 18.738 23.5622 18.7302C23.5571 18.7046 23.5535 18.679 23.551 18.6534C23.5495 18.6451 23.5485 18.6361 23.5474 18.6278C23.5439 18.5927 23.5424 18.5576 23.5424 18.5226C23.5424 17.9675 23.9522 17.5176 24.4579 17.5176C24.7225 17.5176 24.9602 17.6412 25.1272 17.8372L26.7197 19.5832L26.7187 19.5838Z" fill="url(#paint21_linear_28_227)"/>
<path d="M26.7457 14.9103C26.7112 14.9103 26.6751 14.9125 26.6396 14.9164C26.6335 14.917 26.6274 14.9181 26.6213 14.9192L26.6137 14.9203C26.5873 14.9242 26.5609 14.9281 26.5355 14.9342C26.5299 14.9353 26.5248 14.937 26.5192 14.9387L26.5121 14.9409C26.4857 14.9476 26.4603 14.9548 26.4349 14.9637C26.4309 14.9654 26.4263 14.9671 26.4171 14.9704C26.3902 14.9804 26.3638 14.9916 26.3374 15.0038L26.3267 15.0094C26.2694 15.0378 26.215 15.0723 26.1637 15.1118L26.1576 15.1163C26.1033 15.1586 26.053 15.2071 26.0078 15.2605C25.6244 15.6809 23.7247 17.7627 23.6709 17.8245C23.4947 18.031 23.3982 18.2994 23.3982 18.5795C23.3982 19.1919 23.8527 19.6897 24.4108 19.6897C24.6936 19.6897 24.9562 19.5644 25.1486 19.3384L27.4363 16.8301C27.644 16.6174 27.7588 16.3295 27.7588 16.0194C27.7588 15.4075 27.3043 14.9092 26.7462 14.9092L26.7457 14.9103Z" fill="url(#paint22_linear_28_227)"/>
<path d="M28.3732 16.4508C28.3123 17.1974 28.0731 17.9134 27.6801 18.527C27.0128 17.7965 26.0947 16.7898 26.0947 16.7898C26.05 16.7442 26.0094 16.6935 25.9743 16.639C25.9743 16.639 25.9738 16.639 25.9738 16.6384C25.9571 16.6128 25.9413 16.5855 25.9266 16.5577C25.9261 16.556 25.9246 16.5549 25.924 16.5521C25.9103 16.5259 25.8976 16.4992 25.8865 16.4719C25.8849 16.468 25.8839 16.4641 25.8814 16.4608C25.8712 16.4346 25.8621 16.4085 25.8535 16.3812C25.8519 16.3756 25.8499 16.37 25.8479 16.3639C25.8408 16.3389 25.8342 16.3132 25.8296 16.2871C25.8276 16.2793 25.8255 16.272 25.824 16.2648C25.8189 16.2392 25.8154 16.213 25.8128 16.1869C25.8113 16.1785 25.8103 16.1696 25.8093 16.1612C25.8057 16.1262 25.8042 16.0911 25.8042 16.056C25.8042 15.5009 26.214 15.051 26.7198 15.051C26.9844 15.051 27.222 15.1746 27.3891 15.3706L28.3737 16.4497L28.3732 16.4508Z" fill="url(#paint23_linear_28_227)"/>
<path d="M27.7263 15.7415L27.3891 15.3729C27.222 15.1763 26.9849 15.0527 26.7203 15.0527C26.2145 15.0527 25.8042 15.5026 25.8042 16.0577C25.8042 16.0934 25.8057 16.1284 25.8093 16.1624C25.8098 16.1719 25.8113 16.1797 25.8123 16.188C25.8154 16.2142 25.8189 16.2398 25.8235 16.266C25.8255 16.2737 25.8276 16.281 25.8291 16.2888C25.8342 16.315 25.8408 16.3406 25.8479 16.3656L25.8535 16.3829C25.8621 16.4102 25.8712 16.4363 25.8809 16.4619C25.8829 16.4653 25.8839 16.4692 25.886 16.4725C25.8971 16.5004 25.9093 16.5276 25.923 16.5533C25.9246 16.5555 25.9251 16.5566 25.9261 16.5588C25.9403 16.5867 25.9565 16.6139 25.9733 16.6396C25.9733 16.6396 25.9735 16.6401 25.9738 16.6412C26.0094 16.6952 26.05 16.7459 26.0942 16.7916C26.0942 16.7916 26.406 17.1334 26.7828 17.546L27.4058 16.8628C27.614 16.6579 27.7567 16.3634 27.7567 16.0633C27.7532 15.8873 27.7598 15.9269 27.7247 15.7415H27.7263Z" fill="url(#paint24_linear_28_227)"/>
<path d="M24.46 17.5215C23.9542 17.5215 23.5439 17.9714 23.5439 18.5265C23.5439 18.5621 23.5454 18.5972 23.5485 18.6317L23.5525 18.6568C23.5556 18.6829 23.5591 18.7085 23.5637 18.7341C23.5657 18.7419 23.5678 18.7492 23.5693 18.757C23.5744 18.7831 23.5804 18.8088 23.5881 18.8338C23.5896 18.8394 23.5921 18.8449 23.5936 18.8511C23.6023 18.8784 23.6104 18.9045 23.6211 18.9301C23.6231 18.9335 23.6241 18.9374 23.6261 18.9407C23.6373 18.9686 23.6495 18.9958 23.6632 19.0214C23.6647 19.0237 23.6653 19.0248 23.6663 19.027C23.6805 19.0549 23.6967 19.0821 23.7135 19.1077C23.7135 19.1077 23.7137 19.1083 23.714 19.1094C23.7495 19.164 23.7897 19.2141 23.8344 19.2597L24.2081 19.669C24.3559 19.6985 24.3137 19.6896 24.4427 19.6907C24.7225 19.679 24.9693 19.5543 25.1811 19.3026L25.8209 18.6011L25.1278 17.8416C24.9607 17.6451 24.7235 17.522 24.459 17.522L24.46 17.5215Z" fill="url(#paint25_linear_28_227)"/>
<path d="M26.0967 16.8056C26.2602 16.9727 26.4786 17.0762 26.7198 17.0762C27.2256 17.0762 27.6359 16.6263 27.6359 16.0718C27.6359 15.7823 27.5231 15.5217 27.3444 15.3385L25.1263 12.9065C24.9592 12.7105 24.7215 12.5869 24.4575 12.5869C23.9517 12.5869 23.5414 13.0368 23.5414 13.5913C23.5414 13.627 23.5434 13.6621 23.5465 13.6966C23.5475 13.7055 23.549 13.7133 23.55 13.7222C23.5531 13.7484 23.5566 13.774 23.5612 13.7996C23.5627 13.8074 23.5647 13.8152 23.5668 13.8224C23.5724 13.848 23.5785 13.8742 23.5856 13.8992C23.5871 13.9054 23.5896 13.9109 23.5911 13.9165C23.5993 13.9432 23.6084 13.9694 23.6191 13.995C23.6206 13.9989 23.6221 14.0022 23.6242 14.0061C23.6358 14.0334 23.648 14.0607 23.6617 14.0869C23.6627 14.0885 23.6638 14.0902 23.6648 14.0919C23.6795 14.1197 23.6952 14.147 23.712 14.1726V14.1737C23.7481 14.2283 23.7887 14.2784 23.8334 14.3241C23.8334 14.3241 26.0769 16.785 26.0977 16.8051L26.0967 16.8056Z" fill="url(#paint26_linear_28_227)"/>
<path d="M24.4569 19.5272C24.9629 19.5272 25.373 19.0775 25.373 18.5227C25.373 17.968 24.9629 17.5183 24.4569 17.5183C23.951 17.5183 23.5408 17.968 23.5408 18.5227C23.5408 19.0775 23.951 19.5272 24.4569 19.5272Z" fill="url(#paint27_linear_28_227)"/>
<path d="M23.8475 19.271C24.0111 19.438 24.2294 19.5416 24.4706 19.5416C24.9764 19.5416 25.3867 19.0917 25.3867 18.5371C25.3867 18.2476 25.274 17.987 25.0952 17.8038L22.8771 15.3718C22.71 15.1759 22.4724 15.0522 22.2083 15.0522C21.7025 15.0522 21.2922 15.5021 21.2922 16.0567C21.2922 16.0923 21.2943 16.1274 21.2973 16.1619C21.2983 16.1708 21.2999 16.1786 21.3009 16.1875C21.3039 16.2137 21.3075 16.2393 21.312 16.2649C21.3136 16.2727 21.3156 16.2805 21.3176 16.2877C21.3232 16.3134 21.3293 16.3395 21.3364 16.3646C21.3379 16.3707 21.3405 16.3763 21.342 16.3818C21.3501 16.4086 21.3593 16.4347 21.3699 16.4603C21.3715 16.4642 21.373 16.4676 21.375 16.4715C21.3867 16.4988 21.3989 16.526 21.4126 16.5522C21.4136 16.5539 21.4146 16.5555 21.4156 16.5572C21.4304 16.5851 21.4461 16.6123 21.4629 16.638V16.6391C21.4989 16.6936 21.5395 16.7437 21.5842 16.7894C21.5842 16.7894 23.8277 19.2504 23.8486 19.2704L23.8475 19.271Z" fill="url(#paint28_linear_28_227)"/>
<path d="M25.4786 13.2928L25.1257 12.9058C24.9586 12.7093 24.7215 12.5857 24.4569 12.5857C23.9511 12.5857 23.5408 13.0356 23.5408 13.5907C23.5408 13.6263 23.5424 13.6614 23.5459 13.6954C23.5464 13.7048 23.5479 13.7126 23.549 13.721C23.552 13.7471 23.5556 13.7727 23.5601 13.7989C23.5622 13.8067 23.5642 13.8139 23.5657 13.8217C23.5708 13.8479 23.5774 13.8735 23.5845 13.8986L23.5901 13.9158C23.5987 13.9431 23.6079 13.9693 23.6175 13.9949C23.6195 13.9982 23.6206 14.0021 23.6226 14.0055C23.6338 14.0333 23.6459 14.0606 23.6597 14.0862C23.6612 14.0884 23.6617 14.0896 23.6627 14.0918C23.6769 14.1196 23.6932 14.1469 23.7099 14.1725C23.7099 14.1725 23.7101 14.1731 23.7104 14.1742C23.746 14.2282 23.7866 14.2789 23.8308 14.3245L24.524 15.0845L25.1501 14.3958C25.3857 14.1753 25.4979 13.8513 25.5045 13.6029C25.5086 13.4481 25.4995 13.4381 25.4776 13.2934L25.4786 13.2928Z" fill="url(#paint29_linear_28_227)"/>
<path d="M22.2078 15.0518C21.7021 15.0518 21.2917 15.5016 21.2917 16.0567C21.2917 16.0924 21.2933 16.1275 21.2963 16.162L21.3004 16.187C21.3034 16.2132 21.307 16.2388 21.3116 16.265C21.3136 16.2728 21.3156 16.28 21.3171 16.2878C21.3222 16.314 21.3283 16.3396 21.3359 16.3646C21.3375 16.3702 21.34 16.3763 21.3415 16.3819C21.3501 16.4092 21.3583 16.4354 21.3689 16.461C21.371 16.4643 21.372 16.4682 21.374 16.4715C21.3852 16.4994 21.3974 16.5267 21.4111 16.5523C21.4126 16.5545 21.4131 16.5556 21.4141 16.5578C21.4283 16.5857 21.4446 16.613 21.4614 16.6386C21.4614 16.6386 21.4615 16.6391 21.4619 16.6402C21.4974 16.6948 21.5375 16.7449 21.5822 16.7906C21.5822 16.7906 21.7955 17.0261 21.9544 17.2009C22.0753 17.2304 22.1845 17.2221 22.3089 17.2098C22.5851 17.1525 22.7421 17.0495 22.9284 16.8296L23.5667 16.1302L22.8751 15.3719C22.708 15.1754 22.4709 15.0523 22.2063 15.0523L22.2078 15.0518Z" fill="url(#paint30_linear_28_227)"/>
<path d="M24.4569 14.595C24.9629 14.595 25.373 14.1453 25.373 13.5906C25.373 13.0359 24.9629 12.5862 24.4569 12.5862C23.951 12.5862 23.5408 13.0359 23.5408 13.5906C23.5408 14.1453 23.951 14.595 24.4569 14.595Z" fill="url(#paint31_linear_28_227)"/>
<path d="M22.2078 17.0611C22.7138 17.0611 23.1239 16.6114 23.1239 16.0567C23.1239 15.5019 22.7138 15.0522 22.2078 15.0522C21.7019 15.0522 21.2917 15.5019 21.2917 16.0567C21.2917 16.6114 21.7019 17.0611 22.2078 17.0611Z" fill="url(#paint32_linear_28_227)"/>
<path d="M26.7193 17.0611C27.2252 17.0611 27.6353 16.6114 27.6353 16.0567C27.6353 15.5019 27.2252 15.0522 26.7193 15.0522C26.2133 15.0522 25.8032 15.5019 25.8032 16.0567C25.8032 16.6114 26.2133 17.0611 26.7193 17.0611Z" fill="url(#paint33_linear_28_227)"/>
<path d="M18.2962 19.1557V19.2064C18.2962 19.4118 18.1443 19.5788 17.9564 19.5788H17.5339C17.3466 19.5788 17.1942 19.4124 17.1942 19.2064V19.1557C17.1942 18.9502 17.346 18.7832 17.5339 18.7832H17.9564C18.1438 18.7832 18.2962 18.9497 18.2962 19.1557Z" fill="url(#paint34_linear_28_227)"/>
<path d="M20.8048 19.1557V19.2064C20.8048 19.4118 20.6529 19.5788 20.465 19.5788H20.0425C19.8552 19.5788 19.7028 19.4124 19.7028 19.2064V19.1557C19.7028 18.9502 19.8547 18.7832 20.0425 18.7832H20.465C20.6524 18.7832 20.8048 18.9497 20.8048 19.1557Z" fill="url(#paint35_linear_28_227)"/>
</g>
<defs>
<filter id="filter0_d_28_227" x="0" y="-2" width="50" height="50" filterUnits="userSpaceOnUse" color-interpolation-filters="sRGB">
<feFlood flood-opacity="0" result="BackgroundImageFix"/>
<feColorMatrix in="SourceAlpha" type="matrix" values="0 0 0 0 0 0 0 0 0 0 0 0 0 0 0 0 0 0 127 0" result="hardAlpha"/>
<feOffset dx="6" dy="6"/>
<feGaussianBlur stdDeviation="6"/>
<feColorMatrix type="matrix" values="0 0 0 0 0 0 0 0 0 0 0 0 0 0 0 0 0 0 0.35 0"/>
<feBlend mode="normal" in2="BackgroundImageFix" result="effect1_dropShadow_28_227"/>
<feBlend mode="normal" in="SourceGraphic" in2="effect1_dropShadow_28_227" result="shape"/>
</filter>
<linearGradient id="paint0_linear_28_227" x1="19.1845" y1="14.5074" x2="19.1845" y2="4.85973" gradientUnits="userSpaceOnUse">
<stop stop-color="#97AAAA"/>
<stop offset="1" stop-color="#E8EFEE"/>
</linearGradient>
<linearGradient id="paint1_linear_28_227" x1="19.0345" y1="12.9949" x2="19.0345" y2="11.1159" gradientUnits="userSpaceOnUse">
<stop stop-color="#97AAAA"/>
<stop offset="1" stop-color="#E8EFEE"/>
</linearGradient>
<linearGradient id="paint2_linear_28_227" x1="19.0351" y1="4.18496" x2="19.0351" y2="22.6914" gradientUnits="userSpaceOnUse">
<stop stop-color="white"/>
<stop offset="1" stop-color="#E8EFEE"/>
</linearGradient>
<linearGradient id="paint3_linear_28_227" x1="8.76611" y1="21.1239" x2="18.9028" y2="30.3691" gradientUnits="userSpaceOnUse">
<stop stop-color="#C2CECE" stop-opacity="0"/>
<stop offset="0.18" stop-color="#AFBCBC" stop-opacity="0.18"/>
<stop offset="1" stop-color="#5B6A6A"/>
</linearGradient>
<linearGradient id="paint4_linear_28_227" x1="28.7634" y1="21.4105" x2="21.6064" y2="17.5508" gradientUnits="userSpaceOnUse">
<stop stop-color="#C2CECE" stop-opacity="0"/>
<stop offset="0.18" stop-color="#AFBCBC" stop-opacity="0.18"/>
<stop offset="1" stop-color="#5B6A6A"/>
</linearGradient>
<linearGradient id="paint5_linear_28_227" x1="27.6984" y1="19.628" x2="17.6945" y2="10.5034" gradientUnits="userSpaceOnUse">
<stop stop-color="#C2CECE" stop-opacity="0"/>
<stop offset="0.18" stop-color="#AFBCBC" stop-opacity="0.18"/>
<stop offset="1" stop-color="#5B6A6A"/>
</linearGradient>
<linearGradient id="paint6_linear_28_227" x1="24.5089" y1="9.76162" x2="24.5089" y2="21.2579" gradientUnits="userSpaceOnUse">
<stop stop-color="white"/>
<stop offset="1" stop-color="#E8EFEE"/>
</linearGradient>
<linearGradient id="paint7_linear_28_227" x1="18.0728" y1="21.0877" x2="5.4979" y2="9.6187" gradientUnits="userSpaceOnUse">
<stop stop-color="#C2CECE" stop-opacity="0"/>
<stop offset="0.18" stop-color="#AFBCBC" stop-opacity="0.18"/>
<stop offset="1" stop-color="#5B6A6A"/>
</linearGradient>
<linearGradient id="paint8_linear_28_227" x1="13.552" y1="8.47479" x2="13.552" y2="21.6892" gradientUnits="userSpaceOnUse">
<stop stop-color="white"/>
<stop offset="1" stop-color="#E8EFEE"/>
</linearGradient>
<linearGradient id="paint9_linear_28_227" x1="15.6754" y1="18.4591" x2="10.7397" y2="13.9574" gradientUnits="userSpaceOnUse">
<stop stop-color="#C2CECE" stop-opacity="0"/>
<stop offset="0.18" stop-color="#AFBCBC" stop-opacity="0.18"/>
<stop offset="1" stop-color="#5B6A6A"/>
</linearGradient>
<linearGradient id="paint10_linear_28_227" x1="13.5797" y1="14.1095" x2="13.5797" y2="17.7603" gradientUnits="userSpaceOnUse">
<stop stop-color="#5B6A6A"/>
<stop offset="1" stop-color="#303033"/>
</linearGradient>
<linearGradient id="paint11_linear_28_227" x1="26.215" y1="30.7984" x2="7.68223" y2="13.8956" gradientUnits="userSpaceOnUse">
<stop stop-color="#C2CECE" stop-opacity="0"/>
<stop offset="0.18" stop-color="#AFBCBC" stop-opacity="0.18"/>
<stop offset="1" stop-color="#5B6A6A"/>
</linearGradient>
<linearGradient id="paint12_linear_28_227" x1="15.7157" y1="20.6121" x2="15.7157" y2="25.5086" gradientUnits="userSpaceOnUse">
<stop stop-color="white"/>
<stop offset="1" stop-color="#E8EFEE"/>
</linearGradient>
<linearGradient id="paint13_linear_28_227" x1="15.7157" y1="24.2379" x2="15.7157" y2="20.3763" gradientUnits="userSpaceOnUse">
<stop stop-color="#97AAAA"/>
<stop offset="1" stop-color="#E8EFEE"/>
</linearGradient>
<linearGradient id="paint14_linear_28_227" x1="17.5289" y1="24.9118" x2="14.5859" y2="22.2281" gradientUnits="userSpaceOnUse">
<stop stop-color="#C2CECE" stop-opacity="0"/>
<stop offset="0.18" stop-color="#AFBCBC" stop-opacity="0.18"/>
<stop offset="1" stop-color="#5B6A6A"/>
</linearGradient>
<linearGradient id="paint15_linear_28_227" x1="15.7157" y1="21.5313" x2="15.7157" y2="25.0171" gradientUnits="userSpaceOnUse">
<stop stop-color="#5B6A6A"/>
<stop offset="1" stop-color="#303033"/>
</linearGradient>
<linearGradient id="paint16_linear_28_227" x1="22.3528" y1="20.6121" x2="22.3528" y2="25.5086" gradientUnits="userSpaceOnUse">
<stop stop-color="white"/>
<stop offset="1" stop-color="#E8EFEE"/>
</linearGradient>
<linearGradient id="paint17_linear_28_227" x1="22.3528" y1="24.2379" x2="22.3528" y2="20.3763" gradientUnits="userSpaceOnUse">
<stop stop-color="#97AAAA"/>
<stop offset="1" stop-color="#E8EFEE"/>
</linearGradient>
<linearGradient id="paint18_linear_28_227" x1="24.1649" y1="24.9124" x2="21.2224" y2="22.2287" gradientUnits="userSpaceOnUse">
<stop stop-color="#C2CECE" stop-opacity="0"/>
<stop offset="0.18" stop-color="#AFBCBC" stop-opacity="0.18"/>
<stop offset="1" stop-color="#5B6A6A"/>
</linearGradient>
<linearGradient id="paint19_linear_28_227" x1="22.3528" y1="21.5313" x2="22.3528" y2="25.0171" gradientUnits="userSpaceOnUse">
<stop stop-color="#5B6A6A"/>
<stop offset="1" stop-color="#303033"/>
</linearGradient>
<linearGradient id="paint20_linear_28_227" x1="23.3743" y1="13.4922" x2="23.3743" y2="17.8203" gradientUnits="userSpaceOnUse">
<stop stop-color="#5B6A6A"/>
<stop offset="1" stop-color="#303033"/>
</linearGradient>
<linearGradient id="paint21_linear_28_227" x1="25.6809" y1="19.8894" x2="23.2438" y2="17.6662" gradientUnits="userSpaceOnUse">
<stop stop-color="#C2CECE" stop-opacity="0"/>
<stop offset="0.18" stop-color="#AFBCBC" stop-opacity="0.18"/>
<stop offset="1" stop-color="#5B6A6A"/>
</linearGradient>
<linearGradient id="paint22_linear_28_227" x1="25.6336" y1="15.9695" x2="25.6336" y2="20.2976" gradientUnits="userSpaceOnUse">
<stop stop-color="#5B6A6A"/>
<stop offset="1" stop-color="#303033"/>
</linearGradient>
<linearGradient id="paint23_linear_28_227" x1="28.0173" y1="17.4885" x2="25.588" y2="15.2729" gradientUnits="userSpaceOnUse">
<stop stop-color="#C2CECE" stop-opacity="0"/>
<stop offset="0.18" stop-color="#AFBCBC" stop-opacity="0.18"/>
<stop offset="1" stop-color="#5B6A6A"/>
</linearGradient>
<linearGradient id="paint24_linear_28_227" x1="28.1206" y1="17.6024" x2="27.0527" y2="16.6279" gradientUnits="userSpaceOnUse">
<stop stop-color="#5B6A6A"/>
<stop offset="1" stop-color="#303033"/>
</linearGradient>
<linearGradient id="paint25_linear_28_227" x1="25.8591" y1="20.0849" x2="24.7877" y2="19.1077" gradientUnits="userSpaceOnUse">
<stop stop-color="#5B6A6A"/>
<stop offset="1" stop-color="#303033"/>
</linearGradient>
<linearGradient id="paint26_linear_28_227" x1="25.9781" y1="15.2684" x2="22.1452" y2="11.7719" gradientUnits="userSpaceOnUse">
<stop stop-color="#C2CECE" stop-opacity="0"/>
<stop offset="0.18" stop-color="#AFBCBC" stop-opacity="0.18"/>
<stop offset="1" stop-color="#5B6A6A"/>
</linearGradient>
<linearGradient id="paint27_linear_28_227" x1="24.0644" y1="18.1167" x2="25.7225" y2="19.6289" gradientUnits="userSpaceOnUse">
<stop stop-color="#00A6F9"/>
<stop offset="1" stop-color="#0071E2"/>
</linearGradient>
<linearGradient id="paint28_linear_28_227" x1="23.722" y1="17.7418" x2="19.8891" y2="14.2454" gradientUnits="userSpaceOnUse">
<stop stop-color="#C2CECE" stop-opacity="0"/>
<stop offset="0.18" stop-color="#AFBCBC" stop-opacity="0.18"/>
<stop offset="1" stop-color="#5B6A6A"/>
</linearGradient>
<linearGradient id="paint29_linear_28_227" x1="25.8564" y1="15.1348" x2="24.785" y2="14.1576" gradientUnits="userSpaceOnUse">
<stop stop-color="#5B6A6A"/>
<stop offset="1" stop-color="#303033"/>
</linearGradient>
<linearGradient id="paint30_linear_28_227" x1="23.5971" y1="17.6055" x2="22.5269" y2="16.6294" gradientUnits="userSpaceOnUse">
<stop stop-color="#5B6A6A"/>
<stop offset="1" stop-color="#303033"/>
</linearGradient>
<linearGradient id="paint31_linear_28_227" x1="24.0638" y1="13.1693" x2="25.7219" y2="14.6816" gradientUnits="userSpaceOnUse">
<stop stop-color="#7BD101"/>
<stop offset="0.26" stop-color="#5CCD0B"/>
<stop offset="1" stop-color="#08C126"/>
</linearGradient>
<linearGradient id="paint32_linear_28_227" x1="21.8084" y1="15.643" x2="23.4665" y2="17.1553" gradientUnits="userSpaceOnUse">
<stop stop-color="#FFCF95"/>
<stop offset="0.43" stop-color="#FFC954"/>
<stop offset="1" stop-color="#FFC200"/>
</linearGradient>
<linearGradient id="paint33_linear_28_227" x1="26.3335" y1="15.643" x2="27.9916" y2="17.1553" gradientUnits="userSpaceOnUse">
<stop stop-color="#D63305"/>
<stop offset="1" stop-color="#960000"/>
</linearGradient>
<linearGradient id="paint34_linear_28_227" x1="17.7766" y1="18.9393" x2="17.7766" y2="20.3703" gradientUnits="userSpaceOnUse">
<stop stop-color="#5B6A6A"/>
<stop offset="1" stop-color="#303033"/>
</linearGradient>
<linearGradient id="paint35_linear_28_227" x1="20.2924" y1="18.9393" x2="20.2924" y2="20.3703" gradientUnits="userSpaceOnUse">
<stop stop-color="#5B6A6A"/>
<stop offset="1" stop-color="#303033"/>
</linearGradient>
<clipPath id="clip0_28_227">
<rect width="26" height="26" fill="white" transform="translate(6 4)"/>
</clipPath>
</defs>
</svg>
