<svg width="50" height="50" viewBox="0 0 50 50" fill="none" xmlns="http://www.w3.org/2000/svg">
<g clip-path="url(#clip0_28_284)" filter="url(#filter0_d_28_284)">
<path d="M20.4695 6.63072C21.5778 5.46811 23.5334 5.99209 23.912 7.55316C24.1853 8.67983 25.3449 9.34935 26.4572 9.02262C27.9984 8.56996 29.43 10.0015 28.9773 11.5427C28.6506 12.6551 29.3201 13.8147 30.4468 14.0879C32.0078 14.4665 32.5318 16.4221 31.3692 17.5305C30.5301 18.3305 30.5301 19.6695 31.3692 20.4695C32.5318 21.5778 32.0078 23.5334 30.4468 23.912C29.3201 24.1853 28.6506 25.3449 28.9773 26.4572C29.43 27.9984 27.9984 29.43 26.4572 28.9773C25.3449 28.6506 24.1852 29.3201 23.912 30.4468C23.5334 32.0078 21.5778 32.5318 20.4695 31.3692C19.6695 30.5301 18.3305 30.5301 17.5305 31.3692C16.4221 32.5318 14.4665 32.0078 14.0879 30.4468C13.8147 29.3201 12.6551 28.6506 11.5427 28.9773C10.0015 29.43 8.56996 27.9984 9.02262 26.4572C9.3493 25.3449 8.67983 24.1852 7.55316 23.912C5.99214 23.5334 5.46811 21.5778 6.63072 20.4695C7.46981 19.6695 7.46981 18.3305 6.63072 17.5305C5.46811 16.4221 5.99209 14.4665 7.55316 14.0879C8.67983 13.8147 9.34935 12.6551 9.02262 11.5427C8.56996 10.0015 10.0015 8.56996 11.5427 9.02262C12.6551 9.3493 13.8147 8.67983 14.0879 7.55316C14.4665 5.99214 16.4221 5.46811 17.5305 6.63072C18.3305 7.46981 19.6695 7.46981 20.4695 6.63072Z" fill="url(#paint0_linear_28_284)"/>
<path d="M19.0002 29.7188C24.92 29.7188 29.7189 24.9199 29.7189 19C29.7189 13.0802 24.92 8.28125 19.0002 8.28125C13.0803 8.28125 8.28137 13.0802 8.28137 19C8.28137 24.9199 13.0803 29.7188 19.0002 29.7188Z" fill="url(#paint1_linear_28_284)"/>
<path d="M19 28.508C24.2511 28.508 28.508 24.2511 28.508 19C28.508 13.7488 24.2511 9.49194 19 9.49194C13.7488 9.49194 9.49194 13.7488 9.49194 19C9.49194 24.2511 13.7488 28.508 19 28.508Z" fill="url(#paint2_linear_28_284)"/>
<path d="M7.25262 18.8491C7.29585 19.4329 7.08973 20.0318 6.63071 20.4695C5.4681 21.5778 5.99213 23.5335 7.55315 23.912C8.67981 24.1853 9.34934 25.3449 9.0226 26.4572C8.56995 27.9984 10.0015 29.43 11.5427 28.9773C12.6551 28.6507 13.8147 29.3201 14.0879 30.4468C14.4665 32.0078 16.4221 32.5319 17.5305 31.3692C18.3305 30.5302 19.6695 30.5302 20.4694 31.3692C21.5778 32.5319 23.5334 32.0078 23.912 30.4468C24.1852 29.3201 25.3448 28.6506 26.4572 28.9773C27.9984 29.43 29.43 27.9984 28.9773 26.4572C28.6506 25.3449 29.3201 24.1852 30.4468 23.912C32.0078 23.5335 32.5318 21.5778 31.3692 20.4695C30.9101 20.0318 30.7041 19.4329 30.7473 18.8491H7.25262Z" fill="url(#paint3_linear_28_284)"/>
<path d="M31.3693 20.4694C30.7297 19.8597 30.5782 18.9371 30.9135 18.1785L25.8299 13.0949C25.8024 12.9999 25.6003 12.9318 25.5208 12.9908C25.1772 13.2457 24.8807 13.6309 24.6922 14.1036L23.629 13.0477C23.3658 12.7267 23.0464 12.4884 22.7138 12.3497C22.6242 12.3124 22.443 12.4246 22.4365 12.5214C22.4057 12.9837 22.5314 13.5 22.8238 13.9719C22.9853 14.2328 23.6058 14.862 23.72 14.9595C23.7248 15.026 23.7462 15.0903 23.7823 15.1464C23.8125 15.1936 23.842 15.2413 23.8708 15.2895C23.6621 15.1881 23.4417 15.1126 23.2146 15.0647C22.6555 14.946 22.1127 14.9994 21.6772 15.1827C21.586 15.221 21.5418 15.4296 21.6095 15.5017L22.8598 16.7459C22.5628 16.7016 22.2732 16.7036 22.0053 16.7492C21.8933 16.7683 21.7893 16.9898 21.8461 17.0881C21.9967 17.3485 22.2054 17.5952 22.4626 17.8109L24.4764 19.8405C24.4584 19.9033 24.4394 19.9658 24.4193 20.0279L23.4412 19.0583C22.8568 18.543 22.1764 18.2429 21.5366 18.1691C21.4895 18.1636 21.2814 18.1894 21.2435 18.2052C21.2145 18.2173 21.1856 18.2303 21.1568 18.2439C21.1605 18.1663 21.1598 18.0885 21.1548 18.011L15.6654 12.5214C15.6589 12.4246 15.4777 12.3123 15.3881 12.3496C14.9605 12.5279 14.5542 12.8704 14.2619 13.3423C14.0741 13.6456 13.9561 13.9668 13.9032 14.2805C13.8484 14.227 12.7322 13.1028 12.5811 12.9907C12.5016 12.9318 12.2996 12.9999 12.272 13.0949C12.1403 13.5485 12.1501 14.094 12.3326 14.6356C12.4935 15.1128 12.7631 15.5111 13.0844 15.7915C12.9743 16.0628 12.8825 16.3412 12.8095 16.6247C12.7491 16.5644 12.3861 16.1963 12.2575 16.0877C11.956 15.7316 11.5979 15.4646 11.2273 15.3043C11.1231 15.2592 10.9151 15.3882 10.9091 15.5016C10.8806 16.0432 11.0341 16.6502 11.3798 17.2078C11.5664 17.5089 11.791 17.7658 12.0363 17.9727L12.6107 18.562C12.6219 18.8117 12.6467 19.058 12.6853 19.2998C12.6038 19.2118 12.5185 19.1276 12.4295 19.0473C11.8501 18.5264 11.1726 18.2198 10.5336 18.1397C10.3998 18.1229 10.2055 18.3391 10.2364 18.4703C10.3838 19.0973 10.7605 19.7384 11.3399 20.2592L12.6744 21.6009C12.0262 21.5057 11.4019 21.563 10.8696 21.7479C10.7267 21.7976 10.6387 22.1116 10.7351 22.2283L19.2599 30.7571C19.7048 30.8142 20.1345 31.0178 20.4695 31.3692C21.5779 32.5318 23.5335 32.0078 23.9121 30.4468C24.1853 29.3201 25.3449 28.6506 26.4573 28.9773C27.9984 29.43 29.43 27.9984 28.9774 26.4572C28.6507 25.3448 29.3202 24.1852 30.4468 23.912C32.0079 23.5334 32.5319 21.5779 31.3693 20.4694Z" fill="url(#paint4_linear_28_284)"/>
<path d="M31.3693 20.4692C30.7295 19.8595 30.5781 18.9373 30.9136 18.1787L25.8298 13.0949C25.8023 13.0001 25.6004 12.9318 25.5209 12.9909C25.1773 13.2458 24.8806 13.6307 24.6924 14.1038L23.629 13.0475C23.3659 12.7269 23.0463 12.4883 22.7139 12.3496C22.6242 12.3124 22.4432 12.4245 22.4366 12.5214C22.406 12.9838 22.5314 13.4997 22.824 13.9718C22.9856 14.2328 23.606 14.8619 23.7202 14.9593C23.7247 15.0259 23.7461 15.0903 23.7824 15.1464C23.8125 15.1933 23.8421 15.2412 23.8711 15.2896C23.6623 15.1882 23.4417 15.1127 23.2145 15.0648C22.6558 14.946 22.1128 14.9996 21.6775 15.1826C21.5862 15.2208 21.5419 15.4298 21.6097 15.5017L22.8597 16.7456C22.563 16.7013 22.2734 16.7033 22.0053 16.7492C21.8931 16.7681 21.7891 16.9898 21.8462 17.0882C21.9966 17.3482 22.2056 17.595 22.4626 17.8106L24.4763 19.8407C24.4586 19.9034 24.4395 19.9658 24.4192 20.0278L23.5326 19.1489V22.587C22.4121 23.7126 20.8878 24.435 19.1978 24.5156H18.8022C17.148 24.4366 15.6524 23.7425 14.5392 22.6579V22.9255L23.1865 31.5728C23.5306 31.3082 23.7957 30.9263 23.9119 30.4466C24.1383 29.5137 24.9723 28.8943 25.8839 28.8943C26.0735 28.8943 26.2662 28.9213 26.4574 28.9774C26.6542 29.0355 26.8494 29.0625 27.0391 29.0625C28.3335 29.0625 29.3719 27.8018 28.9773 26.4574C28.9224 26.2712 28.8944 26.078 28.8942 25.8839C28.8942 24.9723 29.5137 24.1383 30.4466 23.9119C31.4285 23.6739 32 22.8123 32 21.9298C32 21.4088 31.8006 20.8807 31.3693 20.4692Z" fill="url(#paint5_linear_28_284)"/>
<path d="M20.8628 11.4478L19.9719 11.2325C19.889 11.2125 19.8166 11.1622 19.7688 11.0916L19.2552 10.3324C19.2268 10.2898 19.189 10.2543 19.1448 10.2285C19.1006 10.2027 19.0511 10.1873 19 10.1833C18.949 10.1873 18.8995 10.2027 18.8553 10.2285C18.8111 10.2543 18.7733 10.2898 18.7448 10.3324L18.2312 11.0916C18.1834 11.1622 18.111 11.2125 18.0281 11.2325L17.1372 11.4478C16.8956 11.5062 16.7948 11.7947 16.9476 11.9908L17.511 12.7139C17.5634 12.7811 17.5888 12.8655 17.5822 12.9506L17.5116 13.8644C17.4924 14.1123 17.7356 14.2973 17.9694 14.2125L18.8311 13.9002C18.8851 13.8808 18.9432 13.8752 19 13.8841C19.0567 13.8752 19.1148 13.8808 19.1689 13.9002L20.0306 14.2125C20.2644 14.2973 20.5076 14.1123 20.4884 13.8644L20.4178 12.9506C20.4112 12.8655 20.4366 12.7811 20.489 12.7139L21.0524 11.9908C21.2052 11.7946 21.1045 11.5061 20.8628 11.4478Z" fill="url(#paint6_linear_28_284)"/>
<path d="M19.5946 15.0137L17.9632 16.2542L18.7959 17.0868L18.662 20.0872L24.9724 26.3976C26.0887 25.4952 26.9964 24.3455 27.6125 23.0316L19.5946 15.0137Z" fill="url(#paint7_linear_28_284)"/>
<path d="M18.5723 16.1678L18.3602 16.2995C18.2944 16.3434 18.2285 16.358 18.1774 16.358C17.9652 16.358 17.8189 16.1312 17.8189 15.9045C17.8189 15.7509 17.8848 15.6045 18.0311 15.5168L18.9967 14.9316C19.0552 14.895 19.1284 14.8804 19.2088 14.8804C19.4429 14.8804 19.7136 15.0193 19.7136 15.2388V19.8914C19.7136 20.1255 19.4283 20.2425 19.143 20.2425C18.8577 20.2425 18.5724 20.1255 18.5724 19.8914L18.5723 16.1678Z" fill="url(#paint8_linear_28_284)"/>
<path d="M17.3261 26.4308C17.4362 26.4308 17.5417 26.3871 17.6195 26.3092C17.6974 26.2314 17.7411 26.1259 17.7411 26.0158C17.7411 25.9058 17.6974 25.8002 17.6195 25.7224C17.5417 25.6445 17.4362 25.6008 17.3261 25.6008H14.8464C14.7363 25.6008 14.6308 25.6445 14.5529 25.7224C14.4751 25.8002 14.4314 25.9058 14.4314 26.0158C14.4314 26.1259 14.4751 26.2314 14.5529 26.3092C14.6308 26.3871 14.7363 26.4308 14.8464 26.4308H17.3261Z" fill="url(#paint9_linear_28_284)"/>
<path d="M23.1536 25.6008H20.6739C20.5638 25.6008 20.4583 25.6445 20.3805 25.7224C20.3026 25.8002 20.2589 25.9058 20.2589 26.0158C20.2589 26.1259 20.3026 26.2314 20.3805 26.3092C20.4583 26.3871 20.5638 26.4308 20.6739 26.4308H23.1536C23.2637 26.4308 23.3692 26.3871 23.4471 26.3092C23.5249 26.2314 23.5686 26.1259 23.5686 26.0158C23.5686 25.9058 23.5249 25.8002 23.4471 25.7224C23.3692 25.6445 23.2637 25.6008 23.1536 25.6008Z" fill="url(#paint10_linear_28_284)"/>
<path d="M19.3992 26.4308C19.5093 26.4308 19.6148 26.3871 19.6926 26.3092C19.7705 26.2314 19.8142 26.1259 19.8142 26.0158C19.8142 25.9058 19.7705 25.8002 19.6926 25.7224C19.6148 25.6445 19.5093 25.6008 19.3992 25.6008H18.5936C18.4835 25.6008 18.378 25.6445 18.3001 25.7224C18.2223 25.8002 18.1786 25.9058 18.1786 26.0158C18.1786 26.1259 18.2223 26.2314 18.3001 26.3092C18.378 26.3871 18.4835 26.4308 18.5936 26.4308H19.3992Z" fill="url(#paint11_linear_28_284)"/>
<path d="M22.773 13.9208C23.0653 14.3928 23.4715 14.7353 23.8992 14.9135C23.9888 14.9509 24.17 14.8386 24.1765 14.7418C24.2073 14.2795 24.0816 13.7633 23.7893 13.2913C23.4969 12.8193 23.0907 12.4769 22.663 12.2986C22.5734 12.2613 22.3922 12.3735 22.3857 12.4704C22.3549 12.9327 22.4806 13.4489 22.773 13.9208Z" fill="url(#paint12_linear_28_284)"/>
<path d="M22.4929 12.3342L24.0688 14.878C24.1261 14.8425 24.173 14.7902 24.1762 14.7418C24.2071 14.2795 24.0814 13.7633 23.789 13.2913C23.4966 12.8193 23.0904 12.4769 22.6627 12.2986C22.6179 12.2799 22.5502 12.2987 22.4929 12.3342Z" fill="url(#paint13_linear_28_284)"/>
<path d="M24.5854 14.203C24.4028 14.7446 24.3931 15.29 24.5247 15.7437C24.5523 15.8387 24.7544 15.9067 24.8338 15.8478C25.2133 15.5664 25.5357 15.1264 25.7182 14.5848C25.9008 14.0432 25.9105 13.4978 25.7788 13.0441C25.7512 12.9491 25.5492 12.881 25.4697 12.9399C25.0903 13.2214 24.7679 13.6614 24.5854 14.203Z" fill="url(#paint14_linear_28_284)"/>
<path d="M24.5854 14.203C24.4028 14.7446 24.3931 15.29 24.5247 15.7437C24.5523 15.8387 24.7544 15.9067 24.8338 15.8478C25.2133 15.5664 25.5357 15.1264 25.7182 14.5848C25.9008 14.0432 25.9105 13.4978 25.7788 13.0441C25.7512 12.9491 25.5492 12.881 25.4697 12.9399C25.0903 13.2214 24.7679 13.6614 24.5854 14.203Z" fill="url(#paint15_linear_28_284)"/>
<path d="M25.6439 12.9341L24.66 15.8533C24.7239 15.8748 24.7943 15.8771 24.834 15.8476C25.2134 15.5662 25.5358 15.1262 25.7183 14.5846C25.9009 14.043 25.9106 13.4976 25.7789 13.0439C25.7652 12.9964 25.7078 12.9556 25.6439 12.9341Z" fill="url(#paint16_linear_28_284)"/>
<path d="M23.1638 15.0137C23.7229 15.1324 24.1972 15.4017 24.5207 15.746C24.5884 15.8181 24.5441 16.0267 24.453 16.065C24.0175 16.2483 23.4747 16.3017 22.9156 16.1831C22.3565 16.0644 21.8822 15.795 21.5588 15.4507C21.491 15.3786 21.5353 15.1701 21.6265 15.1317C22.0619 14.9484 22.6047 14.895 23.1638 15.0137Z" fill="url(#paint17_linear_28_284)"/>
<path d="M21.533 15.2786L24.5464 15.9182C24.5324 15.9841 24.4985 16.0459 24.453 16.065C24.0175 16.2483 23.4747 16.3017 22.9156 16.1831C22.3565 16.0644 21.8822 15.795 21.5587 15.4507C21.5249 15.4147 21.519 15.3445 21.533 15.2786Z" fill="url(#paint18_linear_28_284)"/>
<path d="M25.5049 16.4338C25.1592 16.9914 25.0057 17.5985 25.0342 18.14C25.0401 18.2535 25.2481 18.3824 25.3524 18.3373C25.8501 18.122 26.3255 17.7145 26.6712 17.1569C27.0169 16.5992 27.1704 15.9922 27.1419 15.4507C27.1359 15.3372 26.9279 15.2083 26.8237 15.2534C26.326 15.4686 25.8505 15.8762 25.5049 16.4338Z" fill="url(#paint19_linear_28_284)"/>
<path d="M25.5049 16.4338C25.1592 16.9914 25.0057 17.5985 25.0342 18.14C25.0401 18.2535 25.2481 18.3824 25.3524 18.3373C25.8501 18.122 26.3255 17.7145 26.6712 17.1569C27.0169 16.5992 27.1704 15.9922 27.1419 15.4507C27.1359 15.3372 26.9279 15.2083 26.8237 15.2534C26.326 15.4686 25.8505 15.8762 25.5049 16.4338Z" fill="url(#paint20_linear_28_284)"/>
<path d="M27.0196 15.2927L25.1564 18.2983C25.2221 18.3391 25.3002 18.36 25.3523 18.3375C25.8501 18.1221 26.3255 17.7147 26.6712 17.157C27.0168 16.5994 27.1704 15.9923 27.1419 15.4508C27.1388 15.3941 27.0854 15.3335 27.0196 15.2927Z" fill="url(#paint21_linear_28_284)"/>
<path d="M23.7034 16.9684C24.2972 17.2473 24.757 17.6723 25.0285 18.1418C25.0853 18.2401 24.9813 18.4617 24.8694 18.4807C24.3348 18.5717 23.714 18.4894 23.1201 18.2106C22.5262 17.9317 22.0665 17.5066 21.795 17.0372C21.7382 16.9389 21.8422 16.7173 21.9541 16.6983C22.4887 16.6073 23.1095 16.6895 23.7034 16.9684Z" fill="url(#paint22_linear_28_284)"/>
<path d="M21.8113 16.8379L25.0122 18.3409C24.9793 18.4109 24.9253 18.4711 24.8693 18.4806C24.3348 18.5716 23.714 18.4893 23.1201 18.2105C22.5262 17.9316 22.0665 17.5065 21.795 17.0371C21.7666 16.9879 21.7784 16.9079 21.8113 16.8379Z" fill="url(#paint23_linear_28_284)"/>
<path d="M25.6217 18.9965C25.0423 19.5174 24.6655 20.1585 24.5181 20.7854C24.4872 20.9166 24.6816 21.1328 24.8154 21.116C25.4544 21.0359 26.1318 20.7293 26.7112 20.2084C27.2906 19.6875 27.6674 19.0463 27.8148 18.4195C27.8457 18.2882 27.6514 18.072 27.5175 18.0888C26.8785 18.1689 26.2011 18.4755 25.6217 18.9965Z" fill="url(#paint24_linear_28_284)"/>
<path d="M25.6217 18.9965C25.0423 19.5174 24.6655 20.1585 24.5181 20.7854C24.4872 20.9166 24.6816 21.1328 24.8154 21.116C25.4544 21.0359 26.1318 20.7293 26.7112 20.2084C27.2906 19.6875 27.6674 19.0463 27.8148 18.4195C27.8457 18.2882 27.6514 18.072 27.5175 18.0888C26.8785 18.1689 26.2011 18.4755 25.6217 18.9965Z" fill="url(#paint25_linear_28_284)"/>
<path d="M27.7279 18.1985L24.605 21.0061C24.6664 21.0744 24.7484 21.1243 24.8154 21.1159C25.4544 21.0357 26.1318 20.7292 26.7112 20.2082C27.2907 19.6873 27.6674 19.0462 27.8148 18.4193C27.8302 18.3537 27.7894 18.2669 27.7279 18.1985Z" fill="url(#paint26_linear_28_284)"/>
<path d="M23.3904 19.0072C23.9749 19.5224 24.3578 20.1598 24.5113 20.7853C24.5435 20.9162 24.3512 21.1343 24.2172 21.1188C23.5775 21.0449 22.8971 20.7448 22.3127 20.2296C21.7282 19.7143 21.3453 19.0769 21.1918 18.4515C21.1596 18.3205 21.3519 18.1025 21.4859 18.118C22.1256 18.1919 22.806 18.4919 23.3904 19.0072Z" fill="url(#paint27_linear_28_284)"/>
<path d="M21.2765 18.2297L24.4266 21.0069C24.3658 21.0758 24.2842 21.1265 24.2172 21.1187C23.5775 21.0448 22.8971 20.7448 22.3126 20.2295C21.7282 19.7143 21.3453 19.0769 21.1918 18.4515C21.1757 18.3859 21.2158 18.2987 21.2765 18.2297Z" fill="url(#paint28_linear_28_284)"/>
<path d="M22.2351 20.8782C22.658 21.5326 22.8538 22.25 22.832 22.8936C22.8274 23.0284 22.5833 23.1862 22.4586 23.1349C21.8628 22.8904 21.2892 22.4171 20.8664 21.7627C20.4436 21.1083 20.2477 20.3909 20.2695 19.7473C20.2741 19.6125 20.5182 19.4548 20.6429 19.506C21.2387 19.7505 21.8122 20.2238 22.2351 20.8782Z" fill="url(#paint29_linear_28_284)"/>
<path d="M20.4111 19.5569L22.6903 23.084C22.6131 23.1339 22.5209 23.1605 22.4585 23.1349C21.8627 22.8904 21.2892 22.4171 20.8663 21.7627C20.4435 21.1083 20.2477 20.3909 20.2695 19.7473C20.2717 19.6799 20.3339 19.6068 20.4111 19.5569Z" fill="url(#paint30_linear_28_284)"/>
<path d="M24.8229 21.667C23.9811 21.9029 23.2833 22.3604 22.8232 22.9176C22.7269 23.0343 22.8149 23.3484 22.9578 23.398C23.6404 23.6352 24.4743 23.6637 25.3161 23.4279C26.158 23.192 26.8557 22.7345 27.3158 22.1773C27.4121 22.0606 27.3242 21.7465 27.1812 21.6969C26.4986 21.4597 25.6647 21.4312 24.8229 21.667Z" fill="url(#paint31_linear_28_284)"/>
<path d="M24.8229 21.667C23.9811 21.9029 23.2833 22.3604 22.8232 22.9176C22.7269 23.0343 22.8149 23.3484 22.9578 23.398C23.6404 23.6352 24.4743 23.6637 25.3161 23.4279C26.158 23.192 26.8557 22.7345 27.3158 22.1773C27.4121 22.0606 27.3242 21.7465 27.1812 21.6969C26.4986 21.4597 25.6647 21.4312 24.8229 21.667Z" fill="url(#paint32_linear_28_284)"/>
<path d="M27.3384 21.9121L22.801 23.1832C22.8289 23.2825 22.8866 23.3734 22.958 23.3982C23.6406 23.6354 24.4745 23.6639 25.3163 23.4281C26.1582 23.1922 26.856 22.7347 27.316 22.1775C27.3641 22.1191 27.3662 22.0114 27.3384 21.9121Z" fill="url(#paint33_linear_28_284)"/>
<path d="M18.8808 24.7783C18.7743 24.7783 18.6722 24.736 18.5969 24.6607C18.5217 24.5855 18.4794 24.4834 18.4794 24.3769C18.4794 24.2704 18.5217 24.1683 18.5969 24.093C18.6722 24.0178 18.7743 23.9755 18.8808 23.9755C22.0593 23.9755 24.6451 21.3896 24.6451 18.2111C24.6451 17.1013 24.3292 16.0239 23.7314 15.0953C23.7028 15.051 23.6833 15.0015 23.6739 14.9496C23.6645 14.8977 23.6654 14.8445 23.6766 14.793C23.6878 14.7415 23.709 14.6926 23.739 14.6493C23.769 14.606 23.8073 14.569 23.8516 14.5405C23.896 14.5119 23.9455 14.4924 23.9974 14.483C24.0492 14.4736 24.1025 14.4745 24.154 14.4857C24.2055 14.4968 24.2543 14.518 24.2977 14.5481C24.341 14.5781 24.378 14.6164 24.4065 14.6607C25.0879 15.7191 25.448 16.9469 25.448 18.2112C25.448 21.8323 22.502 24.7783 18.8808 24.7783Z" fill="url(#paint34_linear_28_284)"/>
<path d="M23.5326 21.6111C22.4829 23.0435 20.7887 23.9755 18.8808 23.9755C18.7743 23.9755 18.6722 24.0178 18.5969 24.0931C18.5217 24.1684 18.4794 24.2705 18.4794 24.3769C18.4794 24.4834 18.5217 24.5855 18.5969 24.6608C18.6722 24.736 18.7743 24.7783 18.8808 24.7783C20.6967 24.7783 22.3426 24.0374 23.5326 22.8422V21.6111Z" fill="url(#paint35_linear_28_284)"/>
<path d="M15.2271 13.9208C14.9347 14.3928 14.5285 14.7353 14.1009 14.9135C14.0113 14.9509 13.8301 14.8386 13.8236 14.7418C13.7927 14.2795 13.9185 13.7633 14.2108 13.2913C14.5032 12.8193 14.9094 12.4769 15.3371 12.2986C15.4267 12.2613 15.6079 12.3735 15.6144 12.4704C15.6452 12.9327 15.5195 13.4489 15.2271 13.9208Z" fill="url(#paint36_linear_28_284)"/>
<path d="M15.5069 12.3342L13.931 14.878C13.8737 14.8425 13.8268 14.7902 13.8236 14.7418C13.7927 14.2795 13.9185 13.7633 14.2108 13.2913C14.5032 12.8193 14.9094 12.4769 15.3371 12.2986C15.3819 12.2799 15.4496 12.2987 15.5069 12.3342Z" fill="url(#paint37_linear_28_284)"/>
<path d="M13.4143 14.203C13.5969 14.7446 13.6066 15.29 13.4749 15.7437C13.4473 15.8387 13.2453 15.9067 13.1658 15.8478C12.7864 15.5664 12.464 15.1264 12.2815 14.5848C12.0989 14.0432 12.0892 13.4978 12.2209 13.0441C12.2484 12.9491 12.4505 12.881 12.5299 12.9399C12.9093 13.2214 13.2317 13.6614 13.4143 14.203Z" fill="url(#paint38_linear_28_284)"/>
<path d="M13.4143 14.203C13.5969 14.7446 13.6066 15.29 13.4749 15.7437C13.4473 15.8387 13.2453 15.9067 13.1658 15.8478C12.7864 15.5664 12.464 15.1264 12.2815 14.5848C12.0989 14.0432 12.0892 13.4978 12.2209 13.0441C12.2484 12.9491 12.4505 12.881 12.5299 12.9399C12.9093 13.2214 13.2317 13.6614 13.4143 14.203Z" fill="url(#paint39_linear_28_284)"/>
<path d="M12.3563 12.9341L13.3402 15.8533C13.2764 15.8748 13.206 15.8771 13.1663 15.8476C12.7868 15.5662 12.4644 15.1262 12.2819 14.5846C12.0993 14.043 12.0896 13.4976 12.2213 13.0439C12.235 12.9964 12.2924 12.9556 12.3563 12.9341Z" fill="url(#paint40_linear_28_284)"/>
<path d="M14.8363 15.0137C14.2772 15.1324 13.8029 15.4017 13.4795 15.746C13.4117 15.8181 13.456 16.0267 13.5472 16.065C13.9826 16.2483 14.5254 16.3017 15.0845 16.1831C15.6436 16.0644 16.118 15.795 16.4414 15.4507C16.5091 15.3786 16.4648 15.1701 16.3737 15.1317C15.9383 14.9484 15.3954 14.895 14.8363 15.0137Z" fill="url(#paint41_linear_28_284)"/>
<path d="M16.4671 15.2786L13.4537 15.9182C13.4678 15.9841 13.5016 16.0459 13.5472 16.065C13.9826 16.2483 14.5254 16.3017 15.0845 16.1831C15.6437 16.0644 16.118 15.795 16.4414 15.4507C16.4752 15.4147 16.4811 15.3445 16.4671 15.2786Z" fill="url(#paint42_linear_28_284)"/>
<path d="M12.4952 16.4338C12.8409 16.9914 12.9944 17.5985 12.9659 18.14C12.9599 18.2535 12.7519 18.3824 12.6477 18.3373C12.1499 18.122 11.6745 17.7145 11.3288 17.1569C10.9831 16.5992 10.8296 15.9922 10.8581 15.4507C10.8641 15.3372 11.0721 15.2083 11.1764 15.2534C11.6741 15.4686 12.1495 15.8762 12.4952 16.4338Z" fill="url(#paint43_linear_28_284)"/>
<path d="M12.4952 16.4338C12.8409 16.9914 12.9944 17.5985 12.9659 18.14C12.9599 18.2535 12.7519 18.3824 12.6477 18.3373C12.1499 18.122 11.6745 17.7145 11.3288 17.1569C10.9831 16.5992 10.8296 15.9922 10.8581 15.4507C10.8641 15.3372 11.0721 15.2083 11.1764 15.2534C11.6741 15.4686 12.1495 15.8762 12.4952 16.4338Z" fill="url(#paint44_linear_28_284)"/>
<path d="M10.9804 15.2927L12.8436 18.2983C12.7779 18.3391 12.6998 18.36 12.6477 18.3375C12.1499 18.1221 11.6745 17.7147 11.3288 17.157C10.9831 16.5994 10.8296 15.9923 10.8581 15.4508C10.8611 15.3941 10.9146 15.3335 10.9804 15.2927Z" fill="url(#paint45_linear_28_284)"/>
<path d="M14.2964 16.9684C13.7026 17.2473 13.2428 17.6723 12.9714 18.1418C12.9145 18.2401 13.0185 18.4617 13.1305 18.4807C13.6651 18.5717 14.2858 18.4894 14.8797 18.2106C15.4736 17.9317 15.9333 17.5066 16.2048 17.0372C16.2616 16.9389 16.1576 16.7173 16.0457 16.6983C15.5111 16.6073 14.8904 16.6895 14.2964 16.9684Z" fill="url(#paint46_linear_28_284)"/>
<path d="M16.1884 16.8379L12.9875 18.3409C13.0204 18.4109 13.0744 18.4711 13.1303 18.4806C13.6649 18.5716 14.2857 18.4893 14.8796 18.2105C15.4734 17.9316 15.9332 17.5065 16.2047 17.0371C16.2331 16.9879 16.2213 16.9079 16.1884 16.8379Z" fill="url(#paint47_linear_28_284)"/>
<path d="M12.3787 18.9965C12.958 19.5174 13.3348 20.1585 13.4822 20.7854C13.5131 20.9166 13.3188 21.1328 13.185 21.116C12.546 21.0359 11.8685 20.7293 11.2891 20.2084C10.7097 19.6875 10.333 19.0463 10.1855 18.4195C10.1546 18.2882 10.349 18.072 10.4828 18.0888C11.1218 18.1689 11.7993 18.4755 12.3787 18.9965Z" fill="url(#paint48_linear_28_284)"/>
<path d="M12.3787 18.9965C12.958 19.5174 13.3348 20.1585 13.4822 20.7854C13.5131 20.9166 13.3188 21.1328 13.185 21.116C12.546 21.0359 11.8685 20.7293 11.2891 20.2084C10.7097 19.6875 10.333 19.0463 10.1855 18.4195C10.1546 18.2882 10.349 18.072 10.4828 18.0888C11.1218 18.1689 11.7993 18.4755 12.3787 18.9965Z" fill="url(#paint49_linear_28_284)"/>
<path d="M10.2724 18.1985L13.3953 21.0061C13.3339 21.0744 13.2519 21.1243 13.1849 21.1159C12.546 21.0357 11.8685 20.7292 11.2891 20.2082C10.7096 19.6873 10.3329 19.0462 10.1855 18.4193C10.1701 18.3537 10.2109 18.2669 10.2724 18.1985Z" fill="url(#paint50_linear_28_284)"/>
<path d="M14.6096 19.0072C14.0252 19.5224 13.6422 20.1598 13.4887 20.7853C13.4566 20.9162 13.6488 21.1343 13.7828 21.1188C14.4225 21.0449 15.1029 20.7448 15.6874 20.2296C16.2718 19.7143 16.6547 19.0769 16.8082 18.4515C16.8404 18.3205 16.6481 18.1025 16.5142 18.118C15.8744 18.1919 15.194 18.4919 14.6096 19.0072Z" fill="url(#paint51_linear_28_284)"/>
<path d="M16.7236 18.2297L13.5736 21.0069C13.6344 21.0758 13.7159 21.1265 13.7829 21.1187C14.4227 21.0448 15.1031 20.7448 15.6875 20.2295C16.2719 19.7143 16.6549 19.0769 16.8084 18.4515C16.8244 18.3859 16.7844 18.2987 16.7236 18.2297Z" fill="url(#paint52_linear_28_284)"/>
<path d="M15.7649 20.8782C15.342 21.5326 15.1462 22.25 15.168 22.8936C15.1726 23.0284 15.4167 23.1862 15.5414 23.1349C16.1372 22.8904 16.7108 22.4171 17.1336 21.7627C17.5565 21.1083 17.7523 20.3909 17.7305 19.7473C17.7259 19.6125 17.4818 19.4548 17.3571 19.506C16.7614 19.7505 16.1878 20.2238 15.7649 20.8782Z" fill="url(#paint53_linear_28_284)"/>
<path d="M17.5886 19.5569L15.3094 23.084C15.3866 23.1339 15.4789 23.1605 15.5413 23.1349C16.137 22.8904 16.7106 22.4171 17.1334 21.7627C17.5563 21.1083 17.7521 20.3909 17.7303 19.7473C17.728 19.6799 17.6658 19.6068 17.5886 19.5569Z" fill="url(#paint54_linear_28_284)"/>
<path d="M13.1769 21.667C14.0188 21.9029 14.7165 22.3604 15.1766 22.9176C15.2729 23.0343 15.1849 23.3484 15.042 23.398C14.3594 23.6352 13.5255 23.6637 12.6837 23.4279C11.8418 23.192 11.1441 22.7345 10.684 22.1773C10.5877 22.0606 10.6757 21.7465 10.8186 21.6969C11.5012 21.4597 12.3351 21.4312 13.1769 21.667Z" fill="url(#paint55_linear_28_284)"/>
<path d="M13.1769 21.667C14.0188 21.9029 14.7165 22.3604 15.1766 22.9176C15.2729 23.0343 15.1849 23.3484 15.042 23.398C14.3594 23.6352 13.5255 23.6637 12.6837 23.4279C11.8418 23.192 11.1441 22.7345 10.684 22.1773C10.5877 22.0606 10.6757 21.7465 10.8186 21.6969C11.5012 21.4597 12.3351 21.4312 13.1769 21.667Z" fill="url(#paint56_linear_28_284)"/>
<path d="M10.6616 21.9121L15.199 23.1832C15.1712 23.2825 15.1135 23.3734 15.042 23.3982C14.3594 23.6354 13.5255 23.6639 12.6837 23.4281C11.8419 23.1922 11.1441 22.7347 10.684 22.1775C10.6359 22.1191 10.6338 22.0114 10.6616 21.9121Z" fill="url(#paint57_linear_28_284)"/>
<path d="M19.1192 24.7783C19.2256 24.7783 19.3278 24.736 19.403 24.6607C19.4783 24.5855 19.5206 24.4834 19.5206 24.3769C19.5206 24.2704 19.4783 24.1683 19.403 24.093C19.3278 24.0178 19.2256 23.9755 19.1192 23.9755C15.9407 23.9755 13.3548 21.3896 13.3548 18.2111C13.3548 17.1013 13.6708 16.0239 14.2686 15.0953C14.2971 15.051 14.3167 15.0015 14.3261 14.9496C14.3355 14.8977 14.3346 14.8445 14.3234 14.793C14.3122 14.7415 14.291 14.6926 14.261 14.6493C14.2309 14.606 14.1927 14.569 14.1483 14.5405C14.104 14.5119 14.0545 14.4924 14.0026 14.483C13.9507 14.4736 13.8975 14.4745 13.846 14.4857C13.7945 14.4968 13.7456 14.518 13.7023 14.5481C13.659 14.5781 13.622 14.6164 13.5935 14.6607C12.9121 15.7191 12.5519 16.9469 12.5519 18.2112C12.552 21.8323 15.498 24.7783 19.1192 24.7783Z" fill="url(#paint58_linear_28_284)"/>
</g>
<defs>
<filter id="filter0_d_28_284" x="0" y="0" width="50" height="50" filterUnits="userSpaceOnUse" color-interpolation-filters="sRGB">
<feFlood flood-opacity="0" result="BackgroundImageFix"/>
<feColorMatrix in="SourceAlpha" type="matrix" values="0 0 0 0 0 0 0 0 0 0 0 0 0 0 0 0 0 0 127 0" result="hardAlpha"/>
<feOffset dx="6" dy="6"/>
<feGaussianBlur stdDeviation="6"/>
<feColorMatrix type="matrix" values="0 0 0 0 0 0 0 0 0 0 0 0 0 0 0 0 0 0 0.35 0"/>
<feBlend mode="normal" in2="BackgroundImageFix" result="effect1_dropShadow_28_284"/>
<feBlend mode="normal" in="SourceGraphic" in2="effect1_dropShadow_28_284" result="shape"/>
</filter>
<linearGradient id="paint0_linear_28_284" x1="10.3106" y1="10.3106" x2="26.8996" y2="26.8996" gradientUnits="userSpaceOnUse">
<stop stop-color="#FEF0AE"/>
<stop offset="1" stop-color="#FBC56D"/>
</linearGradient>
<linearGradient id="paint1_linear_28_284" x1="25.9618" y1="25.9617" x2="11.8353" y2="11.8351" gradientUnits="userSpaceOnUse">
<stop stop-color="#FEF0AE"/>
<stop offset="1" stop-color="#FBC56D"/>
</linearGradient>
<linearGradient id="paint2_linear_28_284" x1="12.088" y1="12.088" x2="23.4655" y2="23.4655" gradientUnits="userSpaceOnUse">
<stop stop-color="#FEF0AE"/>
<stop offset="1" stop-color="#FBC56D"/>
</linearGradient>
<linearGradient id="paint3_linear_28_284" x1="19" y1="24.1371" x2="19" y2="31.0497" gradientUnits="userSpaceOnUse">
<stop stop-color="#DC8758" stop-opacity="0"/>
<stop offset="0.996" stop-color="#DC8758" stop-opacity="0.996"/>
<stop offset="1" stop-color="#DC8758"/>
</linearGradient>
<linearGradient id="paint4_linear_28_284" x1="20.1125" y1="20.3395" x2="10.6301" y2="14.2219" gradientUnits="userSpaceOnUse">
<stop stop-color="#DC8758" stop-opacity="0"/>
<stop offset="0.996" stop-color="#DC8758" stop-opacity="0.996"/>
<stop offset="1" stop-color="#DC8758"/>
</linearGradient>
<linearGradient id="paint5_linear_28_284" x1="26.8493" y1="24.363" x2="18.5144" y2="17.0987" gradientUnits="userSpaceOnUse">
<stop stop-color="#DC8758" stop-opacity="0"/>
<stop offset="0.996" stop-color="#DC8758" stop-opacity="0.996"/>
<stop offset="1" stop-color="#DC8758"/>
</linearGradient>
<linearGradient id="paint6_linear_28_284" x1="20.5928" y1="14.1105" x2="17.9243" y2="11.4421" gradientUnits="userSpaceOnUse">
<stop stop-color="#FEF0AE"/>
<stop offset="1" stop-color="#FBC56D"/>
</linearGradient>
<linearGradient id="paint7_linear_28_284" x1="22.8654" y1="20.8399" x2="16.6798" y2="19.4125" gradientUnits="userSpaceOnUse">
<stop stop-color="#DC8758" stop-opacity="0"/>
<stop offset="0.996" stop-color="#DC8758" stop-opacity="0.996"/>
<stop offset="1" stop-color="#DC8758"/>
</linearGradient>
<linearGradient id="paint8_linear_28_284" x1="17.9793" y1="17.0753" x2="19.6107" y2="17.7551" gradientUnits="userSpaceOnUse">
<stop stop-color="#FBC56D"/>
<stop offset="1" stop-color="#C5715A"/>
</linearGradient>
<linearGradient id="paint9_linear_28_284" x1="15.0647" y1="22.4405" x2="17.6137" y2="31.362" gradientUnits="userSpaceOnUse">
<stop stop-color="#FBC56D"/>
<stop offset="1" stop-color="#C5715A"/>
</linearGradient>
<linearGradient id="paint10_linear_28_284" x1="20.4524" y1="20.9011" x2="23.0015" y2="29.8227" gradientUnits="userSpaceOnUse">
<stop stop-color="#FBC56D"/>
<stop offset="1" stop-color="#C5715A"/>
</linearGradient>
<linearGradient id="paint11_linear_28_284" x1="17.7552" y1="21.6718" x2="20.3042" y2="30.5933" gradientUnits="userSpaceOnUse">
<stop stop-color="#FBC56D"/>
<stop offset="1" stop-color="#C5715A"/>
</linearGradient>
<linearGradient id="paint12_linear_28_284" x1="22.5853" y1="13.7239" x2="24.3681" y2="14.0846" gradientUnits="userSpaceOnUse">
<stop stop-color="#FBC56D"/>
<stop offset="1" stop-color="#C5715A"/>
</linearGradient>
<linearGradient id="paint13_linear_28_284" x1="23.5495" y1="13.3712" x2="23.1139" y2="14.4733" gradientUnits="userSpaceOnUse">
<stop stop-color="#8C3D27" stop-opacity="0"/>
<stop offset="1" stop-color="#8C3D27"/>
</linearGradient>
<linearGradient id="paint14_linear_28_284" x1="24.2677" y1="13.9128" x2="24.903" y2="15.9579" gradientUnits="userSpaceOnUse">
<stop stop-color="#FBC56D"/>
<stop offset="1" stop-color="#C5715A"/>
</linearGradient>
<linearGradient id="paint15_linear_28_284" x1="24.9793" y1="14.6188" x2="24.4869" y2="15.2611" gradientUnits="userSpaceOnUse">
<stop stop-color="#8C3D27" stop-opacity="0"/>
<stop offset="1" stop-color="#8C3D27"/>
</linearGradient>
<linearGradient id="paint16_linear_28_284" x1="25.5693" y1="14.5709" x2="24.2787" y2="15.2852" gradientUnits="userSpaceOnUse">
<stop stop-color="#8C3D27" stop-opacity="0"/>
<stop offset="1" stop-color="#8C3D27"/>
</linearGradient>
<linearGradient id="paint17_linear_28_284" x1="22.8808" y1="14.4847" x2="24.317" y2="16.0726" gradientUnits="userSpaceOnUse">
<stop stop-color="#FBC56D"/>
<stop offset="1" stop-color="#C5715A"/>
</linearGradient>
<linearGradient id="paint18_linear_28_284" x1="22.7845" y1="15.9397" x2="24.0556" y2="15.1942" gradientUnits="userSpaceOnUse">
<stop stop-color="#8C3D27" stop-opacity="0"/>
<stop offset="1" stop-color="#8C3D27"/>
</linearGradient>
<linearGradient id="paint19_linear_28_284" x1="25.5282" y1="15.8148" x2="25.7017" y2="18.2661" gradientUnits="userSpaceOnUse">
<stop stop-color="#FBC56D"/>
<stop offset="1" stop-color="#C5715A"/>
</linearGradient>
<linearGradient id="paint20_linear_28_284" x1="26.0633" y1="16.8176" x2="25.2069" y2="17.5884" gradientUnits="userSpaceOnUse">
<stop stop-color="#8C3D27" stop-opacity="0"/>
<stop offset="1" stop-color="#8C3D27"/>
</linearGradient>
<linearGradient id="paint21_linear_28_284" x1="26.8104" y1="16.8915" x2="25.1834" y2="17.3528" gradientUnits="userSpaceOnUse">
<stop stop-color="#8C3D27" stop-opacity="0"/>
<stop offset="1" stop-color="#8C3D27"/>
</linearGradient>
<linearGradient id="paint22_linear_28_284" x1="23.4548" y1="16.3364" x2="24.6454" y2="18.4881" gradientUnits="userSpaceOnUse">
<stop stop-color="#FBC56D"/>
<stop offset="1" stop-color="#C5715A"/>
</linearGradient>
<linearGradient id="paint23_linear_28_284" x1="22.9675" y1="17.9377" x2="24.5833" y2="17.4357" gradientUnits="userSpaceOnUse">
<stop stop-color="#8C3D27" stop-opacity="0"/>
<stop offset="1" stop-color="#8C3D27"/>
</linearGradient>
<linearGradient id="paint24_linear_28_284" x1="25.6705" y1="18.4003" x2="25.0546" y2="21.2555" gradientUnits="userSpaceOnUse">
<stop stop-color="#FBC56D"/>
<stop offset="1" stop-color="#C5715A"/>
</linearGradient>
<linearGradient id="paint25_linear_28_284" x1="26.0115" y1="19.6297" x2="24.9195" y2="19.8225" gradientUnits="userSpaceOnUse">
<stop stop-color="#8C3D27" stop-opacity="0"/>
<stop offset="1" stop-color="#8C3D27"/>
</linearGradient>
<linearGradient id="paint26_linear_28_284" x1="26.7753" y1="20.0543" x2="24.7653" y2="20.0392" gradientUnits="userSpaceOnUse">
<stop stop-color="#8C3D27" stop-opacity="0"/>
<stop offset="1" stop-color="#8C3D27"/>
</linearGradient>
<linearGradient id="paint27_linear_28_284" x1="23.2587" y1="18.2948" x2="23.9015" y2="21.1437" gradientUnits="userSpaceOnUse">
<stop stop-color="#FBC56D"/>
<stop offset="1" stop-color="#C5715A"/>
</linearGradient>
<linearGradient id="paint28_linear_28_284" x1="22.1718" y1="19.9586" x2="24.1819" y2="19.9215" gradientUnits="userSpaceOnUse">
<stop stop-color="#8C3D27" stop-opacity="0"/>
<stop offset="1" stop-color="#8C3D27"/>
</linearGradient>
<linearGradient id="paint29_linear_28_284" x1="22.3184" y1="20.2246" x2="22.1661" y2="23.1409" gradientUnits="userSpaceOnUse">
<stop stop-color="#FBC56D"/>
<stop offset="1" stop-color="#C5715A"/>
</linearGradient>
<linearGradient id="paint30_linear_28_284" x1="20.8201" y1="21.5319" x2="22.764" y2="22.0424" gradientUnits="userSpaceOnUse">
<stop stop-color="#8C3D27" stop-opacity="0"/>
<stop offset="1" stop-color="#8C3D27"/>
</linearGradient>
<linearGradient id="paint31_linear_28_284" x1="25.2233" y1="21.0336" x2="23.1852" y2="23.5968" gradientUnits="userSpaceOnUse">
<stop stop-color="#FBC56D"/>
<stop offset="1" stop-color="#C5715A"/>
</linearGradient>
<linearGradient id="paint32_linear_28_284" x1="24.8433" y1="22.5475" x2="23.5587" y2="22.5475" gradientUnits="userSpaceOnUse">
<stop stop-color="#8C3D27" stop-opacity="0"/>
<stop offset="1" stop-color="#8C3D27"/>
</linearGradient>
<linearGradient id="paint33_linear_28_284" x1="25.5122" y1="23.2457" x2="23.4983" y2="22.2305" gradientUnits="userSpaceOnUse">
<stop stop-color="#8C3D27" stop-opacity="0"/>
<stop offset="1" stop-color="#8C3D27"/>
</linearGradient>
<linearGradient id="paint34_linear_28_284" x1="20.1133" y1="18.2658" x2="24.1112" y2="22.2637" gradientUnits="userSpaceOnUse">
<stop stop-color="#FBC56D"/>
<stop offset="1" stop-color="#C5715A"/>
</linearGradient>
<linearGradient id="paint35_linear_28_284" x1="20.6705" y1="23.9151" x2="19.5489" y2="25.1896" gradientUnits="userSpaceOnUse">
<stop stop-color="#8C3D27" stop-opacity="0"/>
<stop offset="1" stop-color="#8C3D27"/>
</linearGradient>
<linearGradient id="paint36_linear_28_284" x1="15.4103" y1="13.7193" x2="13.6275" y2="14.0801" gradientUnits="userSpaceOnUse">
<stop stop-color="#FBC56D"/>
<stop offset="1" stop-color="#C5715A"/>
</linearGradient>
<linearGradient id="paint37_linear_28_284" x1="14.4458" y1="13.3666" x2="14.8814" y2="14.4688" gradientUnits="userSpaceOnUse">
<stop stop-color="#8C3D27" stop-opacity="0"/>
<stop offset="1" stop-color="#8C3D27"/>
</linearGradient>
<linearGradient id="paint38_linear_28_284" x1="13.712" y1="13.8902" x2="13.0767" y2="15.9353" gradientUnits="userSpaceOnUse">
<stop stop-color="#FBC56D"/>
<stop offset="1" stop-color="#C5715A"/>
</linearGradient>
<linearGradient id="paint39_linear_28_284" x1="13.0203" y1="14.6188" x2="13.5127" y2="15.2611" gradientUnits="userSpaceOnUse">
<stop stop-color="#8C3D27" stop-opacity="0"/>
<stop offset="1" stop-color="#8C3D27"/>
</linearGradient>
<linearGradient id="paint40_linear_28_284" x1="12.4109" y1="14.5482" x2="13.7015" y2="15.2626" gradientUnits="userSpaceOnUse">
<stop stop-color="#8C3D27" stop-opacity="0"/>
<stop offset="1" stop-color="#8C3D27"/>
</linearGradient>
<linearGradient id="paint41_linear_28_284" x1="15.1296" y1="14.5106" x2="13.6934" y2="16.0984" gradientUnits="userSpaceOnUse">
<stop stop-color="#FBC56D"/>
<stop offset="1" stop-color="#C5715A"/>
</linearGradient>
<linearGradient id="paint42_linear_28_284" x1="15.2258" y1="15.9656" x2="13.9547" y2="15.22" gradientUnits="userSpaceOnUse">
<stop stop-color="#8C3D27" stop-opacity="0"/>
<stop offset="1" stop-color="#8C3D27"/>
</linearGradient>
<linearGradient id="paint43_linear_28_284" x1="12.4865" y1="15.8259" x2="12.3129" y2="18.2773" gradientUnits="userSpaceOnUse">
<stop stop-color="#FBC56D"/>
<stop offset="1" stop-color="#C5715A"/>
</linearGradient>
<linearGradient id="paint44_linear_28_284" x1="11.9367" y1="16.8176" x2="12.7932" y2="17.5884" gradientUnits="userSpaceOnUse">
<stop stop-color="#8C3D27" stop-opacity="0"/>
<stop offset="1" stop-color="#8C3D27"/>
</linearGradient>
<linearGradient id="paint45_linear_28_284" x1="11.2042" y1="16.9027" x2="12.8312" y2="17.364" gradientUnits="userSpaceOnUse">
<stop stop-color="#8C3D27" stop-opacity="0"/>
<stop offset="1" stop-color="#8C3D27"/>
</linearGradient>
<linearGradient id="paint46_linear_28_284" x1="14.5381" y1="16.3661" x2="13.3475" y2="18.5178" gradientUnits="userSpaceOnUse">
<stop stop-color="#FBC56D"/>
<stop offset="1" stop-color="#C5715A"/>
</linearGradient>
<linearGradient id="paint47_linear_28_284" x1="15.0253" y1="17.9674" x2="13.4095" y2="17.4653" gradientUnits="userSpaceOnUse">
<stop stop-color="#8C3D27" stop-opacity="0"/>
<stop offset="1" stop-color="#8C3D27"/>
</linearGradient>
<linearGradient id="paint48_linear_28_284" x1="12.3182" y1="18.3881" x2="12.9341" y2="21.2433" gradientUnits="userSpaceOnUse">
<stop stop-color="#FBC56D"/>
<stop offset="1" stop-color="#C5715A"/>
</linearGradient>
<linearGradient id="paint49_linear_28_284" x1="11.9889" y1="19.6297" x2="13.0808" y2="19.8225" gradientUnits="userSpaceOnUse">
<stop stop-color="#8C3D27" stop-opacity="0"/>
<stop offset="1" stop-color="#8C3D27"/>
</linearGradient>
<linearGradient id="paint50_linear_28_284" x1="11.2134" y1="20.0422" x2="13.2233" y2="20.027" gradientUnits="userSpaceOnUse">
<stop stop-color="#8C3D27" stop-opacity="0"/>
<stop offset="1" stop-color="#8C3D27"/>
</linearGradient>
<linearGradient id="paint51_linear_28_284" x1="14.7198" y1="18.3139" x2="14.077" y2="21.1628" gradientUnits="userSpaceOnUse">
<stop stop-color="#FBC56D"/>
<stop offset="1" stop-color="#C5715A"/>
</linearGradient>
<linearGradient id="paint52_linear_28_284" x1="15.8068" y1="19.9778" x2="13.7968" y2="19.9406" gradientUnits="userSpaceOnUse">
<stop stop-color="#8C3D27" stop-opacity="0"/>
<stop offset="1" stop-color="#8C3D27"/>
</linearGradient>
<linearGradient id="paint53_linear_28_284" x1="15.6755" y1="20.2244" x2="15.8279" y2="23.1407" gradientUnits="userSpaceOnUse">
<stop stop-color="#FBC56D"/>
<stop offset="1" stop-color="#C5715A"/>
</linearGradient>
<linearGradient id="paint54_linear_28_284" x1="17.1736" y1="21.5318" x2="15.2296" y2="22.0422" gradientUnits="userSpaceOnUse">
<stop stop-color="#8C3D27" stop-opacity="0"/>
<stop offset="1" stop-color="#8C3D27"/>
</linearGradient>
<linearGradient id="paint55_linear_28_284" x1="12.7706" y1="21.0414" x2="14.8088" y2="23.6046" gradientUnits="userSpaceOnUse">
<stop stop-color="#FBC56D"/>
<stop offset="1" stop-color="#C5715A"/>
</linearGradient>
<linearGradient id="paint56_linear_28_284" x1="13.1565" y1="22.5475" x2="14.4411" y2="22.5475" gradientUnits="userSpaceOnUse">
<stop stop-color="#8C3D27" stop-opacity="0"/>
<stop offset="1" stop-color="#8C3D27"/>
</linearGradient>
<linearGradient id="paint57_linear_28_284" x1="12.482" y1="23.2536" x2="14.4959" y2="22.2383" gradientUnits="userSpaceOnUse">
<stop stop-color="#8C3D27" stop-opacity="0"/>
<stop offset="1" stop-color="#8C3D27"/>
</linearGradient>
<linearGradient id="paint58_linear_28_284" x1="17.8867" y1="18.2658" x2="13.8887" y2="22.2637" gradientUnits="userSpaceOnUse">
<stop stop-color="#FBC56D"/>
<stop offset="1" stop-color="#C5715A"/>
</linearGradient>
<clipPath id="clip0_28_284">
<rect width="26" height="26" fill="white" transform="translate(6 6)"/>
</clipPath>
</defs>
</svg>
