<svg width="60" height="66" viewBox="0 0 60 66" fill="none" xmlns="http://www.w3.org/2000/svg">
<g clip-path="url(#clip0_1_250)" filter="url(#filter0_d_1_250)">
<path d="M40.0739 26.5693C40.062 26.5948 40.0501 26.6203 40.0382 26.6457C39.5708 27.6403 38.0755 27.2454 38.1676 26.1503C38.3359 24.1488 38.0884 22.08 37.3672 20.0655C35.0264 13.5264 27.1671 6.08087 20.2074 6.00006C19.4642 5.99145 19.0375 6.84228 19.4761 7.44226C20.0609 8.24206 20.5358 9.14367 20.8721 10.1326C21.9757 13.379 21.2963 16.8353 19.353 19.4032C18.5429 20.4737 16.8227 19.945 16.7944 18.6029L16.7938 18.5737C16.7824 17.8621 16.8991 17.179 17.1231 16.5462C17.2218 16.2673 16.9632 15.9927 16.6799 16.0781C12.7344 17.2673 9.73427 23.0731 9.73427 27.2143C9.73427 27.5168 9.75109 27.8153 9.78234 28.1095C9.78631 28.675 9.8847 29.236 10.0735 29.7691L10.0946 29.8283C10.1552 29.9965 10.2188 30.1636 10.2855 30.3295C9.34533 29.1808 8.55313 27.9185 7.92753 26.5724C7.63542 25.9433 6.71085 26.0682 6.59731 26.7524C6.39503 27.9709 6.28912 29.1594 6.28912 30.2892C6.28912 40.0706 14.2185 48 23.9999 48C33.7813 48 41.7107 40.0706 41.7107 30.2892C41.7107 29.1593 41.6048 27.9707 41.4024 26.7521C41.2891 26.0695 40.3651 25.9416 40.0739 26.5693Z" fill="url(#paint0_linear_1_250)"/>
<path d="M9.73439 27.2143C9.73439 27.5167 9.75121 27.8153 9.78246 28.1094C9.78644 28.675 9.88483 29.2359 10.0736 29.7691L10.0947 29.8282C10.1553 29.9964 10.2189 30.1635 10.2856 30.3293C9.34545 29.1806 8.55325 27.9184 7.92766 26.5722C7.63554 25.9432 6.71097 26.0681 6.59744 26.7523C6.39515 27.9708 6.28925 29.1593 6.28925 30.2891C6.28916 40.0706 14.2186 47.9999 24 47.9999C33.7814 47.9999 41.7108 40.0706 41.7108 30.2892C41.7108 29.1593 41.6048 27.9707 41.4025 26.752C41.2891 26.0695 40.3651 25.9416 40.0738 26.5693C40.062 26.5948 40.0501 26.6202 40.0381 26.6457C39.5707 27.6403 38.0755 27.2454 38.1676 26.1503C38.2064 25.6849 38.2225 25.2179 38.2158 24.751H10.0372C9.8398 25.603 9.73439 26.4379 9.73439 27.2143Z" fill="url(#paint1_linear_1_250)"/>
<path d="M9.73439 27.2143C9.73439 27.5167 9.75121 27.8153 9.78246 28.1094C9.78644 28.675 9.88483 29.2359 10.0736 29.7691L10.0947 29.8282C10.1553 29.9964 10.2189 30.1635 10.2856 30.3293C9.34545 29.1806 8.55325 27.9184 7.92766 26.5722C7.63554 25.9432 6.71097 26.0681 6.59744 26.7523C6.39515 27.9708 6.28925 29.1593 6.28925 30.2891C6.28916 40.0706 14.2186 47.9999 24 47.9999C33.7814 47.9999 41.7108 40.0706 41.7108 30.2892C41.7108 29.1593 41.6048 27.9707 41.4025 26.752C41.2891 26.0695 40.3651 25.9416 40.0738 26.5693C40.062 26.5948 40.0501 26.6202 40.0381 26.6457C39.5707 27.6403 38.0755 27.2454 38.1676 26.1503C38.2064 25.6849 38.2225 25.2179 38.2158 24.751H10.0372C9.8398 25.603 9.73439 26.4379 9.73439 27.2143Z" fill="url(#paint2_linear_1_250)"/>
<path d="M41.7108 30.2892C41.7108 29.1593 41.6049 27.9707 41.4025 26.7521C41.2891 26.0695 40.3651 25.9416 40.0738 26.5693C40.062 26.5948 40.0501 26.6203 40.0381 26.6457C39.5707 27.6403 38.0755 27.2454 38.1676 26.1503C38.3359 24.1488 38.0883 22.08 37.3672 20.0655C35.0264 13.5264 27.1671 6.08087 20.2075 6.00006C19.4643 5.99145 19.0376 6.84228 19.4762 7.44234C20.061 8.24214 20.5359 9.14375 20.8721 10.1327C21.9758 13.3791 21.2964 16.8354 19.3531 19.4033C18.9496 19.9364 18.3206 20.0727 17.7872 19.9097V46.8785C19.7205 47.6029 21.8138 48 24 48C33.7814 48 41.7108 40.0706 41.7108 30.2892Z" fill="url(#paint3_linear_1_250)"/>
<path d="M40.3615 37.0798L28.8481 25.5664L17.0967 42.4611L22.5787 47.9431C23.0478 47.9803 23.5218 47.9999 24.0004 47.9999C31.3759 47.9999 37.6975 43.4911 40.3615 37.0798Z" fill="url(#paint4_linear_1_250)"/>
<path d="M32.9726 33.3091C32.9659 33.3234 32.9594 33.3376 32.9526 33.3518C32.6918 33.9069 31.8571 33.6865 31.9085 33.0752C32.0024 31.958 31.8642 30.8032 31.4616 29.6786C30.155 26.0285 25.7678 21.8723 21.8829 21.8272C21.468 21.8223 21.2299 22.2973 21.4747 22.6322C21.8092 23.0904 22.072 23.5968 22.254 24.1341C22.87 25.9462 22.4908 27.8756 21.406 29.309C20.9538 29.9066 19.9936 29.6115 19.9778 28.8622L19.9774 28.8459C19.9707 28.4607 20.033 28.0774 20.1613 27.7142C20.2164 27.5585 20.072 27.4051 19.9139 27.4528C17.7115 28.1167 16.0368 31.3575 16.0368 33.6691C16.0368 33.838 16.0462 34.0046 16.0636 34.1688C16.0659 34.4845 16.1208 34.7976 16.2261 35.0952L16.2379 35.1282C16.2717 35.2226 16.3076 35.3156 16.3444 35.408C15.8196 34.7667 15.3774 34.0621 15.0282 33.3107C14.8651 32.9596 14.349 33.0294 14.2856 33.4112C14.1726 34.0914 14.1136 34.7548 14.1136 35.3855C14.1136 40.8456 18.5398 45.2718 23.9999 45.2718C29.46 45.2718 33.8862 40.8456 33.8862 35.3855C33.8862 34.7547 33.8271 34.0913 33.7141 33.4111C33.651 33.0301 33.1352 32.9587 32.9726 33.3091Z" fill="url(#paint5_linear_1_250)"/>
<path d="M33.8866 35.3856C33.8866 34.7548 33.8275 34.0913 33.7145 33.4111C33.6513 33.0301 33.1355 32.9587 32.9729 33.3091C32.9663 33.3234 32.9597 33.3376 32.953 33.3518C32.6921 33.9069 31.8574 33.6865 31.9088 33.0752C32.0027 31.958 31.8646 30.8032 31.462 29.6786C30.1553 26.0285 25.7682 21.8723 21.8833 21.8272C21.4683 21.8223 21.2302 22.2973 21.4751 22.6322C21.8095 23.0904 22.0723 23.5968 22.2543 24.1341C22.8703 25.9462 22.4911 27.8756 21.4063 29.309C21.1812 29.6065 20.8301 29.6827 20.5323 29.5917V44.6458C21.6115 45.0501 22.7799 45.2719 24.0003 45.2719C29.4604 45.2719 33.8866 40.8456 33.8866 35.3856Z" fill="url(#paint6_linear_1_250)"/>
<path d="M16.0368 33.6692C16.0368 33.838 16.0462 34.0046 16.0636 34.1688C16.0659 34.4845 16.1208 34.7976 16.2261 35.0952L16.2379 35.1282C16.2717 35.2227 16.3076 35.3156 16.3444 35.408C15.8196 34.7668 15.3774 34.0622 15.0282 33.3108C14.8651 32.9596 14.349 33.0294 14.2856 33.4113C14.1726 34.0915 14.1136 34.7548 14.1136 35.3855C14.1136 40.8456 18.5398 45.2718 23.9999 45.2718C29.46 45.2718 33.8862 40.8456 33.8862 35.3855C33.8862 34.7548 33.8271 34.0913 33.7141 33.4111C33.6509 33.0301 33.1351 32.9587 32.9725 33.309C32.9658 33.3233 32.9593 33.3375 32.9526 33.3517C32.6917 33.9069 31.857 33.6865 31.9084 33.0752C31.9301 32.8165 31.9388 32.5559 31.9353 32.2941H16.2059C16.0957 32.7698 16.0368 33.2358 16.0368 33.6692Z" fill="url(#paint7_linear_1_250)"/>
<path d="M16.0368 33.6692C16.0368 33.838 16.0462 34.0046 16.0636 34.1688C16.0659 34.4845 16.1208 34.7976 16.2261 35.0952L16.2379 35.1282C16.2717 35.2227 16.3076 35.3156 16.3444 35.408C15.8196 34.7668 15.3774 34.0622 15.0282 33.3108C14.8651 32.9596 14.349 33.0294 14.2856 33.4113C14.1726 34.0915 14.1136 34.7548 14.1136 35.3855C14.1136 40.8456 18.5398 45.2718 23.9999 45.2718C29.46 45.2718 33.8862 40.8456 33.8862 35.3855C33.8862 34.7548 33.8271 34.0913 33.7141 33.4111C33.6509 33.0301 33.1351 32.9587 32.9725 33.309C32.9658 33.3233 32.9593 33.3375 32.9526 33.3517C32.6917 33.9069 31.857 33.6865 31.9084 33.0752C31.9301 32.8165 31.9388 32.5559 31.9353 32.2941H16.2059C16.0957 32.7698 16.0368 33.2358 16.0368 33.6692Z" fill="url(#paint8_linear_1_250)"/>
<path d="M8.18256 20.7102C9.4784 20.976 10.511 19.6433 9.99372 18.4258C9.60711 17.5159 9.66781 16.4359 10.251 15.5473L10.2538 15.5429C10.4013 15.3191 10.2835 15.0179 10.0221 14.959C8.81411 14.6869 7.5108 15.1689 6.79122 16.2653C5.86394 17.6782 6.25761 19.5753 7.67052 20.5027C7.82876 20.6064 8.00143 20.673 8.18256 20.7102Z" fill="url(#paint9_linear_1_250)"/>
<path d="M8.18256 20.7102C9.4784 20.976 10.511 19.6433 9.99372 18.4258C9.60711 17.5159 9.66781 16.4359 10.251 15.5473L10.2538 15.5429C10.4013 15.3191 10.2835 15.0179 10.0221 14.959C8.81411 14.6869 7.5108 15.1689 6.79122 16.2653C5.86394 17.6782 6.25761 19.5753 7.67052 20.5027C7.82876 20.6064 8.00143 20.673 8.18256 20.7102Z" fill="url(#paint10_linear_1_250)"/>
<path d="M8.18256 20.7102C9.4784 20.976 10.511 19.6433 9.99372 18.4258C9.60711 17.5159 9.66781 16.4359 10.251 15.5473L10.2538 15.5429C10.4013 15.3191 10.2835 15.0179 10.0221 14.959C8.81411 14.6869 7.5108 15.1689 6.79122 16.2653C5.86394 17.6782 6.25761 19.5753 7.67052 20.5027C7.82876 20.6064 8.00143 20.673 8.18256 20.7102Z" fill="url(#paint11_linear_1_250)"/>
</g>
<defs>
<filter id="filter0_d_1_250" x="-3" y="0" width="66" height="66" filterUnits="userSpaceOnUse" color-interpolation-filters="sRGB">
<feFlood flood-opacity="0" result="BackgroundImageFix"/>
<feColorMatrix in="SourceAlpha" type="matrix" values="0 0 0 0 0 0 0 0 0 0 0 0 0 0 0 0 0 0 127 0" result="hardAlpha"/>
<feOffset dx="6" dy="6"/>
<feGaussianBlur stdDeviation="6"/>
<feColorMatrix type="matrix" values="0 0 0 0 0 0 0 0 0 0 0 0 0 0 0 0 0 0 0.35 0"/>
<feBlend mode="normal" in2="BackgroundImageFix" result="effect1_dropShadow_1_250"/>
<feBlend mode="normal" in="SourceGraphic" in2="effect1_dropShadow_1_250" result="shape"/>
</filter>
<linearGradient id="paint0_linear_1_250" x1="14.8236" y1="20.4848" x2="32.1466" y2="37.8078" gradientUnits="userSpaceOnUse">
<stop stop-color="#FFA1AE"/>
<stop offset="1" stop-color="#FF4565"/>
</linearGradient>
<linearGradient id="paint1_linear_1_250" x1="27.9462" y1="36.5894" x2="34.0864" y2="44.0161" gradientUnits="userSpaceOnUse">
<stop stop-color="#FE0364" stop-opacity="0"/>
<stop offset="0.234" stop-color="#F90362" stop-opacity="0.234"/>
<stop offset="0.517" stop-color="#EA035B" stop-opacity="0.517"/>
<stop offset="0.824" stop-color="#D20250" stop-opacity="0.824"/>
<stop offset="1" stop-color="#C00148"/>
</linearGradient>
<linearGradient id="paint2_linear_1_250" x1="23.4435" y1="36.291" x2="22.3325" y2="48.3373" gradientUnits="userSpaceOnUse">
<stop stop-color="#FE0364" stop-opacity="0"/>
<stop offset="0.234" stop-color="#F90362" stop-opacity="0.234"/>
<stop offset="0.517" stop-color="#EA035B" stop-opacity="0.517"/>
<stop offset="0.824" stop-color="#D20250" stop-opacity="0.824"/>
<stop offset="1" stop-color="#C00148"/>
</linearGradient>
<linearGradient id="paint3_linear_1_250" x1="28.3466" y1="24.9812" x2="39.3405" y2="19.9521" gradientUnits="userSpaceOnUse">
<stop stop-color="#FE0364" stop-opacity="0"/>
<stop offset="0.234" stop-color="#F90362" stop-opacity="0.234"/>
<stop offset="0.517" stop-color="#EA035B" stop-opacity="0.517"/>
<stop offset="0.824" stop-color="#D20250" stop-opacity="0.824"/>
<stop offset="1" stop-color="#C00148"/>
</linearGradient>
<linearGradient id="paint4_linear_1_250" x1="37.3122" y1="45.3277" x2="23.8623" y2="35.3865" gradientUnits="userSpaceOnUse">
<stop stop-color="#FE0364" stop-opacity="0"/>
<stop offset="0.234" stop-color="#F90362" stop-opacity="0.234"/>
<stop offset="0.517" stop-color="#EA035B" stop-opacity="0.517"/>
<stop offset="0.824" stop-color="#D20250" stop-opacity="0.824"/>
<stop offset="1" stop-color="#C00148"/>
</linearGradient>
<linearGradient id="paint5_linear_1_250" x1="19.9398" y1="30.5124" x2="27.8927" y2="39.7518" gradientUnits="userSpaceOnUse">
<stop stop-color="#FEF0AE"/>
<stop offset="1" stop-color="#FAC600"/>
</linearGradient>
<linearGradient id="paint6_linear_1_250" x1="28.5046" y1="31.8905" x2="31.1945" y2="30.9548" gradientUnits="userSpaceOnUse">
<stop stop-color="#FE9738" stop-opacity="0"/>
<stop offset="1" stop-color="#FE9738"/>
</linearGradient>
<linearGradient id="paint7_linear_1_250" x1="21.2548" y1="40.3753" x2="19.2666" y2="43.6111" gradientUnits="userSpaceOnUse">
<stop stop-color="#FE9738" stop-opacity="0"/>
<stop offset="1" stop-color="#FE9738"/>
</linearGradient>
<linearGradient id="paint8_linear_1_250" x1="26.3679" y1="40.7019" x2="27.9273" y2="44.0157" gradientUnits="userSpaceOnUse">
<stop stop-color="#FE9738" stop-opacity="0"/>
<stop offset="1" stop-color="#FE9738"/>
</linearGradient>
<linearGradient id="paint9_linear_1_250" x1="7.16709" y1="16.3083" x2="10.7927" y2="19.3492" gradientUnits="userSpaceOnUse">
<stop stop-color="#FFA1AE"/>
<stop offset="1" stop-color="#FF4565"/>
</linearGradient>
<linearGradient id="paint10_linear_1_250" x1="8.13293" y1="18.5845" x2="7.31417" y2="20.719" gradientUnits="userSpaceOnUse">
<stop stop-color="#FE0364" stop-opacity="0"/>
<stop offset="0.234" stop-color="#F90362" stop-opacity="0.234"/>
<stop offset="0.517" stop-color="#EA035B" stop-opacity="0.517"/>
<stop offset="0.824" stop-color="#D20250" stop-opacity="0.824"/>
<stop offset="1" stop-color="#C00148"/>
</linearGradient>
<linearGradient id="paint11_linear_1_250" x1="8.11193" y1="17.5434" x2="10.7726" y2="18.3329" gradientUnits="userSpaceOnUse">
<stop stop-color="#FE0364" stop-opacity="0"/>
<stop offset="0.234" stop-color="#F90362" stop-opacity="0.234"/>
<stop offset="0.517" stop-color="#EA035B" stop-opacity="0.517"/>
<stop offset="0.824" stop-color="#D20250" stop-opacity="0.824"/>
<stop offset="1" stop-color="#C00148"/>
</linearGradient>
<clipPath id="clip0_1_250">
<rect width="42" height="42" fill="white" transform="translate(3 6)"/>
</clipPath>
</defs>
</svg>
