<svg width="67" height="66" viewBox="0 0 67 66" fill="none" xmlns="http://www.w3.org/2000/svg">
<g clip-path="url(#clip0_0_422)" filter="url(#filter0_d_0_422)">
<path d="M15.1174 20.9529H26.7698C31.529 20.9529 35.3872 24.811 35.3872 29.5703V35.6829C35.3872 40.4421 31.5291 44.3002 26.7698 44.3002H20.0817C19.963 44.3002 19.8559 44.3657 19.7963 44.4684C18.8334 46.1268 16.8292 47.3086 14.1969 47.9888C13.8714 48.0729 13.653 47.6676 13.8961 47.4356C14.8794 46.4969 15.3624 45.5694 15.4435 44.6612C15.4608 44.4679 15.3114 44.3002 15.1173 44.3002C10.3581 44.3002 6.5 40.4421 6.5 35.6828V29.5703C6.5 24.811 10.3581 20.9529 15.1174 20.9529Z" fill="url(#paint0_linear_0_422)"/>
<path d="M6.5 29.7117V35.6828C6.5 40.442 10.3581 44.3001 15.1174 44.3001C15.3115 44.3001 15.4608 44.4678 15.4436 44.6611C15.3625 45.5692 14.8795 46.4968 13.8962 47.4355C13.653 47.6676 13.8715 48.0728 14.197 47.9887C16.8292 47.3084 18.8335 46.1267 19.7964 44.4683C19.8559 44.3657 19.9631 44.3001 20.0818 44.3001H26.7699C31.5291 44.3001 35.3873 40.442 35.3873 35.6828V29.7117H6.5Z" fill="url(#paint1_linear_0_422)"/>
<path d="M26.7699 20.9529H19.6538V44.6942C19.7027 44.6196 19.7518 44.545 19.7963 44.4683C19.8559 44.3657 19.9631 44.3002 20.0818 44.3002H26.7699C31.5291 44.3002 35.3872 40.4421 35.3872 35.6828V29.5702C35.3872 24.811 31.5291 20.9529 26.7699 20.9529Z" fill="url(#paint2_linear_0_422)"/>
<path d="M15.5486 32.1339L27.6684 44.2536C32.0053 43.8043 35.3872 40.1385 35.3872 35.6828V32.1339H15.5486Z" fill="url(#paint3_linear_0_422)"/>
<path d="M37.7118 6H23.1238C17.1657 6 12.3356 10.8301 12.3356 16.7883V24.4406C12.3356 30.3988 17.1657 35.2289 23.1238 35.2289H31.4968C31.6454 35.2289 31.7796 35.3109 31.8542 35.4394C33.0595 37.5157 35.5687 38.995 38.8641 39.8467C39.2715 39.952 39.5451 39.4446 39.2407 39.1541C38.0096 37.9789 37.405 36.8178 37.3033 35.6808C37.2817 35.4388 37.4688 35.229 37.7118 35.229C43.6699 35.2289 48.5 30.3988 48.5 24.4406V16.7883C48.5 10.8301 43.6699 6 37.7118 6Z" fill="url(#paint4_linear_0_422)"/>
<path d="M37.7118 6H28.0336V35.2289H31.4968C31.6453 35.2289 31.7795 35.3109 31.8541 35.4394C33.0595 37.5157 35.5686 38.995 38.864 39.8466C39.2714 39.9519 39.545 39.4445 39.2406 39.154C38.0096 37.9788 37.4049 36.8177 37.3033 35.6807C37.2816 35.4387 37.4687 35.2289 37.7117 35.2289C43.67 35.2289 48.5 30.3988 48.5 24.4406V16.7883C48.5 10.8301 43.67 6 37.7118 6Z" fill="url(#paint5_linear_0_422)"/>
<path d="M48.5 16.9654V24.4406C48.5 30.3988 43.6699 35.2289 37.7118 35.2289C37.4688 35.2289 37.2818 35.4388 37.3033 35.6808C37.405 36.8178 38.0096 37.9789 39.2407 39.1541C39.5451 39.4447 39.2715 39.952 38.8641 39.8467C35.5687 38.995 33.0595 37.5157 31.8542 35.4394C31.7796 35.3108 31.6454 35.2289 31.4968 35.2289H23.1238C17.1657 35.2289 12.3356 30.3988 12.3356 24.4406V16.9654H48.5Z" fill="url(#paint6_linear_0_422)"/>
<path d="M35.3873 29.5703C35.3873 24.8111 31.5292 20.9529 26.7699 20.9529H15.1174C14.144 20.9529 13.2083 21.1145 12.3356 21.412V24.4406C12.3356 30.3988 17.1657 35.2289 23.1238 35.2289H31.4968C31.6454 35.2289 31.7796 35.3109 31.8542 35.4394C32.522 36.5897 33.5906 37.5564 34.9707 38.335C35.2474 37.4781 35.3879 36.5832 35.3873 35.6828V29.5703Z" fill="url(#paint7_linear_0_422)"/>
<path d="M42.6981 23.9457H18.1375C17.7976 23.9457 17.5222 24.2212 17.5222 24.561C17.5222 24.9007 17.7976 25.1762 18.1375 25.1762H42.6981C43.038 25.1762 43.3133 24.9007 43.3133 24.561C43.3133 24.2212 43.038 23.9457 42.6981 23.9457Z" fill="url(#paint8_linear_0_422)"/>
<path d="M33.3124 28.3316H18.1375C17.7976 28.3316 17.5222 28.6071 17.5222 28.9468C17.5222 29.2866 17.7976 29.5621 18.1375 29.5621H33.3124C33.6523 29.5621 33.9276 29.2866 33.9276 28.9468C33.9276 28.6071 33.6523 28.3316 33.3124 28.3316Z" fill="url(#paint9_linear_0_422)"/>
<path d="M20.3906 18.9179L22.2777 19.5087C22.7823 19.6667 23.2964 19.2932 23.3021 18.7644L23.3233 16.7871C23.3251 16.6264 23.3759 16.47 23.4689 16.3389L24.6139 14.7267C24.9201 14.2957 24.7238 13.6913 24.2226 13.5225L22.3487 12.8913C22.1964 12.8399 22.0633 12.7433 21.9674 12.6143L20.788 11.0271C20.4726 10.6027 19.8372 10.6027 19.5218 11.0271L18.3425 12.6142C18.2466 12.7432 18.1136 12.8399 17.9612 12.8912L16.0873 13.5224C15.5861 13.6913 15.3898 14.2956 15.696 14.7267L16.841 16.3388C16.9341 16.4699 16.9849 16.6263 16.9867 16.787L17.0079 18.7643C17.0136 19.2931 17.5277 19.6666 18.0323 19.5086L19.9194 18.9178C20.0728 18.8698 20.2372 18.8698 20.3906 18.9179Z" fill="url(#paint10_linear_0_422)"/>
<path d="M15.6286 13.9274C15.5102 14.1741 15.5199 14.4789 15.6958 14.7267L16.8408 16.3388C16.9339 16.4699 16.9847 16.6263 16.9865 16.787L17.0077 18.7643C17.0134 19.2931 17.5275 19.6666 18.0321 19.5086L19.9192 18.9178C20.0726 18.8697 20.2371 18.8697 20.3905 18.9178L22.2776 19.5086C22.7822 19.6666 23.2963 19.2931 23.302 18.7643L23.3232 16.787C23.3241 16.7096 23.3365 16.6332 23.3594 16.5601L15.6286 13.9274Z" fill="url(#paint11_linear_0_422)"/>
<path d="M24.6814 13.9274C24.7998 14.1741 24.7901 14.4789 24.6142 14.7267L23.4692 16.3388C23.3761 16.4699 23.3253 16.6263 23.3235 16.787L23.3022 18.7643C23.2966 19.2931 22.7825 19.6666 22.2778 19.5086L20.3908 18.9178C20.2373 18.8697 20.0729 18.8697 19.9194 18.9178L18.0324 19.5086C17.5278 19.6666 17.0136 19.2931 17.008 18.7643L16.9867 16.787C16.9858 16.71 16.9737 16.6336 16.9506 16.5601L24.6814 13.9274Z" fill="url(#paint12_linear_0_422)"/>
<path d="M24.2227 13.5224L22.3488 12.8912C22.1964 12.8398 22.0634 12.7432 21.9675 12.6142L20.788 11.027C20.7149 10.928 20.6195 10.8476 20.5095 10.7923C20.3995 10.737 20.278 10.7084 20.1549 10.7087V18.8818C20.2344 18.8818 20.3139 18.8938 20.3906 18.9179L22.2776 19.5086C22.7822 19.6666 23.2964 19.2932 23.302 18.7644L23.3233 16.7871C23.325 16.6263 23.3758 16.47 23.4689 16.3389L24.6139 14.7267C24.9202 14.2956 24.7238 13.6912 24.2227 13.5224Z" fill="url(#paint13_linear_0_422)"/>
<path d="M24.2227 13.5224L22.3488 12.8912C22.1964 12.8398 22.0634 12.7432 21.9675 12.6142L20.788 11.027C20.7149 10.928 20.6195 10.8476 20.5095 10.7923C20.3995 10.737 20.278 10.7084 20.1549 10.7087V18.8818C20.2344 18.8818 20.3139 18.8938 20.3906 18.9179L22.2776 19.5086C22.7822 19.6666 23.2964 19.2932 23.302 18.7644L23.3233 16.7871C23.325 16.6263 23.3758 16.47 23.4689 16.3389L24.6139 14.7267C24.9202 14.2956 24.7238 13.6912 24.2227 13.5224Z" fill="url(#paint14_linear_0_422)"/>
<path d="M16.9539 16.5725C16.9743 16.6418 16.9858 16.7139 16.9865 16.787L17.0078 18.7643C17.0134 19.2931 17.5275 19.6666 18.0322 19.5086L19.9192 18.9178C20.0726 18.8697 20.2371 18.8697 20.3906 18.9178L22.2776 19.5086C22.7822 19.6666 23.2964 19.2931 23.302 18.7643L23.3233 16.787C23.3241 16.7139 23.3355 16.6418 23.3559 16.5725H16.9539Z" fill="url(#paint15_linear_0_422)"/>
<path d="M20.2906 17.3079L21.3762 17.6477C21.6665 17.7386 21.9622 17.5237 21.9655 17.2195L21.9777 16.082C21.9787 15.9895 22.0079 15.8995 22.0614 15.8241L22.7202 14.8966C22.8963 14.6486 22.7833 14.3009 22.4951 14.2039L21.417 13.8407C21.3293 13.8112 21.2528 13.7556 21.1977 13.6813L20.5192 12.7683C20.3377 12.5242 19.9722 12.5242 19.7907 12.7683L19.1123 13.6814C19.0571 13.7556 18.9805 13.8112 18.8929 13.8408L17.8149 14.204C17.5266 14.3011 17.4136 14.6487 17.5898 14.8967L18.2485 15.8242C18.302 15.8996 18.3313 15.9896 18.3322 16.0821L18.3444 17.2196C18.3477 17.5238 18.6435 17.7386 18.9338 17.6478L20.0194 17.3079C20.1076 17.2802 20.2023 17.2802 20.2906 17.3079Z" fill="url(#paint16_linear_0_422)"/>
<path d="M30.6534 18.9179L32.5405 19.5087C33.045 19.6667 33.5591 19.2932 33.5649 18.7644L33.5861 16.7871C33.5878 16.6264 33.6386 16.47 33.7317 16.3389L34.8767 14.7267C35.1828 14.2957 34.9865 13.6913 34.4854 13.5225L32.6115 12.8913C32.4592 12.8399 32.3261 12.7433 32.2302 12.6143L31.0508 11.0271C30.7354 10.6027 30.0999 10.6027 29.7845 11.0271L28.6052 12.6142C28.5093 12.7432 28.3763 12.8399 28.2239 12.8912L26.35 13.5224C25.8488 13.6913 25.6525 14.2956 25.9587 14.7267L27.1037 16.3388C27.1967 16.4699 27.2476 16.6263 27.2494 16.787L27.2706 18.7643C27.2763 19.2931 27.7904 19.6666 28.295 19.5086L30.1821 18.9178C30.3355 18.8698 30.5 18.8698 30.6534 18.9179Z" fill="url(#paint17_linear_0_422)"/>
<path d="M25.8916 13.9274C25.7731 14.1741 25.7828 14.4789 25.9588 14.7267L27.1037 16.3388C27.1968 16.4699 27.2476 16.6263 27.2494 16.787L27.2707 18.7643C27.2763 19.2931 27.7904 19.6666 28.2951 19.5086L30.1821 18.9178C30.3356 18.8697 30.5 18.8697 30.6535 18.9178L32.5405 19.5086C33.0451 19.6666 33.5593 19.2931 33.5649 18.7643L33.5862 16.787C33.587 16.7096 33.5995 16.6332 33.6224 16.5601L25.8916 13.9274Z" fill="url(#paint18_linear_0_422)"/>
<path d="M34.9442 13.9274C35.0626 14.1741 35.0529 14.4789 34.877 14.7267L33.732 16.3388C33.6389 16.4699 33.5881 16.6263 33.5863 16.787L33.5651 18.7643C33.5594 19.2931 33.0453 19.6666 32.5407 19.5086L30.6536 18.9178C30.5002 18.8697 30.3357 18.8697 30.1823 18.9178L28.2952 19.5086C27.7906 19.6666 27.2765 19.2931 27.2708 18.7643L27.2496 16.787C27.2487 16.71 27.2365 16.6336 27.2134 16.5601L34.9442 13.9274Z" fill="url(#paint19_linear_0_422)"/>
<path d="M34.4855 13.5224L32.6116 12.8912C32.4592 12.8398 32.3262 12.7432 32.2303 12.6142L31.0508 11.027C30.9777 10.928 30.8823 10.8476 30.7723 10.7923C30.6623 10.737 30.5408 10.7084 30.4177 10.7087V18.8818C30.4972 18.8818 30.5767 18.8938 30.6534 18.9179L32.5404 19.5086C33.045 19.6666 33.5592 19.2932 33.5649 18.7644L33.5861 16.7871C33.5878 16.6263 33.6386 16.47 33.7317 16.3389L34.8767 14.7267C35.183 14.2956 34.9866 13.6912 34.4855 13.5224Z" fill="url(#paint20_linear_0_422)"/>
<path d="M34.4855 13.5224L32.6116 12.8912C32.4592 12.8398 32.3262 12.7432 32.2303 12.6142L31.0508 11.027C30.9777 10.928 30.8823 10.8476 30.7723 10.7923C30.6623 10.737 30.5408 10.7084 30.4177 10.7087V18.8818C30.4972 18.8818 30.5767 18.8938 30.6534 18.9179L32.5404 19.5086C33.045 19.6666 33.5592 19.2932 33.5649 18.7644L33.5861 16.7871C33.5878 16.6263 33.6386 16.47 33.7317 16.3389L34.8767 14.7267C35.183 14.2956 34.9866 13.6912 34.4855 13.5224Z" fill="url(#paint21_linear_0_422)"/>
<path d="M27.2167 16.5725C27.2371 16.6418 27.2486 16.7139 27.2493 16.787L27.2706 18.7643C27.2762 19.2931 27.7903 19.6666 28.295 19.5086L30.182 18.9178C30.3355 18.8697 30.4999 18.8697 30.6534 18.9178L32.5404 19.5086C33.045 19.6666 33.5592 19.2931 33.5648 18.7643L33.5861 16.787C33.5869 16.7139 33.5983 16.6418 33.6187 16.5725H27.2167Z" fill="url(#paint22_linear_0_422)"/>
<path d="M30.5534 17.3078L31.639 17.6477C31.9293 17.7386 32.225 17.5237 32.2283 17.2195L32.2405 16.082C32.2415 15.9895 32.2708 15.8995 32.3243 15.8241L32.983 14.8966C33.1591 14.6486 33.0461 14.3009 32.7579 14.2039L31.6798 13.8407C31.5922 13.8112 31.5156 13.7556 31.4605 13.6813L30.782 12.7682C30.6005 12.5241 30.235 12.5241 30.0536 12.7682L29.3751 13.6813C29.3199 13.7556 29.2434 13.8112 29.1557 13.8407L28.0777 14.2039C27.7894 14.301 27.6765 14.6486 27.8526 14.8966L28.5113 15.8241C28.5649 15.8995 28.5941 15.9895 28.595 16.082L28.6073 17.2195C28.6105 17.5237 28.9063 17.7385 29.1966 17.6477L30.2822 17.3078C30.3705 17.2802 30.4651 17.2802 30.5534 17.3078Z" fill="url(#paint23_linear_0_422)"/>
<path d="M40.9164 18.9179L42.8034 19.5087C43.308 19.6667 43.8221 19.2932 43.8278 18.7644L43.8491 16.7871C43.8508 16.6263 43.9016 16.4699 43.9947 16.3389L45.1397 14.7267C45.4459 14.2957 45.2496 13.6913 44.7484 13.5225L42.8745 12.8913C42.7222 12.8399 42.5891 12.7433 42.4932 12.6143L41.3138 11.0271C40.9984 10.6027 40.363 10.6027 40.0476 11.0271L38.8681 12.6142C38.7722 12.7432 38.6392 12.8399 38.4868 12.8912L36.6129 13.5224C36.1118 13.6913 35.9155 14.2956 36.2216 14.7267L37.3666 16.3388C37.4597 16.4699 37.5105 16.6263 37.5123 16.787L37.5335 18.7643C37.5392 19.2931 38.0533 19.6666 38.558 19.5086L40.445 18.9178C40.5985 18.8698 40.7629 18.8698 40.9164 18.9179Z" fill="url(#paint24_linear_0_422)"/>
<path d="M36.1544 13.9274C36.0359 14.1741 36.0456 14.4789 36.2216 14.7267L37.3666 16.3388C37.4596 16.4699 37.5105 16.6263 37.5122 16.787L37.5335 18.7643C37.5392 19.2931 38.0532 19.6666 38.5579 19.5086L40.4449 18.9178C40.5984 18.8697 40.7629 18.8697 40.9163 18.9178L42.8033 19.5086C43.3079 19.6666 43.8221 19.2931 43.8278 18.7643L43.849 16.787C43.8498 16.7096 43.8623 16.6332 43.8852 16.5601L36.1544 13.9274Z" fill="url(#paint25_linear_0_422)"/>
<path d="M45.207 13.9274C45.3254 14.1741 45.3158 14.4789 45.1398 14.7267L43.9948 16.3388C43.9017 16.4699 43.8509 16.6263 43.8491 16.787L43.8279 18.7643C43.8222 19.2931 43.3081 19.6666 42.8035 19.5086L40.9164 18.9178C40.763 18.8697 40.5985 18.8697 40.4451 18.9178L38.558 19.5086C38.0535 19.6666 37.5393 19.2931 37.5336 18.7643L37.5124 16.787C37.5115 16.71 37.4993 16.6336 37.4762 16.5601L45.207 13.9274Z" fill="url(#paint26_linear_0_422)"/>
<path d="M44.7484 13.5224L42.8745 12.8912C42.7222 12.8398 42.5891 12.7432 42.4932 12.6142L41.3138 11.027C41.2407 10.928 41.1452 10.8476 41.0352 10.7923C40.9252 10.737 40.8038 10.7084 40.6807 10.7087V18.8818C40.7602 18.8818 40.8396 18.8938 40.9163 18.9179L42.8034 19.5086C43.308 19.6666 43.8221 19.2932 43.8278 18.7644L43.849 16.7871C43.8508 16.6263 43.9016 16.47 43.9946 16.3389L45.1396 14.7267C45.4459 14.2956 45.2496 13.6912 44.7484 13.5224Z" fill="url(#paint27_linear_0_422)"/>
<path d="M44.7484 13.5224L42.8745 12.8912C42.7222 12.8398 42.5891 12.7432 42.4932 12.6142L41.3138 11.027C41.2407 10.928 41.1452 10.8476 41.0352 10.7923C40.9252 10.737 40.8038 10.7084 40.6807 10.7087V18.8818C40.7602 18.8818 40.8396 18.8938 40.9163 18.9179L42.8034 19.5086C43.308 19.6666 43.8221 19.2932 43.8278 18.7644L43.849 16.7871C43.8508 16.6263 43.9016 16.47 43.9946 16.3389L45.1396 14.7267C45.4459 14.2956 45.2496 13.6912 44.7484 13.5224Z" fill="url(#paint28_linear_0_422)"/>
<path d="M37.4795 16.5725C37.4999 16.6418 37.5114 16.7139 37.5121 16.787L37.5334 18.7643C37.539 19.2931 38.0531 19.6666 38.5578 19.5086L40.4448 18.9178C40.5983 18.8697 40.7628 18.8697 40.9162 18.9178L42.8032 19.5086C43.3078 19.6666 43.822 19.2931 43.8276 18.7643L43.8489 16.787C43.8497 16.7139 43.8611 16.6418 43.8815 16.5725H37.4795Z" fill="url(#paint29_linear_0_422)"/>
<path d="M40.8162 17.3078L41.9018 17.6477C42.1921 17.7386 42.4878 17.5237 42.4911 17.2195L42.5033 16.082C42.5044 15.9895 42.5336 15.8995 42.5871 15.8241L43.2458 14.8966C43.4219 14.6486 43.309 14.3009 43.0207 14.2039L41.9426 13.8407C41.855 13.8112 41.7784 13.7556 41.7233 13.6813L41.0448 12.7682C40.8634 12.5241 40.4978 12.5241 40.3164 12.7682L39.6379 13.6813C39.5827 13.7556 39.5062 13.8112 39.4185 13.8407L38.3405 14.2039C38.0522 14.301 37.9393 14.6486 38.1154 14.8966L38.7741 15.8241C38.8277 15.8995 38.8569 15.9895 38.8579 16.082L38.8701 17.2195C38.8734 17.5237 39.1691 17.7385 39.4594 17.6477L40.545 17.3078C40.6333 17.2802 40.7279 17.2802 40.8162 17.3078Z" fill="url(#paint30_linear_0_422)"/>
</g>
<defs>
<filter id="filter0_d_0_422" x="0.5" y="0" width="66" height="66" filterUnits="userSpaceOnUse" color-interpolation-filters="sRGB">
<feFlood flood-opacity="0" result="BackgroundImageFix"/>
<feColorMatrix in="SourceAlpha" type="matrix" values="0 0 0 0 0 0 0 0 0 0 0 0 0 0 0 0 0 0 127 0" result="hardAlpha"/>
<feOffset dx="6" dy="6"/>
<feGaussianBlur stdDeviation="6"/>
<feColorMatrix type="matrix" values="0 0 0 0 0 0 0 0 0 0 0 0 0 0 0 0 0 0 0.35 0"/>
<feBlend mode="normal" in2="BackgroundImageFix" result="effect1_dropShadow_0_422"/>
<feBlend mode="normal" in="SourceGraphic" in2="effect1_dropShadow_0_422" result="shape"/>
</filter>
<linearGradient id="paint0_linear_0_422" x1="15.819" y1="22.3772" x2="25.0266" y2="40.7925" gradientUnits="userSpaceOnUse">
<stop stop-color="#C9F6B0"/>
<stop offset="1" stop-color="#0BB494"/>
</linearGradient>
<linearGradient id="paint1_linear_0_422" x1="20.9437" y1="37.8569" x2="20.9437" y2="45.1942" gradientUnits="userSpaceOnUse">
<stop stop-color="#00A887" stop-opacity="0"/>
<stop offset="0.36" stop-color="#01A58C" stop-opacity="0.36"/>
<stop offset="0.794" stop-color="#069C9A" stop-opacity="0.795"/>
<stop offset="1" stop-color="#0996A4"/>
</linearGradient>
<linearGradient id="paint2_linear_0_422" x1="29.8354" y1="32.8236" x2="35.4439" y2="32.8236" gradientUnits="userSpaceOnUse">
<stop stop-color="#00A887" stop-opacity="0"/>
<stop offset="0.36" stop-color="#01A58C" stop-opacity="0.36"/>
<stop offset="0.794" stop-color="#069C9A" stop-opacity="0.795"/>
<stop offset="1" stop-color="#0996A4"/>
</linearGradient>
<linearGradient id="paint3_linear_0_422" x1="25.2033" y1="43.0995" x2="25.4862" y2="33.3406" gradientUnits="userSpaceOnUse">
<stop stop-color="#00A887" stop-opacity="0"/>
<stop offset="0.36" stop-color="#01A58C" stop-opacity="0.36"/>
<stop offset="0.794" stop-color="#069C9A" stop-opacity="0.795"/>
<stop offset="1" stop-color="#0996A4"/>
</linearGradient>
<linearGradient id="paint4_linear_0_422" x1="25.5543" y1="9.61545" x2="36.9574" y2="35.4041" gradientUnits="userSpaceOnUse">
<stop stop-color="#F5FBFF"/>
<stop offset="1" stop-color="#D8ECFE"/>
</linearGradient>
<linearGradient id="paint5_linear_0_422" x1="41.3665" y1="22.9304" x2="48.3882" y2="22.9304" gradientUnits="userSpaceOnUse">
<stop stop-color="#B3DAFE" stop-opacity="0"/>
<stop offset="0.431" stop-color="#B1D9FE" stop-opacity="0.432"/>
<stop offset="0.666" stop-color="#A9D6FE" stop-opacity="0.666"/>
<stop offset="0.852" stop-color="#9BD0FE" stop-opacity="0.852"/>
<stop offset="1" stop-color="#8AC9FE"/>
</linearGradient>
<linearGradient id="paint6_linear_0_422" x1="30.4178" y1="27.1625" x2="30.4178" y2="36.3481" gradientUnits="userSpaceOnUse">
<stop stop-color="#B3DAFE" stop-opacity="0"/>
<stop offset="0.431" stop-color="#B1D9FE" stop-opacity="0.432"/>
<stop offset="0.666" stop-color="#A9D6FE" stop-opacity="0.666"/>
<stop offset="0.852" stop-color="#9BD0FE" stop-opacity="0.852"/>
<stop offset="1" stop-color="#8AC9FE"/>
</linearGradient>
<linearGradient id="paint7_linear_0_422" x1="15.5709" y1="14.7761" x2="30.7458" y2="37.7578" gradientUnits="userSpaceOnUse">
<stop stop-color="#B3DAFE" stop-opacity="0"/>
<stop offset="0.431" stop-color="#B1D9FE" stop-opacity="0.432"/>
<stop offset="0.666" stop-color="#A9D6FE" stop-opacity="0.666"/>
<stop offset="0.852" stop-color="#9BD0FE" stop-opacity="0.852"/>
<stop offset="1" stop-color="#8AC9FE"/>
</linearGradient>
<linearGradient id="paint8_linear_0_422" x1="22.5338" y1="11.7783" x2="35.2618" y2="32.4149" gradientUnits="userSpaceOnUse">
<stop stop-color="#5A5A5A"/>
<stop offset="1" stop-color="#444444"/>
</linearGradient>
<linearGradient id="paint9_linear_0_422" x1="14.4283" y1="10.631" x2="30.7251" y2="37.054" gradientUnits="userSpaceOnUse">
<stop stop-color="#5A5A5A"/>
<stop offset="1" stop-color="#444444"/>
</linearGradient>
<linearGradient id="paint10_linear_0_422" x1="18.6917" y1="14.3205" x2="23.6582" y2="19.287" gradientUnits="userSpaceOnUse">
<stop stop-color="#FEF0AE"/>
<stop offset="1" stop-color="#FAC600"/>
</linearGradient>
<linearGradient id="paint11_linear_0_422" x1="19.5319" y1="16.2654" x2="20.2572" y2="14.5609" gradientUnits="userSpaceOnUse">
<stop stop-color="#FE9738" stop-opacity="0"/>
<stop offset="1" stop-color="#FE9738"/>
</linearGradient>
<linearGradient id="paint12_linear_0_422" x1="20.7181" y1="15.9962" x2="20.3107" y2="14.7229" gradientUnits="userSpaceOnUse">
<stop stop-color="#FE9738" stop-opacity="0"/>
<stop offset="1" stop-color="#FE9738"/>
</linearGradient>
<linearGradient id="paint13_linear_0_422" x1="20.8476" y1="15.1432" x2="19.3028" y2="15.1941" gradientUnits="userSpaceOnUse">
<stop stop-color="#FE9738" stop-opacity="0"/>
<stop offset="1" stop-color="#FE9738"/>
</linearGradient>
<linearGradient id="paint14_linear_0_422" x1="23.1065" y1="15.7272" x2="24.2307" y2="16.0898" gradientUnits="userSpaceOnUse">
<stop stop-color="#FE9738" stop-opacity="0"/>
<stop offset="1" stop-color="#FE9738"/>
</linearGradient>
<linearGradient id="paint15_linear_0_422" x1="20.155" y1="18.005" x2="20.155" y2="19.4333" gradientUnits="userSpaceOnUse">
<stop stop-color="#FE9738" stop-opacity="0"/>
<stop offset="1" stop-color="#FE9738"/>
</linearGradient>
<linearGradient id="paint16_linear_0_422" x1="21.8503" y1="17.2001" x2="17.5274" y2="12.8773" gradientUnits="userSpaceOnUse">
<stop stop-color="#FEF0AE"/>
<stop offset="1" stop-color="#FAC600"/>
</linearGradient>
<linearGradient id="paint17_linear_0_422" x1="28.9545" y1="14.3205" x2="33.921" y2="19.287" gradientUnits="userSpaceOnUse">
<stop stop-color="#FEF0AE"/>
<stop offset="1" stop-color="#FAC600"/>
</linearGradient>
<linearGradient id="paint18_linear_0_422" x1="29.7949" y1="16.2654" x2="30.5202" y2="14.5609" gradientUnits="userSpaceOnUse">
<stop stop-color="#FE9738" stop-opacity="0"/>
<stop offset="1" stop-color="#FE9738"/>
</linearGradient>
<linearGradient id="paint19_linear_0_422" x1="30.9809" y1="15.9962" x2="30.5735" y2="14.7229" gradientUnits="userSpaceOnUse">
<stop stop-color="#FE9738" stop-opacity="0"/>
<stop offset="1" stop-color="#FE9738"/>
</linearGradient>
<linearGradient id="paint20_linear_0_422" x1="31.1104" y1="15.1432" x2="29.5655" y2="15.1941" gradientUnits="userSpaceOnUse">
<stop stop-color="#FE9738" stop-opacity="0"/>
<stop offset="1" stop-color="#FE9738"/>
</linearGradient>
<linearGradient id="paint21_linear_0_422" x1="33.3693" y1="15.7272" x2="34.4935" y2="16.0898" gradientUnits="userSpaceOnUse">
<stop stop-color="#FE9738" stop-opacity="0"/>
<stop offset="1" stop-color="#FE9738"/>
</linearGradient>
<linearGradient id="paint22_linear_0_422" x1="30.4178" y1="18.005" x2="30.4178" y2="19.4333" gradientUnits="userSpaceOnUse">
<stop stop-color="#FE9738" stop-opacity="0"/>
<stop offset="1" stop-color="#FE9738"/>
</linearGradient>
<linearGradient id="paint23_linear_0_422" x1="32.1131" y1="17.2001" x2="27.7902" y2="12.8773" gradientUnits="userSpaceOnUse">
<stop stop-color="#FEF0AE"/>
<stop offset="1" stop-color="#FAC600"/>
</linearGradient>
<linearGradient id="paint24_linear_0_422" x1="39.2174" y1="14.3205" x2="44.1839" y2="19.287" gradientUnits="userSpaceOnUse">
<stop stop-color="#FEF0AE"/>
<stop offset="1" stop-color="#FAC600"/>
</linearGradient>
<linearGradient id="paint25_linear_0_422" x1="40.0577" y1="16.2654" x2="40.7829" y2="14.5609" gradientUnits="userSpaceOnUse">
<stop stop-color="#FE9738" stop-opacity="0"/>
<stop offset="1" stop-color="#FE9738"/>
</linearGradient>
<linearGradient id="paint26_linear_0_422" x1="41.2437" y1="15.9962" x2="40.8363" y2="14.7229" gradientUnits="userSpaceOnUse">
<stop stop-color="#FE9738" stop-opacity="0"/>
<stop offset="1" stop-color="#FE9738"/>
</linearGradient>
<linearGradient id="paint27_linear_0_422" x1="41.3733" y1="15.1432" x2="39.8284" y2="15.1941" gradientUnits="userSpaceOnUse">
<stop stop-color="#FE9738" stop-opacity="0"/>
<stop offset="1" stop-color="#FE9738"/>
</linearGradient>
<linearGradient id="paint28_linear_0_422" x1="43.6322" y1="15.7272" x2="44.7565" y2="16.0898" gradientUnits="userSpaceOnUse">
<stop stop-color="#FE9738" stop-opacity="0"/>
<stop offset="1" stop-color="#FE9738"/>
</linearGradient>
<linearGradient id="paint29_linear_0_422" x1="40.6806" y1="18.005" x2="40.6806" y2="19.4333" gradientUnits="userSpaceOnUse">
<stop stop-color="#FE9738" stop-opacity="0"/>
<stop offset="1" stop-color="#FE9738"/>
</linearGradient>
<linearGradient id="paint30_linear_0_422" x1="42.3759" y1="17.2001" x2="38.0531" y2="12.8773" gradientUnits="userSpaceOnUse">
<stop stop-color="#FEF0AE"/>
<stop offset="1" stop-color="#FAC600"/>
</linearGradient>
<clipPath id="clip0_0_422">
<rect width="42" height="42" fill="white" transform="translate(6.5 6)"/>
</clipPath>
</defs>
</svg>
