<svg width="30" height="30" viewBox="0 0 30 30" fill="none" xmlns="http://www.w3.org/2000/svg">
<g clip-path="url(#clip0_1_806)">
<path d="M10.4117 21.809H19.5882V27.4561H10.4117V21.809Z" fill="url(#paint0_linear_1_806)"/>
<path d="M10.4117 21.809H19.5882V27.4561H10.4117V21.809Z" fill="url(#paint1_linear_1_806)"/>
<path d="M10.4117 21.809H19.5882V27.4561H10.4117V21.809Z" fill="url(#paint2_linear_1_806)"/>
<path d="M28.2353 23.1619H1.76471C0.790059 23.1619 0 22.3719 0 21.3972V2.75018C0 1.77553 0.790059 0.985474 1.76471 0.985474H28.2353C29.2099 0.985474 30 1.77553 30 2.75018V21.3972C30 22.3719 29.2099 23.1619 28.2353 23.1619Z" fill="url(#paint3_linear_1_806)"/>
<path d="M28.2353 0.985474H17.4706V23.1619H28.2353C29.2099 23.1619 30 22.3719 30 21.3972V2.75018C30 1.77553 29.2099 0.985474 28.2353 0.985474Z" fill="url(#paint4_linear_1_806)"/>
<path d="M28.2353 0.985474H1.76471C0.790059 0.985474 0 1.77553 0 2.75018V19.5564H30V2.75018C30 1.77553 29.2099 0.985474 28.2353 0.985474Z" fill="url(#paint5_linear_1_806)"/>
<path d="M28.2353 0.985474H17.4706V19.5564H30V2.75018C30 1.77553 29.2099 0.985474 28.2353 0.985474Z" fill="url(#paint6_linear_1_806)"/>
<path d="M0 20.4561V21.3972C0 22.3719 0.790059 23.1619 1.76471 23.1619H28.2353C29.2099 23.1619 30 22.3719 30 21.3972V20.4561H0Z" fill="url(#paint7_linear_1_806)"/>
<path d="M27.4118 2.42665H2.58824C2.00348 2.42665 1.52942 2.90071 1.52942 3.48547V17.0564C1.52942 17.6412 2.00348 18.1152 2.58824 18.1152H27.4118C27.9965 18.1152 28.4706 17.6412 28.4706 17.0564V3.48547C28.4706 2.90071 27.9965 2.42665 27.4118 2.42665Z" fill="url(#paint8_linear_1_806)"/>
<path d="M7.76461 8.68259H3.06632C2.75397 8.68259 2.50073 8.93582 2.50073 9.24817C2.50073 9.56053 2.75397 9.81376 3.06632 9.81376H7.76461C8.07697 9.81376 8.3302 9.56053 8.3302 9.24817C8.3302 8.93582 8.07697 8.68259 7.76461 8.68259Z" fill="url(#paint9_linear_1_806)"/>
<path d="M5.49473 11.2936C5.49473 10.9813 5.2415 10.7281 4.92914 10.7281H3.06632C2.75397 10.7281 2.50073 10.9813 2.50073 11.2936C2.50073 11.4436 2.56032 11.5875 2.66639 11.6936C2.77246 11.7996 2.91632 11.8592 3.06632 11.8592H4.92909C5.2415 11.8592 5.49473 11.6061 5.49473 11.2936Z" fill="url(#paint10_linear_1_806)"/>
<path d="M5.49473 16.1724C5.49473 15.86 5.2415 15.6068 4.92914 15.6068H3.06632C2.75397 15.6068 2.50073 15.86 2.50073 16.1724C2.50073 16.3224 2.56032 16.4662 2.66639 16.5723C2.77246 16.6784 2.91632 16.7379 3.06632 16.7379H4.92909C5.2415 16.7379 5.49473 16.4848 5.49473 16.1724Z" fill="url(#paint11_linear_1_806)"/>
<path d="M7.75441 11.8592C7.90441 11.8592 8.04827 11.7996 8.15434 11.6936C8.26041 11.5875 8.32 11.4436 8.32 11.2936C8.32 11.1436 8.26041 10.9998 8.15434 10.8937C8.04827 10.7876 7.90441 10.7281 7.75441 10.7281H6.65641C6.34406 10.7281 6.09082 10.9813 6.09082 11.2936C6.09082 11.606 6.34406 11.8592 6.65641 11.8592H7.75441Z" fill="url(#paint12_linear_1_806)"/>
<path d="M17.4706 18.1152H27.4118C27.9965 18.1152 28.4706 17.6412 28.4706 17.0564V3.48547C28.4706 2.90071 27.9965 2.42665 27.4118 2.42665H17.4706V18.1152Z" fill="url(#paint13_linear_1_806)"/>
<path d="M21.3464 29.0145H8.65353C8.29171 29.0145 7.99841 28.7212 7.99841 28.3594C7.99841 27.238 8.90753 26.3289 10.0289 26.3289H19.971C21.0924 26.3289 22.0015 27.238 22.0015 28.3594C22.0015 28.7212 21.7082 29.0145 21.3464 29.0145Z" fill="url(#paint14_linear_1_806)"/>
<path d="M21.3464 29.0145H8.65353C8.29171 29.0145 7.99841 28.7212 7.99841 28.3594C7.99841 27.238 8.90753 26.3289 10.0289 26.3289H19.971C21.0924 26.3289 22.0015 27.238 22.0015 28.3594C22.0015 28.7212 21.7082 29.0145 21.3464 29.0145Z" fill="url(#paint15_linear_1_806)"/>
<path d="M15.7226 7.15977L12.5548 3.992H8.75V7.8443L11.3278 10.4222H15.7226V7.15977Z" fill="url(#paint16_linear_1_806)"/>
<path d="M28.4705 17.0564V11.0661L21.3397 3.9353L8.66443 16.6106L10.169 18.1152H27.4117C27.9965 18.1152 28.4705 17.6412 28.4705 17.0564Z" fill="url(#paint17_linear_1_806)"/>
<path d="M18.106 14.3592H11.8939C11.3514 14.3592 10.9117 13.9194 10.9117 13.377V7.16489C10.9117 6.62241 11.3515 6.18271 11.8939 6.18271H18.106C18.6485 6.18271 19.0882 6.62247 19.0882 7.16489V13.377C19.0882 13.9194 18.6484 14.3592 18.106 14.3592Z" fill="url(#paint18_linear_1_806)"/>
<path d="M13.2371 12.0377L15.5594 14.3594H11.8941C11.6235 14.3594 11.3794 14.25 11.2018 14.0735L13.2371 12.0377Z" fill="url(#paint19_linear_1_806)"/>
<path d="M19.0882 7.1647V10.8294L16.7665 8.50823L18.8024 6.47235C18.9788 6.65 19.0882 6.8947 19.0882 7.1647Z" fill="url(#paint20_linear_1_806)"/>
<path d="M10.0393 4.68629H12.1938C12.3108 4.68629 12.4231 4.63981 12.5058 4.55708C12.5885 4.47434 12.635 4.36212 12.635 4.24512C12.635 4.12811 12.5885 4.01589 12.5058 3.93316C12.4231 3.85042 12.3108 3.80394 12.1938 3.80394H8.97414C8.85713 3.80394 8.74491 3.85042 8.66218 3.93316C8.57944 4.01589 8.53296 4.12811 8.53296 4.24512V7.46482C8.53296 7.58183 8.57944 7.69405 8.66218 7.77678C8.74491 7.85952 8.85713 7.906 8.97414 7.906C9.09114 7.906 9.20336 7.85952 9.28609 7.77678C9.36883 7.69405 9.41531 7.58183 9.41531 7.46482V5.31018L12.6114 8.50623C12.6975 8.59235 12.8104 8.63547 12.9233 8.63547C13.0362 8.63547 13.1491 8.59241 13.2353 8.50623C13.318 8.4235 13.3645 8.31129 13.3645 8.19429C13.3645 8.07729 13.318 7.96509 13.2353 7.88235L10.0393 4.68629ZM21.0258 12.6359C20.9088 12.6359 20.7966 12.6824 20.7139 12.7651C20.6311 12.8478 20.5847 12.9601 20.5847 13.0771V15.2316L17.3886 12.0356C17.3025 11.9495 17.1895 11.9064 17.0767 11.9064C16.9638 11.9064 16.8508 11.9494 16.7647 12.0356C16.682 12.1183 16.6355 12.2305 16.6355 12.3475C16.6355 12.4645 16.682 12.5767 16.7647 12.6595L19.9608 15.8555H17.8062C17.6892 15.8555 17.577 15.902 17.4942 15.9847C17.4115 16.0675 17.365 16.1797 17.365 16.2967C17.365 16.4137 17.4115 16.5259 17.4942 16.6087C17.577 16.6914 17.6892 16.7379 17.8062 16.7379H21.0259C21.1429 16.7379 21.2551 16.6914 21.3379 16.6087C21.4206 16.5259 21.4671 16.4137 21.4671 16.2967V13.0771C21.467 12.9601 21.4205 12.8478 21.3378 12.7651C21.2551 12.6824 21.1429 12.6359 21.0258 12.6359ZM21.0258 3.80394H17.8061C17.6891 3.80394 17.5769 3.85042 17.4942 3.93316C17.4114 4.01589 17.365 4.12811 17.365 4.24512C17.365 4.36212 17.4114 4.47434 17.4942 4.55708C17.5769 4.63981 17.6891 4.68629 17.8061 4.68629H19.9607L16.7647 7.88235C16.703 7.94405 16.661 8.02266 16.6439 8.10823C16.6269 8.19381 16.6357 8.28251 16.669 8.36312C16.7024 8.44373 16.759 8.51263 16.8315 8.56111C16.9041 8.60958 16.9894 8.63546 17.0766 8.63547C17.1346 8.63555 17.1919 8.62417 17.2455 8.60199C17.299 8.57981 17.3476 8.54727 17.3885 8.50623L20.5846 5.31018V7.46476C20.5846 7.58177 20.6311 7.69399 20.7138 7.77672C20.7966 7.85946 20.9088 7.90594 21.0258 7.90594C21.1428 7.90594 21.255 7.85946 21.3377 7.77672C21.4205 7.69399 21.467 7.58177 21.467 7.46476V4.24512C21.467 4.18718 21.4556 4.12982 21.4334 4.07629C21.4112 4.02276 21.3787 3.97413 21.3378 3.93316C21.2968 3.89219 21.2482 3.8597 21.1947 3.83752C21.1411 3.81535 21.0838 3.80394 21.0258 3.80394ZM12.9234 11.9064C12.8654 11.9063 12.808 11.9177 12.7545 11.9398C12.701 11.962 12.6523 11.9946 12.6114 12.0356L9.41537 15.2316V13.0771C9.41537 12.9601 9.36889 12.8478 9.28615 12.7651C9.20342 12.6824 9.0912 12.6359 8.97419 12.6359C8.85719 12.6359 8.74497 12.6824 8.66224 12.7651C8.5795 12.8478 8.53302 12.9601 8.53302 13.0771V16.2968C8.53302 16.4138 8.5795 16.526 8.66224 16.6087C8.74497 16.6915 8.85719 16.7379 8.97419 16.7379H12.1939C12.3109 16.7379 12.4231 16.6915 12.5059 16.6087C12.5886 16.526 12.6351 16.4138 12.6351 16.2968C12.6351 16.1798 12.5886 16.0675 12.5059 15.9848C12.4231 15.9021 12.3109 15.8556 12.1939 15.8556H10.0393L13.2354 12.6595C13.3181 12.5768 13.3646 12.4646 13.3646 12.3476C13.3646 12.2306 13.3181 12.1184 13.2354 12.0356C13.1945 11.9946 13.1458 11.962 13.0923 11.9399C13.0387 11.9177 12.9813 11.9063 12.9234 11.9064Z" fill="white"/>
</g>
<defs>
<linearGradient id="paint0_linear_1_806" x1="16.7911" y1="24.6325" x2="19.8352" y2="24.6325" gradientUnits="userSpaceOnUse">
<stop stop-color="#F9F5F3"/>
<stop offset="1" stop-color="#EFE2DD"/>
</linearGradient>
<linearGradient id="paint1_linear_1_806" x1="15" y1="25.3188" x2="15" y2="22.2185" gradientUnits="userSpaceOnUse">
<stop stop-color="#9E9797" stop-opacity="0"/>
<stop offset="0.356" stop-color="#9B9494" stop-opacity="0.356"/>
<stop offset="0.628" stop-color="#928B8B" stop-opacity="0.629"/>
<stop offset="0.872" stop-color="#827A7A" stop-opacity="0.872"/>
<stop offset="1" stop-color="#766E6E"/>
</linearGradient>
<linearGradient id="paint2_linear_1_806" x1="15" y1="24.3777" x2="15" y2="27.3673" gradientUnits="userSpaceOnUse">
<stop stop-color="#9E9797" stop-opacity="0"/>
<stop offset="0.356" stop-color="#9B9494" stop-opacity="0.356"/>
<stop offset="0.628" stop-color="#928B8B" stop-opacity="0.629"/>
<stop offset="0.872" stop-color="#827A7A" stop-opacity="0.872"/>
<stop offset="1" stop-color="#766E6E"/>
</linearGradient>
<linearGradient id="paint3_linear_1_806" x1="9.40929" y1="0.108591" x2="19.3881" y2="21.4649" gradientUnits="userSpaceOnUse">
<stop stop-color="#F9F5F3"/>
<stop offset="1" stop-color="#EFE2DD"/>
</linearGradient>
<linearGradient id="paint4_linear_1_806" x1="26.8823" y1="12.0737" x2="30.1765" y2="12.0737" gradientUnits="userSpaceOnUse">
<stop stop-color="#9E9797" stop-opacity="0"/>
<stop offset="0.356" stop-color="#9B9494" stop-opacity="0.356"/>
<stop offset="0.628" stop-color="#928B8B" stop-opacity="0.629"/>
<stop offset="0.872" stop-color="#827A7A" stop-opacity="0.872"/>
<stop offset="1" stop-color="#766E6E"/>
</linearGradient>
<linearGradient id="paint5_linear_1_806" x1="10.7578" y1="-1.07188" x2="18.5634" y2="21.1439" gradientUnits="userSpaceOnUse">
<stop stop-color="#596C76"/>
<stop offset="0.284" stop-color="#4A5960"/>
<stop offset="0.875" stop-color="#232627"/>
<stop offset="1" stop-color="#1A1A1A"/>
</linearGradient>
<linearGradient id="paint6_linear_1_806" x1="26.6471" y1="10.2709" x2="29.7059" y2="10.2709" gradientUnits="userSpaceOnUse">
<stop stop-color="#1A1A1A" stop-opacity="0"/>
<stop offset="0.426" stop-color="#121212" stop-opacity="0.426"/>
<stop offset="1"/>
</linearGradient>
<linearGradient id="paint7_linear_1_806" x1="15" y1="21.7049" x2="15" y2="23.5231" gradientUnits="userSpaceOnUse">
<stop stop-color="#9E9797" stop-opacity="0"/>
<stop offset="0.356" stop-color="#9B9494" stop-opacity="0.356"/>
<stop offset="0.628" stop-color="#928B8B" stop-opacity="0.629"/>
<stop offset="0.872" stop-color="#827A7A" stop-opacity="0.872"/>
<stop offset="1" stop-color="#766E6E"/>
</linearGradient>
<linearGradient id="paint8_linear_1_806" x1="11.4873" y1="0.273298" x2="18.1848" y2="19.3352" gradientUnits="userSpaceOnUse">
<stop stop-color="#A6E7F0"/>
<stop offset="0.171" stop-color="#90E2ED"/>
<stop offset="0.529" stop-color="#56D7E7"/>
<stop offset="1" stop-color="#02C7DD"/>
</linearGradient>
<linearGradient id="paint9_linear_1_806" x1="0.653674" y1="-0.116706" x2="9.3982" y2="17.0809" gradientUnits="userSpaceOnUse">
<stop stop-color="#0199B1" stop-opacity="0"/>
<stop offset="1" stop-color="#0199B1"/>
</linearGradient>
<linearGradient id="paint10_linear_1_806" x1="-0.676621" y1="2.10077" x2="7.17826" y2="17.5487" gradientUnits="userSpaceOnUse">
<stop stop-color="#0199B1" stop-opacity="0"/>
<stop offset="1" stop-color="#0199B1"/>
</linearGradient>
<linearGradient id="paint11_linear_1_806" x1="-0.676621" y1="6.97947" x2="7.17827" y2="22.4274" gradientUnits="userSpaceOnUse">
<stop stop-color="#0199B1" stop-opacity="0"/>
<stop offset="1" stop-color="#0199B1"/>
</linearGradient>
<linearGradient id="paint12_linear_1_806" x1="0.089702" y1="-2.70053" x2="10.6779" y2="18.123" gradientUnits="userSpaceOnUse">
<stop stop-color="#0199B1" stop-opacity="0"/>
<stop offset="1" stop-color="#0199B1"/>
</linearGradient>
<linearGradient id="paint13_linear_1_806" x1="25.1176" y1="10.2709" x2="28.7666" y2="10.2709" gradientUnits="userSpaceOnUse">
<stop stop-color="#0199B1" stop-opacity="0"/>
<stop offset="1" stop-color="#0199B1"/>
</linearGradient>
<linearGradient id="paint14_linear_1_806" x1="14.9999" y1="27.4195" x2="14.9999" y2="29.2902" gradientUnits="userSpaceOnUse">
<stop stop-color="#F9F5F3"/>
<stop offset="1" stop-color="#EFE2DD"/>
</linearGradient>
<linearGradient id="paint15_linear_1_806" x1="14.9999" y1="27.4195" x2="14.9999" y2="29.2902" gradientUnits="userSpaceOnUse">
<stop stop-color="#E1D3CE" stop-opacity="0"/>
<stop offset="0.316" stop-color="#D0C4C0" stop-opacity="0.316"/>
<stop offset="0.94" stop-color="#A39C9B" stop-opacity="0.94"/>
<stop offset="1" stop-color="#9E9797"/>
</linearGradient>
<linearGradient id="paint16_linear_1_806" x1="13.2642" y1="8.52995" x2="8.87671" y2="4.14242" gradientUnits="userSpaceOnUse">
<stop stop-color="#0199B1" stop-opacity="0"/>
<stop offset="1" stop-color="#0199B1"/>
</linearGradient>
<linearGradient id="paint17_linear_1_806" x1="18.6587" y1="13.9295" x2="13.4658" y2="8.73672" gradientUnits="userSpaceOnUse">
<stop stop-color="#0199B1" stop-opacity="0"/>
<stop offset="1" stop-color="#0199B1"/>
</linearGradient>
<linearGradient id="paint18_linear_1_806" x1="12.6212" y1="7.89218" x2="16.7374" y2="12.0084" gradientUnits="userSpaceOnUse">
<stop stop-color="#FEF48B"/>
<stop offset="1" stop-color="#FFBF51"/>
</linearGradient>
<linearGradient id="paint19_linear_1_806" x1="13.9693" y1="14.8052" x2="11.1561" y2="11.992" gradientUnits="userSpaceOnUse">
<stop stop-color="#FE9738" stop-opacity="0"/>
<stop offset="1" stop-color="#FE9738"/>
</linearGradient>
<linearGradient id="paint20_linear_1_806" x1="19.5338" y1="9.2397" x2="16.7214" y2="6.42729" gradientUnits="userSpaceOnUse">
<stop stop-color="#FE9738" stop-opacity="0"/>
<stop offset="1" stop-color="#FE9738"/>
</linearGradient>
<clipPath id="clip0_1_806">
<rect width="30" height="30" fill="white"/>
</clipPath>
</defs>
</svg>
