<svg width="19" height="19" viewBox="0 0 19 19" fill="none" xmlns="http://www.w3.org/2000/svg">
<g clip-path="url(#clip0_0_311)">
<path d="M0.569261 8.34768C0.258841 8.34768 0.00720215 8.59936 0.00720215 8.90974V17.165C0.00720215 17.4754 0.258878 17.7271 0.569261 17.7271H3.9556V8.34768H0.569261ZM18.9928 11.4515C18.9928 10.738 18.6094 10.1123 18.0378 9.76964C18.2645 9.44288 18.3857 9.05459 18.3852 8.65692C18.3852 7.57655 17.5063 6.69758 16.4259 6.69758H12.2898C12.4165 6.12312 12.5899 5.26111 12.7106 4.35872C13.0248 2.0104 12.8101 0.70805 12.035 0.260176C11.5517 -0.0189974 11.0307 -0.0756263 10.5679 0.100569C10.2104 0.23676 9.72748 0.571598 9.45232 1.39339L8.36524 4.23971C7.81412 5.60077 6.12643 7.02967 5.07976 7.81977V17.9758C7.01961 18.6555 9.04385 19 11.109 19H15.6158C16.6961 19 17.5751 18.121 17.5751 17.0407C17.5756 16.676 17.4736 16.3185 17.2808 16.0089C17.934 15.6908 18.3852 15.0201 18.3852 14.2461C18.3856 13.8484 18.2644 13.4601 18.0378 13.1333C18.6094 12.7907 18.9928 12.165 18.9928 11.4515Z" fill="#BEBEBE"/>
</g>
<defs>
<clipPath id="clip0_0_311">
<rect width="19" height="19" fill="white"/>
</clipPath>
</defs>
</svg>
