<svg width="66" height="66" viewBox="0 0 66 66" fill="none" xmlns="http://www.w3.org/2000/svg">
<g clip-path="url(#clip0_1_413)" filter="url(#filter0_d_1_413)">
<path d="M37.6459 46.0567C36.8326 44.4544 35.4898 43.1668 33.8474 42.4249C33.6654 42.3428 33.6654 42.0823 33.8474 42.0001C35.4899 41.2583 36.8326 39.9706 37.6459 38.3683C37.7324 38.1978 37.9754 38.1978 38.0619 38.3683C38.8752 39.9706 40.218 41.2583 41.8604 42.0001C42.0424 42.0823 42.0424 42.3428 41.8604 42.4249C40.218 43.1667 38.8752 44.4544 38.0619 46.0567C37.9753 46.2273 37.7324 46.2273 37.6459 46.0567Z" fill="url(#paint0_linear_1_413)"/>
<path d="M39.63 38.6265C40.0592 39.0558 40.7909 38.8888 40.9897 38.3152C41.0822 38.0482 41.17 37.7795 41.253 37.5093C42.538 33.3282 42.437 29.6363 42.0715 28.2915C41.9523 27.8526 41.4999 27.5934 41.0613 27.7129C40.6226 27.8321 40.3636 28.2847 40.4829 28.7235C40.7452 29.689 40.9386 33.4095 39.4351 37.7737C39.3322 38.0721 39.4068 38.4033 39.63 38.6265Z" fill="url(#paint1_linear_1_413)"/>
<path d="M6.77863 42.6137L6.17078 42.0056C6.06143 41.8962 6 41.7479 6 41.5932C6 41.4385 6.06143 41.2901 6.17078 41.1807L18.5445 28.8019L19.9772 30.2353L7.60389 42.6137C7.5497 42.6679 7.48538 42.7109 7.41458 42.7403C7.34378 42.7696 7.26789 42.7847 7.19126 42.7847C7.11462 42.7847 7.03874 42.7696 6.96794 42.7403C6.89714 42.7109 6.83281 42.6679 6.77863 42.6137Z" fill="url(#paint2_linear_1_413)"/>
<path d="M11.2775 38.9382L19.9767 30.2353L18.5439 28.8019L9.84473 37.5048L11.2775 38.9382Z" fill="url(#paint3_linear_1_413)"/>
<path d="M22.8242 36.7591L22.5858 37.4144C21.6618 39.9544 22.9754 42.7729 25.5144 43.6974C25.8348 43.8141 26.1891 43.6488 26.3057 43.3283C26.4223 43.0078 26.2571 42.6532 25.9368 42.5366C24.0376 41.8452 23.055 39.7369 23.7462 37.837L23.9846 37.1816C24.0249 37.0711 24.0327 36.9513 24.0073 36.8365C23.9818 36.7216 23.924 36.6164 23.8408 36.5333C23.7771 36.4696 23.7002 36.4207 23.6156 36.39C23.5394 36.3623 23.4585 36.3498 23.3775 36.3533C23.2964 36.3568 23.2169 36.3763 23.1434 36.4105C23.0699 36.4448 23.0039 36.4932 22.9492 36.553C22.8944 36.6128 22.8519 36.6829 22.8242 36.7591Z" fill="url(#paint4_linear_1_413)"/>
<path d="M23.5644 46.2116L23.002 46.1859C22.7195 46.1729 22.5455 45.8715 22.6756 45.6203L22.9346 45.1202C22.9791 45.0344 22.9898 44.935 22.9648 44.8416C22.9398 44.7482 22.8808 44.6675 22.7994 44.6154L22.3251 44.3118C22.0869 44.1592 22.0869 43.8112 22.3251 43.6587L22.7994 43.3551C22.8808 43.3029 22.9398 43.2223 22.9648 43.1289C22.9898 43.0355 22.9791 42.9361 22.9346 42.8502L22.6756 42.3501C22.5456 42.0989 22.7195 41.7975 23.002 41.7846L23.5644 41.7589C23.661 41.7545 23.7524 41.7141 23.8208 41.6458C23.8891 41.5774 23.9295 41.486 23.9339 41.3894L23.9596 40.8268C23.9725 40.5442 24.2738 40.3701 24.5249 40.5002L25.0249 40.7593C25.1107 40.8038 25.21 40.8145 25.3034 40.7895C25.3968 40.7645 25.4774 40.7054 25.5295 40.624L25.8329 40.1496C25.9854 39.9113 26.3333 39.9113 26.4857 40.1496L26.7892 40.624C26.8413 40.7054 26.9219 40.7645 27.0153 40.7895C27.1086 40.8145 27.208 40.8038 27.2938 40.7593L27.7937 40.5002C28.0448 40.3701 28.3462 40.5441 28.3591 40.8268L28.3848 41.3894C28.3892 41.486 28.4295 41.5774 28.4979 41.6458C28.5662 41.7141 28.6577 41.7545 28.7542 41.7589L29.3167 41.7846C29.5992 41.7975 29.7732 42.0989 29.6431 42.3501L29.3841 42.8502C29.3396 42.9361 29.3288 43.0355 29.3538 43.1289C29.3788 43.2223 29.4379 43.3029 29.5193 43.3551L29.9936 43.6587C30.2317 43.8112 30.2317 44.1592 29.9936 44.3118L29.5193 44.6154C29.4379 44.6675 29.3788 44.7482 29.3538 44.8416C29.3288 44.935 29.3396 45.0344 29.3841 45.1202L29.6431 45.6203C29.7731 45.8715 29.5992 46.173 29.3167 46.1859L28.7542 46.2116C28.6577 46.216 28.5662 46.2564 28.4979 46.3247C28.4295 46.3931 28.3892 46.4845 28.3848 46.5811L28.3591 47.1437C28.3462 47.4263 28.0448 47.6004 27.7937 47.4702L27.2938 47.2112C27.208 47.1667 27.1086 47.1559 27.0153 47.181C26.9219 47.206 26.8413 47.265 26.7892 47.3465L26.4857 47.8209C26.3333 48.0591 25.9854 48.0591 25.8329 47.8209L25.5295 47.3465C25.4774 47.265 25.3968 47.206 25.3034 47.181C25.21 47.1559 25.1107 47.1667 25.0249 47.2112L24.5249 47.4702C24.2738 47.6004 23.9725 47.4263 23.9596 47.1437L23.9339 46.5811C23.9294 46.4845 23.8891 46.3931 23.8207 46.3247C23.7524 46.2564 23.661 46.216 23.5644 46.2116Z" fill="url(#paint5_linear_1_413)"/>
<path d="M24.6355 45.2932L24.3052 45.2781C24.1393 45.2705 24.0371 45.0935 24.1135 44.946L24.2656 44.6522C24.2917 44.6018 24.298 44.5434 24.2833 44.4886C24.2687 44.4337 24.234 44.3864 24.1862 44.3557L23.9077 44.1774C23.7678 44.0879 23.7678 43.8834 23.9077 43.7939L24.1862 43.6156C24.234 43.585 24.2687 43.5376 24.2833 43.4828C24.298 43.4279 24.2917 43.3696 24.2656 43.3192L24.1135 43.0254C24.0371 42.8779 24.1392 42.7009 24.3052 42.6933L24.6355 42.6782C24.6922 42.6756 24.7459 42.6519 24.786 42.6118C24.8262 42.5716 24.8499 42.5179 24.8524 42.4612L24.8675 42.1307C24.8751 41.9648 25.052 41.8626 25.1995 41.9389L25.4931 42.0911C25.5435 42.1172 25.6019 42.1235 25.6567 42.1088C25.7116 42.0941 25.7589 42.0595 25.7895 42.0116L25.9677 41.7331C26.0572 41.5931 26.2616 41.5931 26.3511 41.7331L26.5293 42.0116C26.5599 42.0595 26.6072 42.0942 26.6621 42.1089C26.7169 42.1236 26.7753 42.1172 26.8257 42.0911L27.1193 41.9389C27.2668 41.8625 27.4437 41.9647 27.4512 42.1307L27.4663 42.4612C27.4689 42.5179 27.4925 42.5716 27.5327 42.6118C27.5728 42.6519 27.6265 42.6756 27.6832 42.6782L28.0135 42.6933C28.1794 42.7009 28.2816 42.8779 28.2053 43.0254L28.0531 43.3192C28.027 43.3696 28.0207 43.4279 28.0354 43.4828C28.0501 43.5376 28.0847 43.585 28.1325 43.6156L28.4111 43.7939C28.551 43.8834 28.551 44.0879 28.4111 44.1774L28.1325 44.3557C28.0847 44.3864 28.0501 44.4337 28.0354 44.4886C28.0207 44.5434 28.027 44.6018 28.0531 44.6522L28.2053 44.946C28.2816 45.0935 28.1795 45.2705 28.0135 45.2781L27.6832 45.2932C27.6265 45.2958 27.5728 45.3195 27.5327 45.3596C27.4925 45.3997 27.4689 45.4534 27.4663 45.5102L27.4512 45.8406C27.4437 46.0066 27.2667 46.1088 27.1193 46.0324L26.8257 45.8803C26.7753 45.8542 26.7169 45.8478 26.6621 45.8625C26.6072 45.8772 26.5599 45.9119 26.5293 45.9597L26.3511 46.2383C26.2616 46.3782 26.0572 46.3782 25.9677 46.2383L25.7895 45.9597C25.7589 45.9119 25.7116 45.8772 25.6567 45.8625C25.6019 45.8478 25.5435 45.8541 25.4931 45.8803L25.1995 46.0324C25.052 46.1089 24.8752 46.0067 24.8675 45.8406L24.8524 45.5102C24.8499 45.4534 24.8262 45.3997 24.786 45.3596C24.7459 45.3195 24.6922 45.2958 24.6355 45.2932Z" fill="url(#paint6_linear_1_413)"/>
<path d="M23.0956 41.7805C23.6547 42.6345 24.4833 43.3218 25.5138 43.697C25.8342 43.8137 26.1885 43.6484 26.3051 43.3279C26.4217 43.0074 26.2565 42.6529 25.9362 42.5363C25.0545 42.2153 24.3708 41.5886 23.96 40.8195C23.9598 40.8219 23.9593 40.8243 23.9591 40.8268L23.9334 41.3895C23.929 41.4861 23.8887 41.5775 23.8204 41.6459C23.752 41.7143 23.6606 41.7546 23.564 41.759L23.0956 41.7805Z" fill="url(#paint7_linear_1_413)"/>
<path d="M22.971 37.223L16.7878 31.0372C15.8155 30.0645 15.8155 28.488 16.7878 27.5153L29.4857 14.8121C30.4585 13.8389 32.0362 13.8389 33.0091 14.8121L39.1923 20.9979C40.1645 21.9706 40.1645 23.5471 39.1923 24.5198L26.4944 37.223C25.5215 38.1962 23.9438 38.1962 22.971 37.223Z" fill="url(#paint8_linear_1_413)"/>
<path d="M22.971 37.223L16.7878 31.0372C15.8155 30.0645 15.8155 28.488 16.7878 27.5153L29.4857 14.8121C30.4585 13.8389 32.0362 13.8389 33.0091 14.8121L39.1923 20.9979C40.1645 21.9706 40.1645 23.5471 39.1923 24.5198L26.4944 37.223C25.5215 38.1962 23.9438 38.1962 22.971 37.223Z" fill="url(#paint9_linear_1_413)"/>
<path d="M35.8643 27.8504L39.1922 24.521C40.1648 23.5481 40.1648 21.9707 39.1922 20.9977L33.009 14.8119C32.0364 13.839 30.4596 13.839 29.4871 14.8119L26.1592 18.1413L35.8643 27.8504Z" fill="url(#paint10_linear_1_413)"/>
<path d="M32.3954 31.3197L22.6903 21.6105L16.789 27.5143C15.8164 28.4872 15.8164 30.0647 16.789 31.0377L22.9722 37.2235C23.9448 38.1964 25.5216 38.1964 26.4941 37.2235L32.3954 31.3197Z" fill="url(#paint11_linear_1_413)"/>
<path d="M16.7891 31.0389L19.164 33.4148V25.1389L16.7891 27.5147C15.8164 28.4877 15.8164 30.0659 16.7891 31.0389Z" fill="url(#paint12_linear_1_413)"/>
<path d="M22.6904 36.9422L22.9722 37.224C23.8395 38.0917 25.1881 38.1854 26.159 37.5052V18.1408L22.6904 21.6109V36.9422Z" fill="url(#paint13_linear_1_413)"/>
<path d="M33.0094 14.8119C32.1002 13.9023 30.6624 13.8429 29.6846 14.6348V34.0332L33.1538 30.5625L33.1532 14.9557L33.0094 14.8119Z" fill="url(#paint14_linear_1_413)"/>
<path d="M39.1925 20.9965L36.6797 18.4826V27.0346L39.1925 24.5207C40.1652 23.5477 40.1652 21.9696 39.1925 20.9965Z" fill="url(#paint15_linear_1_413)"/>
<path d="M33.0094 14.8119C32.1002 13.9023 30.6624 13.8429 29.6846 14.6348V34.0332L33.1538 30.5625L33.1532 14.9557L33.0094 14.8119Z" fill="url(#paint16_linear_1_413)"/>
<path d="M39.1925 20.9965L36.6797 18.4826V27.0346L39.1925 24.5207C40.1652 23.5477 40.1652 21.9696 39.1925 20.9965Z" fill="url(#paint17_linear_1_413)"/>
<path d="M43.5797 6.07702L31.5841 8.53501C28.7123 9.12342 27.6476 12.6709 29.7204 14.7446L39.259 24.2872C41.3318 26.3608 44.8779 25.2957 45.466 22.4227L47.9229 10.4222C48.4528 7.83435 46.1664 5.547 43.5797 6.07702Z" fill="url(#paint18_linear_1_413)"/>
<path d="M43.5797 6.07702L31.5841 8.53501C28.7123 9.12342 27.6476 12.6709 29.7204 14.7446L39.259 24.2872C41.3318 26.3608 44.8779 25.2957 45.466 22.4227L47.9229 10.4222C48.4528 7.83435 46.1664 5.547 43.5797 6.07702Z" fill="url(#paint19_linear_1_413)"/>
<path d="M45.466 22.4228L46.7667 16.0696L37.9346 7.2337L31.5841 8.53496C28.7123 9.12337 27.6476 12.671 29.7204 14.7446L39.259 24.2872C41.3318 26.3609 44.8779 25.2957 45.466 22.4228Z" fill="url(#paint20_linear_1_413)"/>
<path d="M13.0842 16.5827C12.6551 16.1534 12.822 15.4213 13.3954 15.2225C13.6624 15.13 13.9309 15.0421 14.201 14.9591C18.3804 13.6736 22.0707 13.7746 23.4149 14.1402C23.8537 14.2595 24.1127 14.7121 23.9933 15.1509C23.8741 15.5898 23.4218 15.8489 22.9831 15.7296C22.018 15.4671 18.2991 15.2737 13.9367 16.7778C13.7906 16.8285 13.6332 16.8371 13.4825 16.8026C13.3317 16.7681 13.1937 16.6919 13.0842 16.5827Z" fill="url(#paint21_linear_1_413)"/>
<path d="M12.0316 20.667C11.2184 19.0647 9.87554 17.7771 8.23318 17.0352C8.05118 16.953 8.05118 16.6926 8.23318 16.6104C9.87562 15.8686 11.2184 14.5809 12.0316 12.9786C12.1182 12.8081 12.3611 12.8081 12.4477 12.9786C13.2609 14.5809 14.6037 15.8685 16.2462 16.6104C16.4282 16.6926 16.4282 16.953 16.2462 17.0352C14.6037 17.777 13.261 19.0647 12.4477 20.667C12.361 20.8375 12.1182 20.8375 12.0316 20.667Z" fill="url(#paint22_linear_1_413)"/>
</g>
<defs>
<filter id="filter0_d_1_413" x="0" y="0" width="66" height="66" filterUnits="userSpaceOnUse" color-interpolation-filters="sRGB">
<feFlood flood-opacity="0" result="BackgroundImageFix"/>
<feColorMatrix in="SourceAlpha" type="matrix" values="0 0 0 0 0 0 0 0 0 0 0 0 0 0 0 0 0 0 127 0" result="hardAlpha"/>
<feOffset dx="6" dy="6"/>
<feGaussianBlur stdDeviation="6"/>
<feColorMatrix type="matrix" values="0 0 0 0 0 0 0 0 0 0 0 0 0 0 0 0 0 0 0.35 0"/>
<feBlend mode="normal" in2="BackgroundImageFix" result="effect1_dropShadow_1_413"/>
<feBlend mode="normal" in="SourceGraphic" in2="effect1_dropShadow_1_413" result="shape"/>
</filter>
<linearGradient id="paint0_linear_1_413" x1="37.8539" y1="39.4965" x2="37.8539" y2="48.1937" gradientUnits="userSpaceOnUse">
<stop stop-color="#D5DAF3"/>
<stop offset="1" stop-color="#60B7FF"/>
</linearGradient>
<linearGradient id="paint1_linear_1_413" x1="80.9767" y1="33.9245" x2="86.0823" y2="32.2775" gradientUnits="userSpaceOnUse">
<stop stop-color="#FEF0AE"/>
<stop offset="1" stop-color="#FFBF51"/>
</linearGradient>
<linearGradient id="paint2_linear_1_413" x1="12.2028" y1="35.2491" x2="13.6783" y2="36.7246" gradientUnits="userSpaceOnUse">
<stop stop-color="#B9ACAC"/>
<stop offset="1" stop-color="#766E6E"/>
</linearGradient>
<linearGradient id="paint3_linear_1_413" x1="15.6084" y1="33.1723" x2="17.8069" y2="30.9739" gradientUnits="userSpaceOnUse">
<stop stop-color="#433F43" stop-opacity="0"/>
<stop offset="0.317" stop-color="#3B373B" stop-opacity="0.317"/>
<stop offset="0.822" stop-color="#242324" stop-opacity="0.822"/>
<stop offset="1" stop-color="#1A1A1A"/>
</linearGradient>
<linearGradient id="paint4_linear_1_413" x1="22.4497" y1="40.9046" x2="24.274" y2="40.1671" gradientUnits="userSpaceOnUse">
<stop stop-color="#5A5A5A"/>
<stop offset="1" stop-color="#444444"/>
</linearGradient>
<linearGradient id="paint5_linear_1_413" x1="23.7699" y1="41.5959" x2="27.5245" y2="45.3505" gradientUnits="userSpaceOnUse">
<stop stop-color="#FE9738"/>
<stop offset="1" stop-color="#F46700"/>
</linearGradient>
<linearGradient id="paint6_linear_1_413" x1="19.5913" y1="37.4175" x2="30.6248" y2="48.451" gradientUnits="userSpaceOnUse">
<stop stop-color="#A72B2B" stop-opacity="0"/>
<stop offset="0.171" stop-color="#A12A28" stop-opacity="0.171"/>
<stop offset="0.415" stop-color="#8E2821" stop-opacity="0.415"/>
<stop offset="0.703" stop-color="#6F2415" stop-opacity="0.703"/>
<stop offset="1" stop-color="#481F05"/>
</linearGradient>
<linearGradient id="paint7_linear_1_413" x1="21.7042" y1="43.671" x2="26.7388" y2="41.4884" gradientUnits="userSpaceOnUse">
<stop stop-color="#A72B2B" stop-opacity="0"/>
<stop offset="0.171" stop-color="#A12A28" stop-opacity="0.171"/>
<stop offset="0.415" stop-color="#8E2821" stop-opacity="0.415"/>
<stop offset="0.703" stop-color="#6F2415" stop-opacity="0.703"/>
<stop offset="1" stop-color="#481F05"/>
</linearGradient>
<linearGradient id="paint8_linear_1_413" x1="25.2723" y1="23.2998" x2="30.6457" y2="28.6732" gradientUnits="userSpaceOnUse">
<stop stop-color="#FEF0AE"/>
<stop offset="1" stop-color="#FFBF51"/>
</linearGradient>
<linearGradient id="paint9_linear_1_413" x1="28.1548" y1="26.1823" x2="32.721" y2="30.7486" gradientUnits="userSpaceOnUse">
<stop stop-color="#FEA613" stop-opacity="0"/>
<stop offset="0.177" stop-color="#FDA116" stop-opacity="0.177"/>
<stop offset="0.394" stop-color="#FA921D" stop-opacity="0.394"/>
<stop offset="0.632" stop-color="#F4792A" stop-opacity="0.633"/>
<stop offset="0.885" stop-color="#ED573B" stop-opacity="0.885"/>
<stop offset="1" stop-color="#E94444"/>
</linearGradient>
<linearGradient id="paint10_linear_1_413" x1="32.5176" y1="21.4891" x2="34.6531" y2="19.3537" gradientUnits="userSpaceOnUse">
<stop stop-color="#FEA613" stop-opacity="0"/>
<stop offset="0.177" stop-color="#FDA116" stop-opacity="0.177"/>
<stop offset="0.394" stop-color="#FA921D" stop-opacity="0.394"/>
<stop offset="0.632" stop-color="#F4792A" stop-opacity="0.633"/>
<stop offset="0.885" stop-color="#ED573B" stop-opacity="0.885"/>
<stop offset="1" stop-color="#E94444"/>
</linearGradient>
<linearGradient id="paint11_linear_1_413" x1="23.3394" y1="30.6699" x2="19.6591" y2="34.3502" gradientUnits="userSpaceOnUse">
<stop stop-color="#FEA613" stop-opacity="0"/>
<stop offset="0.177" stop-color="#FDA116" stop-opacity="0.177"/>
<stop offset="0.394" stop-color="#FA921D" stop-opacity="0.394"/>
<stop offset="0.632" stop-color="#F4792A" stop-opacity="0.633"/>
<stop offset="0.885" stop-color="#ED573B" stop-opacity="0.885"/>
<stop offset="1" stop-color="#E94444"/>
</linearGradient>
<linearGradient id="paint12_linear_1_413" x1="20.3302" y1="30.443" x2="25.2312" y2="35.3441" gradientUnits="userSpaceOnUse">
<stop stop-color="#B4EBA8"/>
<stop offset="1" stop-color="#24CE20"/>
</linearGradient>
<linearGradient id="paint13_linear_1_413" x1="23.8267" y1="26.9436" x2="28.7278" y2="31.8446" gradientUnits="userSpaceOnUse">
<stop stop-color="#B4EBA8"/>
<stop offset="1" stop-color="#24CE20"/>
</linearGradient>
<linearGradient id="paint14_linear_1_413" x1="28.8467" y1="21.9222" x2="33.7478" y2="26.8233" gradientUnits="userSpaceOnUse">
<stop stop-color="#B4EBA8"/>
<stop offset="1" stop-color="#24CE20"/>
</linearGradient>
<linearGradient id="paint15_linear_1_413" x1="32.3432" y1="18.4222" x2="37.2443" y2="23.3233" gradientUnits="userSpaceOnUse">
<stop stop-color="#B4EBA8"/>
<stop offset="1" stop-color="#24CE20"/>
</linearGradient>
<linearGradient id="paint16_linear_1_413" x1="31.4125" y1="22.6062" x2="34.5228" y2="19.4958" gradientUnits="userSpaceOnUse">
<stop stop-color="#017B4E" stop-opacity="0"/>
<stop offset="1" stop-color="#017B4E"/>
</linearGradient>
<linearGradient id="paint17_linear_1_413" x1="34.1218" y1="25.3165" x2="37.2324" y2="22.206" gradientUnits="userSpaceOnUse">
<stop stop-color="#017B4E" stop-opacity="0"/>
<stop offset="1" stop-color="#017B4E"/>
</linearGradient>
<linearGradient id="paint18_linear_1_413" x1="38.1101" y1="9.99784" x2="41.157" y2="23.3382" gradientUnits="userSpaceOnUse">
<stop stop-color="#FFA1AE"/>
<stop offset="1" stop-color="#FF4565"/>
</linearGradient>
<linearGradient id="paint19_linear_1_413" x1="39.3146" y1="13.7521" x2="46.0656" y2="17.2098" gradientUnits="userSpaceOnUse">
<stop stop-color="#FD4755" stop-opacity="0"/>
<stop offset="0.259" stop-color="#F74453" stop-opacity="0.259"/>
<stop offset="0.621" stop-color="#E53B4C" stop-opacity="0.621"/>
<stop offset="1" stop-color="#CA2E43"/>
</linearGradient>
<linearGradient id="paint20_linear_1_413" x1="37.9923" y1="16.0123" x2="33.362" y2="20.6425" gradientUnits="userSpaceOnUse">
<stop stop-color="#FD4755" stop-opacity="0"/>
<stop offset="0.259" stop-color="#F74453" stop-opacity="0.259"/>
<stop offset="0.621" stop-color="#E53B4C" stop-opacity="0.621"/>
<stop offset="1" stop-color="#CA2E43"/>
</linearGradient>
<linearGradient id="paint21_linear_1_413" x1="17.7842" y1="13.4587" x2="19.4306" y2="18.5628" gradientUnits="userSpaceOnUse">
<stop stop-color="#D5DAF3"/>
<stop offset="1" stop-color="#60B7FF"/>
</linearGradient>
<linearGradient id="paint22_linear_1_413" x1="12.2396" y1="14.1068" x2="12.2396" y2="22.804" gradientUnits="userSpaceOnUse">
<stop stop-color="#FEF0AE"/>
<stop offset="1" stop-color="#FFBF51"/>
</linearGradient>
<clipPath id="clip0_1_413">
<rect width="42" height="42" fill="white" transform="translate(6 6)"/>
</clipPath>
</defs>
</svg>
