<svg width="46" height="50" viewBox="0 0 46 50" fill="none" xmlns="http://www.w3.org/2000/svg">
<g filter="url(#filter0_d_28_106)">
<path d="M26.9507 18.7334C26.9434 18.7492 26.936 18.7649 26.9286 18.7807C26.6392 19.3964 25.7136 19.1519 25.7706 18.474C25.8748 17.235 25.7216 15.9543 25.2751 14.7072C23.8261 10.6592 18.9608 6.05006 14.6524 6.00004C14.1923 5.99471 13.9282 6.52141 14.1997 6.89283C14.5617 7.38794 14.8557 7.94608 15.0638 8.5583C15.7471 10.568 15.3265 12.7076 14.1235 14.2972C13.622 14.9599 12.5571 14.6326 12.5396 13.8018L12.5392 13.7837C12.5322 13.3432 12.6044 12.9203 12.743 12.5286C12.8042 12.3559 12.6441 12.186 12.4687 12.2388C10.0262 12.975 8.16903 16.5691 8.16903 19.1327C8.16903 19.3199 8.17944 19.5047 8.19878 19.6868C8.20124 20.0369 8.26215 20.3842 8.37901 20.7142L8.39206 20.7509C8.42957 20.855 8.46899 20.9584 8.51028 21.0611C7.92825 20.35 7.43785 19.5686 7.05057 18.7353C6.86974 18.3459 6.29738 18.4232 6.2271 18.8467C6.10187 19.601 6.03632 20.3368 6.03632 21.0362C6.03632 27.0913 10.945 32 17.0001 32C23.0553 32 27.964 27.0913 27.964 21.0362C27.964 20.3367 27.8984 19.6009 27.7731 18.8465C27.703 18.424 27.131 18.3448 26.9507 18.7334Z" fill="url(#paint0_linear_28_106)"/>
<path d="M8.16912 19.1326C8.16912 19.3198 8.17953 19.5046 8.19888 19.6867C8.20133 20.0368 8.26225 20.3841 8.3791 20.7141L8.39215 20.7507C8.42966 20.8548 8.46908 20.9583 8.51037 21.0609C7.92834 20.3498 7.43794 19.5684 7.05066 18.7351C6.86983 18.3457 6.29747 18.423 6.22719 18.8466C6.10197 19.6009 6.03641 20.3366 6.03641 21.036C6.03636 27.0912 10.945 31.9999 17.0002 31.9999C23.0553 31.9999 27.964 27.0912 27.964 21.0361C27.964 20.3366 27.8984 19.6008 27.7732 18.8464C27.703 18.4239 27.131 18.3447 26.9507 18.7333C26.9434 18.7491 26.936 18.7648 26.9286 18.7806C26.6392 19.3963 25.7136 19.1518 25.7706 18.4739C25.7946 18.1858 25.8046 17.8967 25.8005 17.6077H8.35655C8.23437 18.1351 8.16912 18.6519 8.16912 19.1326Z" fill="url(#paint1_linear_28_106)"/>
<path d="M8.16912 19.1326C8.16912 19.3198 8.17953 19.5046 8.19888 19.6867C8.20133 20.0368 8.26225 20.3841 8.3791 20.7141L8.39215 20.7507C8.42966 20.8548 8.46908 20.9583 8.51037 21.0609C7.92834 20.3498 7.43794 19.5684 7.05066 18.7351C6.86983 18.3457 6.29747 18.423 6.22719 18.8466C6.10197 19.6009 6.03641 20.3366 6.03641 21.036C6.03636 27.0912 10.945 31.9999 17.0002 31.9999C23.0553 31.9999 27.964 27.0912 27.964 21.0361C27.964 20.3366 27.8984 19.6008 27.7732 18.8464C27.703 18.4239 27.131 18.3447 26.9507 18.7333C26.9434 18.7491 26.936 18.7648 26.9286 18.7806C26.6392 19.3963 25.7136 19.1518 25.7706 18.4739C25.7946 18.1858 25.8046 17.8967 25.8005 17.6077H8.35655C8.23437 18.1351 8.16912 18.6519 8.16912 19.1326Z" fill="url(#paint2_linear_28_106)"/>
<path d="M27.964 21.0362C27.964 20.3367 27.8985 19.6009 27.7732 18.8465C27.703 18.424 27.131 18.3448 26.9507 18.7334C26.9434 18.7492 26.936 18.7649 26.9286 18.7807C26.6392 19.3964 25.7136 19.1519 25.7706 18.474C25.8748 17.235 25.7216 15.9543 25.2752 14.7072C23.8261 10.6592 18.9608 6.05006 14.6525 6.00004C14.1924 5.99471 13.9282 6.52141 14.1998 6.89288C14.5618 7.38799 14.8558 7.94613 15.0639 8.55835C15.7471 10.568 15.3265 12.7076 14.1235 14.2973C13.8738 14.6273 13.4844 14.7117 13.1542 14.6108V31.3057C14.351 31.7542 15.6468 32 17.0002 32C23.0554 32 27.964 27.0913 27.964 21.0362Z" fill="url(#paint3_linear_28_106)"/>
<path d="M27.1283 25.2399L20.001 18.1125L12.7263 28.5712L16.1199 31.9648C16.4103 31.9878 16.7037 32 17 32C21.5658 32 25.4792 29.2088 27.1283 25.2399Z" fill="url(#paint4_linear_28_106)"/>
<path d="M22.5546 22.9057C22.5505 22.9146 22.5465 22.9233 22.5423 22.9321C22.3808 23.2758 21.8641 23.1394 21.8959 22.7609C21.9541 22.0693 21.8685 21.3545 21.6193 20.6583C20.8104 18.3987 18.0946 15.8258 15.6896 15.7979C15.4328 15.7949 15.2854 16.0889 15.4369 16.2962C15.644 16.5799 15.8066 16.8934 15.9193 17.2259C16.3007 18.3478 16.0659 19.5421 15.3944 20.4295C15.1144 20.7994 14.52 20.6167 14.5102 20.1529L14.51 20.1428C14.5059 19.9043 14.5444 19.6671 14.6238 19.4422C14.658 19.3458 14.5686 19.2509 14.4707 19.2804C13.1073 19.6914 12.0706 21.6976 12.0706 23.1286C12.0706 23.2331 12.0764 23.3362 12.0872 23.4379C12.0886 23.6333 12.1226 23.8272 12.1878 24.0114L12.1951 24.0319C12.216 24.0903 12.2382 24.1478 12.261 24.205C11.9362 23.8081 11.6624 23.3719 11.4462 22.9067C11.3452 22.6893 11.0258 22.7326 10.9865 22.9689C10.9166 23.39 10.88 23.8007 10.88 24.1911C10.88 27.5711 13.6201 30.3112 17.0001 30.3112C20.3802 30.3112 23.1202 27.5711 23.1202 24.1911C23.1202 23.8006 23.0836 23.3899 23.0137 22.9688C22.9746 22.733 22.6553 22.6888 22.5546 22.9057Z" fill="url(#paint5_linear_28_106)"/>
<path d="M23.1203 24.1912C23.1203 23.8007 23.0837 23.39 23.0137 22.9689C22.9746 22.733 22.6553 22.6888 22.5546 22.9057C22.5505 22.9146 22.5465 22.9233 22.5423 22.9321C22.3808 23.2758 21.8641 23.1394 21.8959 22.7609C21.954 22.0693 21.8685 21.3545 21.6193 20.6583C20.8104 18.3987 18.0946 15.8258 15.6896 15.7979C15.4328 15.7949 15.2853 16.0889 15.4369 16.2962C15.644 16.5799 15.8066 16.8934 15.9193 17.2259C16.3007 18.3478 16.0659 19.5421 15.3944 20.4295C15.255 20.6137 15.0376 20.6608 14.8533 20.6045V29.9237C15.5214 30.174 16.2447 30.3113 17.0002 30.3113C20.3802 30.3113 23.1203 27.5712 23.1203 24.1912Z" fill="url(#paint6_linear_28_106)"/>
<path d="M12.0706 23.1286C12.0706 23.2331 12.0764 23.3362 12.0872 23.4379C12.0886 23.6333 12.1226 23.8271 12.1878 24.0114L12.1951 24.0318C12.216 24.0903 12.2382 24.1478 12.261 24.205C11.9362 23.8081 11.6624 23.3719 11.4462 22.9067C11.3452 22.6893 11.0258 22.7325 10.9865 22.9689C10.9166 23.39 10.88 23.8007 10.88 24.1911C10.88 27.5711 13.6201 30.3112 17.0001 30.3112C20.3802 30.3112 23.1202 27.5711 23.1202 24.1911C23.1202 23.8006 23.0836 23.3899 23.0137 22.9688C22.9746 22.733 22.6552 22.6888 22.5546 22.9057C22.5505 22.9145 22.5464 22.9233 22.5423 22.9321C22.3808 23.2758 21.8641 23.1393 21.8959 22.7609C21.9093 22.6008 21.9147 22.4394 21.9125 22.2773H12.1753C12.1071 22.5718 12.0706 22.8603 12.0706 23.1286Z" fill="url(#paint7_linear_28_106)"/>
<path d="M12.0706 23.1286C12.0706 23.2331 12.0764 23.3362 12.0872 23.4379C12.0886 23.6333 12.1226 23.8271 12.1878 24.0114L12.1951 24.0318C12.216 24.0903 12.2382 24.1478 12.261 24.205C11.9362 23.8081 11.6624 23.3719 11.4462 22.9067C11.3452 22.6893 11.0258 22.7325 10.9865 22.9689C10.9166 23.39 10.88 23.8007 10.88 24.1911C10.88 27.5711 13.6201 30.3112 17.0001 30.3112C20.3802 30.3112 23.1202 27.5711 23.1202 24.1911C23.1202 23.8006 23.0836 23.3899 23.0137 22.9688C22.9746 22.733 22.6552 22.6888 22.5546 22.9057C22.5505 22.9145 22.5464 22.9233 22.5423 22.9321C22.3808 23.2758 21.8641 23.1393 21.8959 22.7609C21.9093 22.6008 21.9147 22.4394 21.9125 22.2773H12.1753C12.1071 22.5718 12.0706 22.8603 12.0706 23.1286Z" fill="url(#paint8_linear_28_106)"/>
<path d="M7.20844 15.1064C8.01063 15.2709 8.64987 14.4459 8.32964 13.6922C8.09031 13.129 8.12789 12.4604 8.48889 11.9103L8.49067 11.9076C8.58192 11.769 8.50905 11.5826 8.34721 11.5461C7.59941 11.3777 6.79259 11.6761 6.34714 12.3547C5.77311 13.2294 6.01681 14.4038 6.89146 14.9779C6.98942 15.0421 7.09632 15.0834 7.20844 15.1064Z" fill="url(#paint9_linear_28_106)"/>
<path d="M7.20844 15.1064C8.01063 15.2709 8.64987 14.4459 8.32964 13.6922C8.09031 13.129 8.12789 12.4604 8.48889 11.9103L8.49067 11.9076C8.58192 11.769 8.50905 11.5826 8.34721 11.5461C7.59941 11.3777 6.79259 11.6761 6.34714 12.3547C5.77311 13.2294 6.01681 14.4038 6.89146 14.9779C6.98942 15.0421 7.09632 15.0834 7.20844 15.1064Z" fill="url(#paint10_linear_28_106)"/>
<path d="M7.20844 15.1064C8.01063 15.2709 8.64987 14.4459 8.32964 13.6922C8.09031 13.129 8.12789 12.4604 8.48889 11.9103L8.49067 11.9076C8.58192 11.769 8.50905 11.5826 8.34721 11.5461C7.59941 11.3777 6.79259 11.6761 6.34714 12.3547C5.77311 13.2294 6.01681 14.4038 6.89146 14.9779C6.98942 15.0421 7.09632 15.0834 7.20844 15.1064Z" fill="url(#paint11_linear_28_106)"/>
</g>
<defs>
<filter id="filter0_d_28_106" x="-2" y="0" width="50" height="50" filterUnits="userSpaceOnUse" color-interpolation-filters="sRGB">
<feFlood flood-opacity="0" result="BackgroundImageFix"/>
<feColorMatrix in="SourceAlpha" type="matrix" values="0 0 0 0 0 0 0 0 0 0 0 0 0 0 0 0 0 0 127 0" result="hardAlpha"/>
<feOffset dx="6" dy="6"/>
<feGaussianBlur stdDeviation="6"/>
<feColorMatrix type="matrix" values="0 0 0 0 0 0 0 0 0 0 0 0 0 0 0 0 0 0 0.35 0"/>
<feBlend mode="normal" in2="BackgroundImageFix" result="effect1_dropShadow_28_106"/>
<feBlend mode="normal" in="SourceGraphic" in2="effect1_dropShadow_28_106" result="shape"/>
</filter>
<linearGradient id="paint0_linear_28_106" x1="11.3195" y1="14.9668" x2="22.0433" y2="25.6906" gradientUnits="userSpaceOnUse">
<stop stop-color="#FFA1AE"/>
<stop offset="1" stop-color="#FF4565"/>
</linearGradient>
<linearGradient id="paint1_linear_28_106" x1="19.4431" y1="24.9362" x2="23.2442" y2="29.5337" gradientUnits="userSpaceOnUse">
<stop stop-color="#FE0364" stop-opacity="0"/>
<stop offset="0.234" stop-color="#F90362" stop-opacity="0.234"/>
<stop offset="0.517" stop-color="#EA035B" stop-opacity="0.517"/>
<stop offset="0.824" stop-color="#D20250" stop-opacity="0.824"/>
<stop offset="1" stop-color="#C00148"/>
</linearGradient>
<linearGradient id="paint2_linear_28_106" x1="16.6557" y1="24.7515" x2="15.968" y2="32.2087" gradientUnits="userSpaceOnUse">
<stop stop-color="#FE0364" stop-opacity="0"/>
<stop offset="0.234" stop-color="#F90362" stop-opacity="0.234"/>
<stop offset="0.517" stop-color="#EA035B" stop-opacity="0.517"/>
<stop offset="0.824" stop-color="#D20250" stop-opacity="0.824"/>
<stop offset="1" stop-color="#C00148"/>
</linearGradient>
<linearGradient id="paint3_linear_28_106" x1="19.691" y1="17.7503" x2="26.4967" y2="14.637" gradientUnits="userSpaceOnUse">
<stop stop-color="#FE0364" stop-opacity="0"/>
<stop offset="0.234" stop-color="#F90362" stop-opacity="0.234"/>
<stop offset="0.517" stop-color="#EA035B" stop-opacity="0.517"/>
<stop offset="0.824" stop-color="#D20250" stop-opacity="0.824"/>
<stop offset="1" stop-color="#C00148"/>
</linearGradient>
<linearGradient id="paint4_linear_28_106" x1="25.2406" y1="30.3458" x2="16.9146" y2="24.1917" gradientUnits="userSpaceOnUse">
<stop stop-color="#FE0364" stop-opacity="0"/>
<stop offset="0.234" stop-color="#F90362" stop-opacity="0.234"/>
<stop offset="0.517" stop-color="#EA035B" stop-opacity="0.517"/>
<stop offset="0.824" stop-color="#D20250" stop-opacity="0.824"/>
<stop offset="1" stop-color="#C00148"/>
</linearGradient>
<linearGradient id="paint5_linear_28_106" x1="14.4867" y1="21.1744" x2="19.41" y2="26.8941" gradientUnits="userSpaceOnUse">
<stop stop-color="#FEF0AE"/>
<stop offset="1" stop-color="#FAC600"/>
</linearGradient>
<linearGradient id="paint6_linear_28_106" x1="19.7885" y1="22.0275" x2="21.4537" y2="21.4483" gradientUnits="userSpaceOnUse">
<stop stop-color="#FE9738" stop-opacity="0"/>
<stop offset="1" stop-color="#FE9738"/>
</linearGradient>
<linearGradient id="paint7_linear_28_106" x1="15.3008" y1="27.28" x2="14.07" y2="29.2831" gradientUnits="userSpaceOnUse">
<stop stop-color="#FE9738" stop-opacity="0"/>
<stop offset="1" stop-color="#FE9738"/>
</linearGradient>
<linearGradient id="paint8_linear_28_106" x1="18.466" y1="27.4822" x2="19.4314" y2="29.5336" gradientUnits="userSpaceOnUse">
<stop stop-color="#FE9738" stop-opacity="0"/>
<stop offset="1" stop-color="#FE9738"/>
</linearGradient>
<linearGradient id="paint9_linear_28_106" x1="6.57982" y1="12.3814" x2="8.82425" y2="14.2639" gradientUnits="userSpaceOnUse">
<stop stop-color="#FFA1AE"/>
<stop offset="1" stop-color="#FF4565"/>
</linearGradient>
<linearGradient id="paint10_linear_28_106" x1="7.17772" y1="13.7905" x2="6.67087" y2="15.1118" gradientUnits="userSpaceOnUse">
<stop stop-color="#FE0364" stop-opacity="0"/>
<stop offset="0.234" stop-color="#F90362" stop-opacity="0.234"/>
<stop offset="0.517" stop-color="#EA035B" stop-opacity="0.517"/>
<stop offset="0.824" stop-color="#D20250" stop-opacity="0.824"/>
<stop offset="1" stop-color="#C00148"/>
</linearGradient>
<linearGradient id="paint11_linear_28_106" x1="7.16472" y1="13.146" x2="8.81181" y2="13.6347" gradientUnits="userSpaceOnUse">
<stop stop-color="#FE0364" stop-opacity="0"/>
<stop offset="0.234" stop-color="#F90362" stop-opacity="0.234"/>
<stop offset="0.517" stop-color="#EA035B" stop-opacity="0.517"/>
<stop offset="0.824" stop-color="#D20250" stop-opacity="0.824"/>
<stop offset="1" stop-color="#C00148"/>
</linearGradient>
</defs>
</svg>
