<svg width="20" height="20" viewBox="0 0 20 20" fill="none" xmlns="http://www.w3.org/2000/svg">
<path d="M13.5 9C12.1502 9 10.9424 9.59691 10.1178 10.5381L7.26144 8.78014C7.40769 8.37875 7.50015 7.95168 7.50015 7.49988C7.50015 7.2047 7.45783 6.92073 7.39327 6.64444L11.1901 4.89239C11.74 5.56334 12.5647 5.99985 13.5002 5.99985C15.1562 5.99985 16.5001 4.65662 16.5001 2.99993C16.5001 1.34323 15.156 0 13.5 0C11.8426 0 10.5001 1.34323 10.5001 2.99993C10.5001 3.18287 10.5228 3.35949 10.5534 3.53386L6.76099 5.28438C6.07768 4.35779 4.9885 3.74985 3.75007 3.74985C1.67871 3.75007 0 5.42856 0 7.49993C0 9.57129 1.67871 11.25 3.75007 11.25C4.82805 11.25 5.79353 10.7885 6.47754 10.0591L9.32963 11.8141C9.11856 12.3354 9 12.9031 9 13.5C9 15.9858 11.0142 18 13.5 18C15.9844 18 18 15.9858 18 13.5C18 11.0142 15.9844 9 13.5 9Z" fill="white"/>
</svg>
