<svg width="50" height="50" viewBox="0 0 50 50" fill="none" xmlns="http://www.w3.org/2000/svg">
<g clip-path="url(#clip0_28_437)" filter="url(#filter0_d_28_437)">
<path d="M31.8705 21.4961C32.1257 21.1194 31.9982 20.5575 31.5266 20.3647L29.4104 19.4997C29.2962 19.453 29.195 19.3792 29.1156 19.2847C29.0363 19.1902 28.9811 19.0778 28.9548 18.9573L28.4677 16.7236C28.3333 16.1072 27.5505 15.9125 27.143 16.3941L25.6663 18.1394C25.5866 18.2336 25.4852 18.307 25.3708 18.3533C25.2564 18.3996 25.1325 18.4174 25.0097 18.4052L22.7348 18.1781C22.2278 18.1276 21.852 18.5642 21.901 19.0166L22.1628 30.7071C22.1176 31.0087 22.3945 31.2862 22.7151 31.2077L24.0265 30.8864C24.0973 30.869 24.1712 30.8692 24.242 30.8868C24.3127 30.9043 24.3781 30.9389 24.4325 30.9874L25.4406 31.8855C25.6871 32.1051 26.0617 31.9896 26.1631 31.702L31.8705 21.4961Z" fill="url(#paint0_linear_28_437)"/>
<path d="M24.4329 30.9875L25.441 31.8856C25.6875 32.1053 26.0621 31.9898 26.1634 31.7022L31.8709 21.4962C32.1261 21.1195 31.9986 20.5576 31.527 20.3649L29.4108 19.4998C29.2966 19.4531 29.1954 19.3793 29.116 19.2848C29.0366 19.1904 28.9814 19.078 28.9551 18.9574L28.4681 16.7237C28.4009 16.4155 28.1716 16.2127 27.9081 16.1472L24.2423 30.8869C24.313 30.9045 24.3784 30.939 24.4329 30.9875Z" fill="url(#paint1_linear_28_437)"/>
<path d="M28.903 26.803L31.8707 21.4963C31.9874 21.324 32.0238 21.1132 31.9842 20.9165L28.2579 21.0778L28.903 26.803Z" fill="url(#paint2_linear_28_437)"/>
<path d="M22.0371 25.0954L21.9009 19.0168C21.8786 18.81 21.9451 18.6066 22.0722 18.4514L25.2889 20.3394L22.0371 25.0954Z" fill="url(#paint3_linear_28_437)"/>
<path d="M28.4679 16.7236L28.9549 18.9573C28.9812 19.0778 29.0364 19.1902 29.1158 19.2847C29.1952 19.3792 29.2964 19.453 29.4106 19.4997L31.5268 20.3647C32.1107 20.6034 32.1675 21.4082 31.6228 21.7264L29.649 22.8799C29.5424 22.9422 29.4526 23.0294 29.3873 23.1341C29.322 23.2388 29.2831 23.3578 29.274 23.4809L29.1052 25.7608C29.0586 26.39 28.3109 26.6926 27.8398 26.2729L26.1328 24.7521C26.0407 24.67 25.93 24.6116 25.8102 24.5818C25.6905 24.552 25.5653 24.5518 25.4454 24.5811L23.2249 25.1251C22.6122 25.2753 22.0932 24.6576 22.3468 24.0799L23.2657 21.9865C23.3153 21.8735 23.3367 21.7502 23.328 21.6271C23.3193 21.504 23.2808 21.3848 23.2159 21.2799L22.0123 19.3362C21.6802 18.7998 22.1073 18.1154 22.735 18.1781L25.0099 18.4051C25.1327 18.4174 25.2567 18.3996 25.371 18.3533C25.4854 18.307 25.5869 18.2336 25.6666 18.1393L27.1432 16.394C27.5506 15.9125 28.3335 16.1072 28.4679 16.7236Z" fill="url(#paint4_linear_28_437)"/>
<path d="M22.0724 18.4514L22.0711 18.4526C21.8786 18.6887 21.8261 19.0358 22.0123 19.3364L23.2158 21.2802C23.2808 21.3851 23.3193 21.5042 23.328 21.6273C23.3366 21.7504 23.3153 21.8738 23.2657 21.9868L22.3468 24.0802C22.0932 24.6579 22.6121 25.2755 23.2249 25.1254L25.4454 24.5814C25.5652 24.552 25.6904 24.5523 25.8102 24.5821C25.9299 24.6118 26.0407 24.6703 26.1328 24.7524L27.8398 26.2732C28.3108 26.6929 29.0586 26.3902 29.1052 25.7611L29.274 23.4811C29.2806 23.3924 29.3028 23.3055 29.3395 23.2244L22.0724 18.4514Z" fill="url(#paint5_linear_28_437)"/>
<path d="M31.9842 20.9165L31.9847 20.9181C32.0443 21.2169 31.9281 21.5481 31.6227 21.7265L29.6489 22.88C29.5423 22.9423 29.4525 23.0295 29.3872 23.1342C29.3218 23.2389 29.283 23.3579 29.2739 23.481L29.1051 25.7609C29.0585 26.3901 28.3107 26.6927 27.8397 26.273L26.1327 24.7522C26.0406 24.6701 25.9298 24.6117 25.8101 24.5819C25.6903 24.5521 25.5651 24.5519 25.4453 24.5812L23.2248 25.1252C22.612 25.2754 22.0931 24.6577 22.3467 24.08L23.2656 21.9866C23.3013 21.9051 23.3224 21.818 23.328 21.7291L31.9842 20.9165Z" fill="url(#paint6_linear_28_437)"/>
<path d="M26.1328 24.7522L27.8398 26.273C28.3109 26.6927 29.0587 26.39 29.1052 25.7609L29.274 23.481C29.2831 23.3579 29.322 23.2389 29.3873 23.1342C29.4527 23.0295 29.5425 22.9423 29.649 22.88L31.6229 21.7266C32.1675 21.4082 32.1108 20.6036 31.5268 20.3649L29.4106 19.4998C29.2964 19.4531 29.1952 19.3793 29.1158 19.2848C29.0365 19.1904 28.9812 19.078 28.955 18.9574L28.4679 16.7237C28.4007 16.4155 28.1714 16.2127 27.9079 16.1472L25.8102 24.5819C25.9299 24.6117 26.0407 24.6702 26.1328 24.7522Z" fill="url(#paint7_linear_28_437)"/>
<path d="M22.0752 26.7861L22.163 30.7071C22.1178 31.0087 22.3947 31.2862 22.7154 31.2076L24.0267 30.8863C24.0975 30.869 24.1715 30.8691 24.2422 30.8867C24.3129 30.9043 24.3783 30.9388 24.4327 30.9873L25.4408 31.8854C25.6873 32.1051 26.0619 31.9896 26.1633 31.702L28.0775 28.2789L22.0752 26.7861Z" fill="url(#paint8_linear_28_437)"/>
<path d="M31.8705 21.4961C32.1257 21.1194 31.9982 20.5575 31.5266 20.3647L29.4104 19.4997C29.2962 19.453 29.195 19.3792 29.1156 19.2847C29.0363 19.1902 28.9811 19.0778 28.9548 18.9573L28.4677 16.7236C28.3333 16.1072 27.5505 15.9125 27.143 16.3941L25.6663 18.1394C25.5866 18.2336 25.4852 18.307 25.3708 18.3533C25.2564 18.3996 25.1325 18.4174 25.0097 18.4052L22.7348 18.1781C22.2278 18.1276 21.852 18.5642 21.901 19.0166L22.1628 30.7071C22.1176 31.0087 22.3945 31.2862 22.7151 31.2077L24.0265 30.8864C24.0973 30.869 24.1712 30.8692 24.242 30.8868C24.3127 30.9043 24.3781 30.9389 24.4325 30.9874L25.4406 31.8855C25.6871 32.1051 26.0617 31.9896 26.1631 31.702L31.8705 21.4961Z" fill="url(#paint9_linear_28_437)"/>
<path d="M6.12911 21.4961C5.8739 21.1194 6.0014 20.5575 6.47302 20.3647L8.58922 19.4997C8.70345 19.453 8.80461 19.3792 8.884 19.2847C8.96338 19.1902 9.01859 19.0778 9.04488 18.9573L9.53194 16.7236C9.66633 16.1072 10.4492 15.9125 10.8567 16.3941L12.3333 18.1394C12.413 18.2336 12.5144 18.307 12.6288 18.3533C12.7432 18.3996 12.8672 18.4174 12.9899 18.4052L15.2648 18.1781C15.7718 18.1276 16.1477 18.5642 16.0987 19.0166L15.8368 30.7071C15.8821 31.0087 15.6052 31.2862 15.2845 31.2077L13.9732 30.8864C13.9024 30.869 13.8284 30.8692 13.7577 30.8868C13.6869 30.9043 13.6216 30.9389 13.5671 30.9874L12.5591 31.8855C12.3126 32.1051 11.938 31.9896 11.8366 31.702L6.12911 21.4961Z" fill="url(#paint10_linear_28_437)"/>
<path d="M13.5671 30.9875L12.5591 31.8856C12.3126 32.1053 11.938 31.9898 11.8366 31.7022L6.12911 21.4962C5.8739 21.1195 6.0014 20.5576 6.47302 20.3649L8.58922 19.4998C8.70345 19.4531 8.80462 19.3793 8.884 19.2848C8.96338 19.1904 9.01859 19.078 9.04488 18.9574L9.53195 16.7237C9.59914 16.4155 9.82845 16.2127 10.0919 16.1472L13.7577 30.8869C13.687 30.9045 13.6216 30.939 13.5671 30.9875Z" fill="url(#paint11_linear_28_437)"/>
<path d="M9.09704 26.803L6.12932 21.4963C6.01262 21.324 5.97622 21.1132 6.01583 20.9165L9.74209 21.0778L9.09704 26.803Z" fill="url(#paint12_linear_28_437)"/>
<path d="M15.9628 25.0954L16.099 19.0168C16.1213 18.81 16.0548 18.6066 15.9277 18.4514L12.7111 20.3394L15.9628 25.0954Z" fill="url(#paint13_linear_28_437)"/>
<path d="M9.53213 16.7236L9.04506 18.9573C9.01878 19.0778 8.96356 19.1902 8.88418 19.2847C8.8048 19.3792 8.70363 19.453 8.5894 19.4997L6.47321 20.3647C5.88922 20.6034 5.83248 21.4082 6.37716 21.7264L8.35102 22.8799C8.45757 22.9422 8.54738 23.0294 8.61271 23.1341C8.67804 23.2388 8.71693 23.3578 8.72603 23.4809L8.89482 25.7608C8.94142 26.39 9.6892 26.6926 10.1602 26.2729L11.8672 24.7521C11.9593 24.67 12.07 24.6116 12.1898 24.5818C12.3095 24.552 12.4347 24.5518 12.5546 24.5811L14.7751 25.1251C15.3878 25.2753 15.9068 24.6576 15.6532 24.0799L14.7343 21.9865C14.6847 21.8735 14.6633 21.7502 14.672 21.6271C14.6807 21.504 14.7192 21.3848 14.7841 21.2799L15.9877 19.3362C16.3198 18.7998 15.8927 18.1154 15.265 18.1781L12.9901 18.4051C12.8673 18.4174 12.7433 18.3996 12.629 18.3533C12.5146 18.307 12.4132 18.2336 12.3335 18.1393L10.8568 16.394C10.4494 15.9125 9.66652 16.1072 9.53213 16.7236Z" fill="url(#paint14_linear_28_437)"/>
<path d="M15.9277 18.4514L15.9289 18.4526C16.1215 18.6887 16.1739 19.0358 15.9877 19.3364L14.7842 21.2802C14.7192 21.3851 14.6807 21.5042 14.6721 21.6273C14.6634 21.7504 14.6848 21.8738 14.7344 21.9868L15.6533 24.0802C15.9068 24.6579 15.3879 25.2755 14.7752 25.1254L12.5547 24.5814C12.4348 24.552 12.3096 24.5523 12.1899 24.5821C12.0701 24.6118 11.9594 24.6703 11.8672 24.7524L10.1603 26.2732C9.68921 26.6929 8.94149 26.3902 8.89489 25.7611L8.72609 23.4811C8.71945 23.3924 8.69728 23.3055 8.66058 23.2244L15.9277 18.4514Z" fill="url(#paint15_linear_28_437)"/>
<path d="M6.01563 20.9165L6.01513 20.9181C5.95558 21.2169 6.07182 21.5481 6.37714 21.7265L8.351 22.88C8.45755 22.9423 8.54736 23.0295 8.61269 23.1342C8.67802 23.2389 8.71691 23.3579 8.72601 23.481L8.8948 25.7609C8.9414 26.3901 9.68913 26.6927 10.1602 26.273L11.8672 24.7522C11.9593 24.6701 12.07 24.6117 12.1898 24.5819C12.3095 24.5521 12.4347 24.5519 12.5546 24.5812L14.7751 25.1252C15.3878 25.2754 15.9067 24.6577 15.6532 24.08L14.7343 21.9866C14.6986 21.9051 14.6774 21.818 14.6719 21.7291L6.01563 20.9165Z" fill="url(#paint16_linear_28_437)"/>
<path d="M11.8672 24.7522L10.1602 26.273C9.68915 26.6927 8.94142 26.39 8.89483 25.7609L8.72603 23.481C8.71692 23.3579 8.67802 23.2389 8.61269 23.1342C8.54736 23.0295 8.45756 22.9423 8.35102 22.88L6.37716 21.7266C5.83248 21.4082 5.88922 20.6036 6.47321 20.3649L8.5894 19.4998C8.70363 19.4531 8.8048 19.3793 8.88418 19.2848C8.96356 19.1904 9.01878 19.078 9.04506 18.9574L9.53213 16.7237C9.59932 16.4155 9.82863 16.2127 10.0921 16.1472L12.1898 24.5819C12.0701 24.6117 11.9593 24.6702 11.8672 24.7522Z" fill="url(#paint17_linear_28_437)"/>
<path d="M15.9248 26.7861L15.837 30.7071C15.8822 31.0087 15.6053 31.2862 15.2847 31.2076L13.9733 30.8863C13.9025 30.869 13.8285 30.8691 13.7578 30.8867C13.6871 30.9043 13.6217 30.9388 13.5673 30.9873L12.5592 31.8854C12.3127 32.1051 11.9381 31.9896 11.8367 31.702L9.92249 28.2789L15.9248 26.7861Z" fill="url(#paint18_linear_28_437)"/>
<path d="M6.12917 21.4961C5.87396 21.1194 6.00146 20.5575 6.47308 20.3647L8.58928 19.4997C8.70351 19.453 8.80468 19.3792 8.88406 19.2847C8.96344 19.1902 9.01865 19.0778 9.04494 18.9573L9.53201 16.7236C9.66639 16.1072 10.4492 15.9125 10.8567 16.3941L12.3334 18.1394C12.4131 18.2336 12.5145 18.307 12.6289 18.3533C12.7433 18.3996 12.8672 18.4174 12.99 18.4052L15.2649 18.1781C15.7719 18.1276 16.1477 18.5642 16.0987 19.0166L15.8369 30.7071C15.8821 31.0087 15.6052 31.2862 15.2846 31.2077L13.9732 30.8864C13.9024 30.869 13.8285 30.8692 13.7577 30.8868C13.687 30.9043 13.6216 30.9389 13.5672 30.9874L12.5591 31.8855C12.3126 32.1051 11.938 31.9896 11.8367 31.702L6.12917 21.4961Z" fill="url(#paint19_linear_28_437)"/>
<path d="M27.3884 12.9151C27.6444 12.2174 27.2208 11.3773 26.3975 11.2576L22.7029 10.7208C22.5034 10.6918 22.314 10.6147 22.151 10.4963C21.988 10.3778 21.8562 10.2215 21.767 10.0408L20.1147 6.6929C19.6587 5.76903 18.3414 5.76903 17.8854 6.6929L16.2332 10.0408C16.144 10.2215 16.0122 10.3778 15.8491 10.4963C15.6861 10.6148 15.4967 10.6918 15.2973 10.7208L11.6027 11.2576C10.7793 11.3773 10.3558 12.2174 10.6117 12.9151L15.6343 31.3386C15.6815 31.8343 16.2296 32.1649 16.7068 31.9141L18.6584 30.888C18.7638 30.8327 18.881 30.8037 19 30.8037C19.1191 30.8037 19.2363 30.8327 19.3416 30.888L21.2933 31.9141C21.7705 32.1649 22.3186 31.8343 22.3658 31.3386L27.3884 12.9151Z" fill="url(#paint20_linear_28_437)"/>
<path d="M19.3416 30.8881L21.2933 31.9141C21.7705 32.165 22.3186 31.8343 22.3658 31.3386L27.3884 12.9151C27.6443 12.2174 27.2208 11.3773 26.3975 11.2577L22.7029 10.7208C22.5034 10.6918 22.314 10.6148 22.151 10.4963C21.988 10.3778 21.8562 10.2215 21.767 10.0408L20.1147 6.69293C19.8867 6.23094 19.4433 6 19 6V30.8037C19.1174 30.8037 19.2347 30.8318 19.3416 30.8881Z" fill="url(#paint21_linear_28_437)"/>
<path d="M24.7768 22.4947L27.3884 12.9151C27.5054 12.5962 27.48 12.2477 27.3397 11.9517L21.498 13.6759L24.7768 22.4947Z" fill="url(#paint22_linear_28_437)"/>
<path d="M13.2231 22.4947L10.6115 12.9151C10.4945 12.5962 10.5198 12.2477 10.6601 11.9517L16.5018 13.676L13.2231 22.4947Z" fill="url(#paint23_linear_28_437)"/>
<path d="M20.1148 6.69286L21.7671 10.0407C21.8563 10.2215 21.9881 10.3778 22.1511 10.4963C22.3141 10.6147 22.5035 10.6917 22.703 10.7207L26.3976 11.2576C27.4171 11.4057 27.8242 12.6586 27.0865 13.3777L24.413 15.9837C24.2687 16.1243 24.1608 16.298 24.0985 16.4897C24.0362 16.6813 24.0215 16.8853 24.0555 17.0839L24.6867 20.7636C24.8608 21.779 23.7951 22.5533 22.8832 22.0739L19.5786 20.3366C19.4003 20.2428 19.2018 20.1938 19.0003 20.1938C18.7987 20.1938 18.6002 20.2428 18.4219 20.3366L15.1173 22.0739C14.2054 22.5533 13.1397 21.779 13.3138 20.7636L13.945 17.0839C13.979 16.8853 13.9643 16.6813 13.902 16.4897C13.8397 16.298 13.7318 16.1243 13.5875 15.9837L10.914 13.3777C10.1763 12.6586 10.5834 11.4057 11.6029 11.2576L15.2975 10.7207C15.497 10.6917 15.6863 10.6147 15.8494 10.4962C16.0124 10.3778 16.1442 10.2215 16.2334 10.0407L17.8857 6.69286C18.3415 5.76905 19.6588 5.76905 20.1148 6.69286Z" fill="url(#paint24_linear_28_437)"/>
<path d="M10.6603 11.9517L10.6588 11.9541C10.4467 12.404 10.5004 12.9747 10.9139 13.3778L13.5874 15.9838C13.7317 16.1245 13.8396 16.2981 13.9019 16.4898C13.9642 16.6814 13.9789 16.8854 13.9448 17.084L13.3137 20.7637C13.1395 21.7791 14.2053 22.5534 15.1172 22.074L18.4217 20.3367C18.6001 20.2429 18.7986 20.1939 19.0001 20.1939C19.2016 20.1939 19.4001 20.2429 19.5785 20.3367L22.8831 22.074C23.795 22.5534 24.8607 21.7791 24.6866 20.7637L24.0554 17.084C24.031 16.9407 24.0318 16.7943 24.058 16.6513L10.6603 11.9517Z" fill="url(#paint25_linear_28_437)"/>
<path d="M27.3398 11.9517L27.3413 11.9541C27.5534 12.404 27.4998 12.9747 27.0863 13.3778L24.4128 15.9838C24.2685 16.1245 24.1605 16.2981 24.0983 16.4898C24.036 16.6814 24.0212 16.8854 24.0553 17.084L24.6865 20.7637C24.8606 21.7791 23.7949 22.5534 22.883 22.074L19.5784 20.3367C19.4 20.2429 19.2015 20.1939 19 20.1939C18.7985 20.1939 18.6 20.2429 18.4216 20.3367L15.1171 22.074C14.2052 22.5534 13.1394 21.7791 13.3136 20.7637L13.9447 17.084C13.9697 16.9387 13.9678 16.7925 13.9421 16.6513L27.3398 11.9517Z" fill="url(#paint26_linear_28_437)"/>
<path d="M19.5784 20.3366L22.883 22.0739C23.7949 22.5533 24.8606 21.779 24.6865 20.7636L24.0553 17.0839C24.0213 16.8853 24.036 16.6813 24.0983 16.4897C24.1606 16.298 24.2685 16.1244 24.4128 15.9837L27.0863 13.3777C27.824 12.6586 27.4169 11.4057 26.3974 11.2576L22.7028 10.7207C22.5033 10.6917 22.3139 10.6147 22.1509 10.4962C21.9879 10.3778 21.8561 10.2215 21.7669 10.0408L20.1146 6.69287C19.8867 6.23099 19.4433 6 19 6V20.1938C19.1987 20.1938 19.3973 20.2414 19.5784 20.3366Z" fill="url(#paint27_linear_28_437)"/>
<path d="M13.9498 25.1594L15.6344 31.3386C15.6816 31.8344 16.2297 32.165 16.7069 31.9141L18.6585 30.8881C18.7639 30.8327 18.8811 30.8037 19.0001 30.8037C19.1191 30.8037 19.2364 30.8327 19.3417 30.8881L21.2934 31.9141C21.7706 32.165 22.3187 31.8343 22.3659 31.3386L24.0504 25.1594H13.9498Z" fill="url(#paint28_linear_28_437)"/>
<path d="M26.3158 10.7464L27.6752 9.11059C27.6957 9.0858 27.7213 9.06558 27.7501 9.05122C27.779 9.03686 27.8105 9.02868 27.8427 9.0272C27.8749 9.02572 27.9071 9.03097 27.9371 9.04261C27.9672 9.05426 27.9944 9.07204 28.0172 9.09484L28.3646 9.44216C28.5297 9.60729 28.8122 9.52246 28.859 9.29371L29.4021 6.64222C29.5134 6.09902 28.8244 5.76816 28.47 6.19461L27.1106 7.83042C27.09 7.85521 27.0645 7.87543 27.0357 7.88979C27.0068 7.90414 26.9753 7.91233 26.9431 7.91381C26.9109 7.91529 26.8787 7.91004 26.8487 7.8984C26.8186 7.88675 26.7914 7.86896 26.7686 7.84617L26.4213 7.49884C26.2562 7.33372 25.9737 7.41855 25.9268 7.6473L25.3837 10.2988C25.2724 10.842 25.9613 11.1728 26.3158 10.7464Z" fill="url(#paint29_linear_28_437)"/>
<path d="M11.6843 10.7464L10.3249 9.11064C10.3043 9.08585 10.2788 9.06563 10.2499 9.05127C10.2211 9.03691 10.1895 9.02873 10.1573 9.02725C10.1252 9.02577 10.093 9.03102 10.063 9.04266C10.0329 9.05431 10.0056 9.07209 9.98283 9.09488L9.6355 9.44221C9.47038 9.60734 9.18789 9.52251 9.14104 9.29376L8.59795 6.64227C8.48671 6.09902 9.17566 5.76816 9.53007 6.19461L10.8894 7.83042C10.91 7.85521 10.9355 7.87543 10.9644 7.88978C10.9933 7.90414 11.0248 7.91233 11.057 7.91381C11.0892 7.91529 11.1213 7.91004 11.1514 7.89839C11.1814 7.88675 11.2087 7.86896 11.2315 7.84617L11.5788 7.49884C11.7439 7.33372 12.0264 7.41855 12.0732 7.6473L12.6163 10.2988C12.7276 10.842 12.0387 11.1729 11.6843 10.7464Z" fill="url(#paint30_linear_28_437)"/>
</g>
<defs>
<filter id="filter0_d_28_437" x="0" y="0" width="50" height="50" filterUnits="userSpaceOnUse" color-interpolation-filters="sRGB">
<feFlood flood-opacity="0" result="BackgroundImageFix"/>
<feColorMatrix in="SourceAlpha" type="matrix" values="0 0 0 0 0 0 0 0 0 0 0 0 0 0 0 0 0 0 127 0" result="hardAlpha"/>
<feOffset dx="6" dy="6"/>
<feGaussianBlur stdDeviation="6"/>
<feColorMatrix type="matrix" values="0 0 0 0 0 0 0 0 0 0 0 0 0 0 0 0 0 0 0.35 0"/>
<feBlend mode="normal" in2="BackgroundImageFix" result="effect1_dropShadow_28_437"/>
<feBlend mode="normal" in="SourceGraphic" in2="effect1_dropShadow_28_437" result="shape"/>
</filter>
<linearGradient id="paint0_linear_28_437" x1="25.4364" y1="19.5032" x2="28.4371" y2="31.1209" gradientUnits="userSpaceOnUse">
<stop stop-color="#D9B1EE"/>
<stop offset="1" stop-color="#814AA0"/>
</linearGradient>
<linearGradient id="paint1_linear_28_437" x1="27.0734" y1="24.024" x2="19.3604" y2="25.5499" gradientUnits="userSpaceOnUse">
<stop stop-color="#5B3374" stop-opacity="0"/>
<stop offset="1" stop-color="#5B3374"/>
</linearGradient>
<linearGradient id="paint2_linear_28_437" x1="30.5993" y1="24.3994" x2="29.777" y2="21.3644" gradientUnits="userSpaceOnUse">
<stop stop-color="#5B3374" stop-opacity="0"/>
<stop offset="1" stop-color="#5B3374"/>
</linearGradient>
<linearGradient id="paint3_linear_28_437" x1="21.9852" y1="21.8072" x2="25.8059" y2="19.8934" gradientUnits="userSpaceOnUse">
<stop stop-color="#5B3374" stop-opacity="0"/>
<stop offset="1" stop-color="#5B3374"/>
</linearGradient>
<linearGradient id="paint4_linear_28_437" x1="24.7682" y1="18.7668" x2="28.3718" y2="24.7524" gradientUnits="userSpaceOnUse">
<stop stop-color="#D9B1EE"/>
<stop offset="1" stop-color="#814AA0"/>
</linearGradient>
<linearGradient id="paint5_linear_28_437" x1="25.2965" y1="22.5936" x2="29.2412" y2="17.4617" gradientUnits="userSpaceOnUse">
<stop stop-color="#5B3374" stop-opacity="0"/>
<stop offset="1" stop-color="#5B3374"/>
</linearGradient>
<linearGradient id="paint6_linear_28_437" x1="27.212" y1="23.0755" x2="26.1272" y2="16.6943" gradientUnits="userSpaceOnUse">
<stop stop-color="#5B3374" stop-opacity="0"/>
<stop offset="1" stop-color="#5B3374"/>
</linearGradient>
<linearGradient id="paint7_linear_28_437" x1="28.139" y1="21.3068" x2="22.6603" y2="22.3907" gradientUnits="userSpaceOnUse">
<stop stop-color="#5B3374" stop-opacity="0"/>
<stop offset="1" stop-color="#5B3374"/>
</linearGradient>
<linearGradient id="paint8_linear_28_437" x1="24.9255" y1="28.1688" x2="24.0434" y2="31.72" gradientUnits="userSpaceOnUse">
<stop stop-color="#5B3374" stop-opacity="0"/>
<stop offset="1" stop-color="#5B3374"/>
</linearGradient>
<linearGradient id="paint9_linear_28_437" x1="27.7672" y1="24.5077" x2="24.1476" y2="23.3351" gradientUnits="userSpaceOnUse">
<stop stop-color="#5B3374" stop-opacity="0"/>
<stop offset="1" stop-color="#5B3374"/>
</linearGradient>
<linearGradient id="paint10_linear_28_437" x1="12.5762" y1="19.4997" x2="9.57547" y2="31.1174" gradientUnits="userSpaceOnUse">
<stop stop-color="#D9B1EE"/>
<stop offset="1" stop-color="#814AA0"/>
</linearGradient>
<linearGradient id="paint11_linear_28_437" x1="10.9395" y1="24.0206" x2="18.6526" y2="25.5465" gradientUnits="userSpaceOnUse">
<stop stop-color="#5B3374" stop-opacity="0"/>
<stop offset="1" stop-color="#5B3374"/>
</linearGradient>
<linearGradient id="paint12_linear_28_437" x1="7.41367" y1="24.396" x2="8.23598" y2="21.361" gradientUnits="userSpaceOnUse">
<stop stop-color="#5B3374" stop-opacity="0"/>
<stop offset="1" stop-color="#5B3374"/>
</linearGradient>
<linearGradient id="paint13_linear_28_437" x1="16.0277" y1="21.8037" x2="12.207" y2="19.8899" gradientUnits="userSpaceOnUse">
<stop stop-color="#5B3374" stop-opacity="0"/>
<stop offset="1" stop-color="#5B3374"/>
</linearGradient>
<linearGradient id="paint14_linear_28_437" x1="13.2447" y1="18.7633" x2="9.6411" y2="24.7489" gradientUnits="userSpaceOnUse">
<stop stop-color="#D9B1EE"/>
<stop offset="1" stop-color="#814AA0"/>
</linearGradient>
<linearGradient id="paint15_linear_28_437" x1="12.7165" y1="22.5901" x2="8.77181" y2="17.4583" gradientUnits="userSpaceOnUse">
<stop stop-color="#5B3374" stop-opacity="0"/>
<stop offset="1" stop-color="#5B3374"/>
</linearGradient>
<linearGradient id="paint16_linear_28_437" x1="10.8021" y1="23.0638" x2="11.886" y2="16.6858" gradientUnits="userSpaceOnUse">
<stop stop-color="#5B3374" stop-opacity="0"/>
<stop offset="1" stop-color="#5B3374"/>
</linearGradient>
<linearGradient id="paint17_linear_28_437" x1="9.87395" y1="21.3033" x2="15.3526" y2="22.3872" gradientUnits="userSpaceOnUse">
<stop stop-color="#5B3374" stop-opacity="0"/>
<stop offset="1" stop-color="#5B3374"/>
</linearGradient>
<linearGradient id="paint18_linear_28_437" x1="13.0874" y1="28.1654" x2="13.9695" y2="31.7165" gradientUnits="userSpaceOnUse">
<stop stop-color="#5B3374" stop-opacity="0"/>
<stop offset="1" stop-color="#5B3374"/>
</linearGradient>
<linearGradient id="paint19_linear_28_437" x1="10.2325" y1="24.5077" x2="13.8521" y2="23.3351" gradientUnits="userSpaceOnUse">
<stop stop-color="#5B3374" stop-opacity="0"/>
<stop offset="1" stop-color="#5B3374"/>
</linearGradient>
<linearGradient id="paint20_linear_28_437" x1="19" y1="35.7216" x2="19" y2="23.3761" gradientUnits="userSpaceOnUse">
<stop stop-color="#FEE45A"/>
<stop offset="1" stop-color="#FEA613"/>
</linearGradient>
<linearGradient id="paint21_linear_28_437" x1="25.2851" y1="23.3947" x2="20.34" y2="18.5516" gradientUnits="userSpaceOnUse">
<stop stop-color="#FEA613" stop-opacity="0"/>
<stop offset="1" stop-color="#E94444"/>
</linearGradient>
<linearGradient id="paint22_linear_28_437" x1="26.5082" y1="18.0312" x2="24.0102" y2="13.5449" gradientUnits="userSpaceOnUse">
<stop stop-color="#FEA613" stop-opacity="0"/>
<stop offset="1" stop-color="#E94444"/>
</linearGradient>
<linearGradient id="paint23_linear_28_437" x1="11.8355" y1="17.314" x2="17.1375" y2="12.7767" gradientUnits="userSpaceOnUse">
<stop stop-color="#FEA613" stop-opacity="0"/>
<stop offset="1" stop-color="#E94444"/>
</linearGradient>
<linearGradient id="paint24_linear_28_437" x1="15.0494" y1="11.3999" x2="23.1171" y2="19.4676" gradientUnits="userSpaceOnUse">
<stop stop-color="#FEE45A"/>
<stop offset="1" stop-color="#FEA613"/>
</linearGradient>
<linearGradient id="paint25_linear_28_437" x1="17.3932" y1="17.2568" x2="21.6246" y2="7.57051" gradientUnits="userSpaceOnUse">
<stop stop-color="#FEA613" stop-opacity="0"/>
<stop offset="1" stop-color="#E94444"/>
</linearGradient>
<linearGradient id="paint26_linear_28_437" x1="20.607" y1="17.2568" x2="16.3756" y2="7.57051" gradientUnits="userSpaceOnUse">
<stop stop-color="#FEA613" stop-opacity="0"/>
<stop offset="1" stop-color="#E94444"/>
</linearGradient>
<linearGradient id="paint27_linear_28_437" x1="21.3914" y1="14.0983" x2="13.1351" y2="17.9729" gradientUnits="userSpaceOnUse">
<stop stop-color="#FEA613" stop-opacity="0"/>
<stop offset="1" stop-color="#E94444"/>
</linearGradient>
<linearGradient id="paint28_linear_28_437" x1="19.0002" y1="26.2392" x2="19.0002" y2="32.2146" gradientUnits="userSpaceOnUse">
<stop stop-color="#FEA613" stop-opacity="0"/>
<stop offset="1" stop-color="#E94444"/>
</linearGradient>
<linearGradient id="paint29_linear_28_437" x1="25.1515" y1="8.48926" x2="30.0763" y2="8.48926" gradientUnits="userSpaceOnUse">
<stop stop-color="#FD3581"/>
<stop offset="1" stop-color="#972437"/>
</linearGradient>
<linearGradient id="paint30_linear_28_437" x1="12.8516" y1="8.46536" x2="7.92679" y2="8.46536" gradientUnits="userSpaceOnUse">
<stop stop-color="#FD3581"/>
<stop offset="1" stop-color="#972437"/>
</linearGradient>
<clipPath id="clip0_28_437">
<rect width="26" height="26" fill="white" transform="translate(6 6)"/>
</clipPath>
</defs>
</svg>
