<svg width="66" height="66" viewBox="0 0 66 66" fill="none" xmlns="http://www.w3.org/2000/svg">
<g clip-path="url(#clip0_1_310)" filter="url(#filter0_d_1_310)">
<path d="M46.9347 13.2357C43.9168 12.3697 39.1912 12.335 33.7096 13.1744C30.192 9.37149 26.8579 7.18724 25.1188 6.19393C24.4169 5.79304 23.5211 6.03315 23.1137 6.73123C22.1042 8.46102 20.309 12.0197 19.1641 17.0719C13.9973 19.0858 9.9221 21.4787 7.74147 23.7375C7.23796 24.2591 7.19218 25.0712 7.62875 25.6499C9.57946 28.2351 13.5304 31.1802 18.6547 33.804C19.1856 37.2727 20.1347 41.0015 21.6481 44.9566C21.9414 45.723 22.8054 46.1041 23.5687 45.8029C26.1942 44.7665 29.4825 42.408 32.8726 39.1421C37.4415 40.2754 41.4685 40.6738 44.2604 40.2586C45.0719 40.1379 45.6297 39.3757 45.5005 38.5654C44.8337 34.3835 43.7912 30.6798 42.5166 27.4102C45.6424 22.5757 47.5917 18.0498 47.9884 14.8355C48.0772 14.116 47.6315 13.4356 46.9347 13.2357Z" fill="url(#paint0_linear_1_310)"/>
<path d="M23.114 6.73129C22.1044 8.46166 20.3096 12.0202 19.1639 17.0725L29.4551 26.3871L24.0059 6.0506C23.6303 6.15054 23.3095 6.39532 23.114 6.73129Z" fill="url(#paint1_linear_1_310)"/>
<path d="M7.33105 24.7596C7.33101 25.0808 7.4354 25.3933 7.6285 25.6499C9.57937 28.2351 13.5309 31.1801 18.6545 33.804C18.6553 33.8038 29.4664 26.4266 29.4664 26.4266L7.33105 24.7596Z" fill="url(#paint2_linear_1_310)"/>
<path d="M33.7103 13.1749L29.4552 26.3872L24.006 6.05062C24.3813 5.94932 24.7815 6.00095 25.1188 6.19418C26.8583 7.18791 30.192 9.37223 33.7103 13.1749Z" fill="url(#paint3_linear_1_310)"/>
<path d="M33.7103 13.1749L29.4552 26.3872L24.006 6.05062C24.3813 5.94932 24.7815 6.00095 25.1188 6.19418C26.8583 7.18791 30.192 9.37223 33.7103 13.1749Z" fill="url(#paint4_linear_1_310)"/>
<path d="M18.6553 33.8036C19.1859 37.2726 20.1351 41.0016 21.6488 44.9559C21.9417 45.7225 22.806 46.104 23.5692 45.8022C26.1951 44.7657 29.4824 42.4081 32.8726 39.1422L29.4658 26.4276L18.6553 33.8036Z" fill="url(#paint5_linear_1_310)"/>
<path d="M18.6553 33.8036C19.1859 37.2726 20.1351 41.0016 21.6488 44.9559C21.9417 45.7225 22.806 46.104 23.5692 45.8022C26.1951 44.7657 29.4824 42.4081 32.8726 39.1422L29.4658 26.4276L18.6553 33.8036Z" fill="url(#paint6_linear_1_310)"/>
<path d="M47.989 14.8358C47.5921 18.0501 45.6424 22.5763 42.5172 27.4104L29.4423 26.4255L33.7103 13.1749C39.1917 12.3352 43.9169 12.3701 46.9349 13.2363C47.6317 13.436 48.0771 14.1161 47.989 14.8358Z" fill="url(#paint7_linear_1_310)"/>
<path d="M47.989 14.8358C47.5921 18.0501 45.6424 22.5763 42.5172 27.4104L29.4423 26.4255L33.7103 13.1749C39.1917 12.3352 43.9169 12.3701 46.9349 13.2363C47.6317 13.436 48.0771 14.1161 47.989 14.8358Z" fill="url(#paint8_linear_1_310)"/>
<path d="M32.873 39.1424C37.4419 40.2757 41.4689 40.6741 44.2608 40.2589C45.0723 40.1382 45.6302 39.3761 45.501 38.5658C44.8341 34.3838 43.7917 30.6801 42.5171 27.4106L29.4661 26.4274L32.873 39.1424Z" fill="url(#paint9_linear_1_310)"/>
<path d="M32.873 39.1424C37.4419 40.2757 41.4689 40.6741 44.2608 40.2589C45.0723 40.1382 45.6302 39.3761 45.501 38.5658C44.8341 34.3838 43.7917 30.6801 42.5171 27.4106L29.4661 26.4274L32.873 39.1424Z" fill="url(#paint10_linear_1_310)"/>
<path d="M25.5682 36.7938L20.5479 41.8142C20.8848 42.8717 21.2518 43.9194 21.6486 44.9559C21.9415 45.7225 22.8058 46.104 23.569 45.8022C25.514 45.0344 27.8221 43.5412 30.2659 41.4916L25.5682 36.7938Z" fill="url(#paint11_linear_1_310)"/>
<path d="M17.3584 29.1726L24.7364 36.5506H17.3584V29.1726Z" fill="url(#paint12_linear_1_310)"/>
<path d="M25.5688 36.7942C24.4353 35.8086 22.3933 34.838 19.8468 34.0937C19.0905 31.7335 18.0865 30.1123 17.5332 29.33C17.3099 29.0142 16.8729 28.9372 16.5551 29.1575C15.7676 29.7034 14.2696 30.8835 12.7517 32.8427C10.1042 32.6713 7.8534 32.8849 6.45116 33.4233C6.12738 33.5477 5.9433 33.8905 6.01566 34.2298C6.33878 35.7451 7.45645 37.821 9.14785 39.9948C8.67667 41.6063 8.33427 43.415 8.19088 45.4359C8.16307 45.8274 8.46068 46.1674 8.85254 46.1912C10.2006 46.2726 12.1032 45.9149 14.2335 45.1842C15.9855 46.5994 17.6511 47.5863 18.9456 47.9708C19.3219 48.0825 19.7178 47.8649 19.8256 47.4874C20.382 45.5392 20.6789 43.7225 20.7873 42.0472C23.1202 40.5829 24.8804 39.0146 25.7023 37.7011C25.8862 37.407 25.8305 37.0219 25.5688 36.7942Z" fill="url(#paint13_linear_1_310)"/>
<path d="M16.5556 29.1578C15.768 29.7039 14.2702 30.884 12.752 32.8431L15.3309 38.9628L17.08 29.043C16.8969 29.0104 16.7083 29.0516 16.5556 29.1578Z" fill="url(#paint14_linear_1_310)"/>
<path d="M6.06639 33.7831C6.00144 33.9223 5.98354 34.0789 6.01537 34.2292C6.33857 35.7447 7.45649 37.8206 9.14757 39.9942C9.14798 39.9943 15.3273 38.9815 15.3273 38.9815L6.06639 33.7831Z" fill="url(#paint15_linear_1_310)"/>
<path d="M19.8466 34.0941L15.3301 38.9626L17.0792 29.0428C17.2624 29.0748 17.4255 29.1781 17.5327 29.33C18.0861 30.1127 19.0899 31.7339 19.8466 34.0941Z" fill="url(#paint16_linear_1_310)"/>
<path d="M19.8466 34.0941L15.3301 38.9626L17.0792 29.0428C17.2624 29.0748 17.4255 29.1781 17.5327 29.33C18.0861 30.1127 19.0899 31.7339 19.8466 34.0941Z" fill="url(#paint17_linear_1_310)"/>
<path d="M9.14806 39.9947C8.67671 41.6063 8.33431 43.415 8.19116 45.4357C8.16311 45.8273 8.4608 46.1674 8.85274 46.1909C10.2009 46.2724 12.103 45.9149 14.2333 45.1842L15.3269 38.9822L9.14806 39.9947Z" fill="url(#paint18_linear_1_310)"/>
<path d="M9.14806 39.9947C8.67671 41.6063 8.33431 43.415 8.19116 45.4357C8.16311 45.8273 8.4608 46.1674 8.85274 46.1909C10.2009 46.2724 12.103 45.9149 14.2333 45.1842L15.3269 38.9822L9.14806 39.9947Z" fill="url(#paint19_linear_1_310)"/>
<path d="M25.7024 37.701C24.8803 39.0145 23.1199 40.5828 20.7873 42.047L15.3171 38.9762L19.8469 34.0938C22.3934 34.8379 24.4352 35.8085 25.5687 36.7943C25.8305 37.0218 25.8861 37.4067 25.7024 37.701Z" fill="url(#paint20_linear_1_310)"/>
<path d="M25.7024 37.701C24.8803 39.0145 23.1199 40.5828 20.7873 42.047L15.3171 38.9762L19.8469 34.0938C22.3934 34.8379 24.4352 35.8085 25.5687 36.7943C25.8305 37.0218 25.8861 37.4067 25.7024 37.701Z" fill="url(#paint21_linear_1_310)"/>
<path d="M14.2334 45.1844C15.9853 46.5996 17.6509 47.5866 18.9454 47.971C19.3217 48.0828 19.7177 47.8651 19.8255 47.4876C20.3819 45.5395 20.6788 43.7227 20.7871 42.0474L15.327 38.9823L14.2334 45.1844Z" fill="url(#paint22_linear_1_310)"/>
<path d="M14.2334 45.1844C15.9853 46.5996 17.6509 47.5866 18.9454 47.971C19.3217 48.0828 19.7177 47.8651 19.8255 47.4876C20.3819 45.5395 20.6788 43.7227 20.7871 42.0474L15.327 38.9823L14.2334 45.1844Z" fill="url(#paint23_linear_1_310)"/>
</g>
<defs>
<filter id="filter0_d_1_310" x="0" y="0" width="66" height="66" filterUnits="userSpaceOnUse" color-interpolation-filters="sRGB">
<feFlood flood-opacity="0" result="BackgroundImageFix"/>
<feColorMatrix in="SourceAlpha" type="matrix" values="0 0 0 0 0 0 0 0 0 0 0 0 0 0 0 0 0 0 127 0" result="hardAlpha"/>
<feOffset dx="6" dy="6"/>
<feGaussianBlur stdDeviation="6"/>
<feColorMatrix type="matrix" values="0 0 0 0 0 0 0 0 0 0 0 0 0 0 0 0 0 0 0.35 0"/>
<feBlend mode="normal" in2="BackgroundImageFix" result="effect1_dropShadow_1_310"/>
<feBlend mode="normal" in="SourceGraphic" in2="effect1_dropShadow_1_310" result="shape"/>
</filter>
<linearGradient id="paint0_linear_1_310" x1="18.3825" y1="20.9524" x2="40.6853" y2="32.635" gradientUnits="userSpaceOnUse">
<stop stop-color="#FEF0AE"/>
<stop offset="1" stop-color="#FAC600"/>
</linearGradient>
<linearGradient id="paint1_linear_1_310" x1="22.8287" y1="17.2626" x2="15.2291" y2="19.2961" gradientUnits="userSpaceOnUse">
<stop stop-color="#FE9738" stop-opacity="0"/>
<stop offset="1" stop-color="#FE9738"/>
</linearGradient>
<linearGradient id="paint2_linear_1_310" x1="20.3849" y1="31.0549" x2="21.2946" y2="33.5041" gradientUnits="userSpaceOnUse">
<stop stop-color="#FE9738" stop-opacity="0"/>
<stop offset="1" stop-color="#FE9738"/>
</linearGradient>
<linearGradient id="paint3_linear_1_310" x1="30.8798" y1="16.1261" x2="34.6793" y2="16.0634" gradientUnits="userSpaceOnUse">
<stop stop-color="#FE9738" stop-opacity="0"/>
<stop offset="1" stop-color="#FE9738"/>
</linearGradient>
<linearGradient id="paint4_linear_1_310" x1="30.0902" y1="13.7109" x2="33.8004" y2="10.9372" gradientUnits="userSpaceOnUse">
<stop stop-color="#FE9738" stop-opacity="0"/>
<stop offset="1" stop-color="#FE9738"/>
</linearGradient>
<linearGradient id="paint5_linear_1_310" x1="27.834" y1="38.66" x2="30.2549" y2="41.7648" gradientUnits="userSpaceOnUse">
<stop stop-color="#FE9738" stop-opacity="0"/>
<stop offset="1" stop-color="#FE9738"/>
</linearGradient>
<linearGradient id="paint6_linear_1_310" x1="29.8482" y1="36.2723" x2="32.8404" y2="36.3621" gradientUnits="userSpaceOnUse">
<stop stop-color="#FE9738" stop-opacity="0"/>
<stop offset="1" stop-color="#FE9738"/>
</linearGradient>
<linearGradient id="paint7_linear_1_310" x1="41.1517" y1="20.9899" x2="44.812" y2="22.4275" gradientUnits="userSpaceOnUse">
<stop stop-color="#FE9738" stop-opacity="0"/>
<stop offset="1" stop-color="#FE9738"/>
</linearGradient>
<linearGradient id="paint8_linear_1_310" x1="39.599" y1="24.862" x2="40.2058" y2="27.9222" gradientUnits="userSpaceOnUse">
<stop stop-color="#FE9738" stop-opacity="0"/>
<stop offset="1" stop-color="#FE9738"/>
</linearGradient>
<linearGradient id="paint9_linear_1_310" x1="39.3792" y1="32.7739" x2="44.1753" y2="31.6814" gradientUnits="userSpaceOnUse">
<stop stop-color="#FE9738" stop-opacity="0"/>
<stop offset="1" stop-color="#FE9738"/>
</linearGradient>
<linearGradient id="paint10_linear_1_310" x1="35.1826" y1="37.8019" x2="34.3984" y2="39.5064" gradientUnits="userSpaceOnUse">
<stop stop-color="#FE9738" stop-opacity="0"/>
<stop offset="1" stop-color="#FE9738"/>
</linearGradient>
<linearGradient id="paint11_linear_1_310" x1="27.8418" y1="44.4362" x2="21.8576" y2="39.5825" gradientUnits="userSpaceOnUse">
<stop stop-color="#FE9738" stop-opacity="0"/>
<stop offset="1" stop-color="#FE9738"/>
</linearGradient>
<linearGradient id="paint12_linear_1_310" x1="21.9268" y1="32.4999" x2="19.1783" y2="33.6304" gradientUnits="userSpaceOnUse">
<stop stop-color="#FE9738" stop-opacity="0"/>
<stop offset="1" stop-color="#FE9738"/>
</linearGradient>
<linearGradient id="paint13_linear_1_310" x1="11.6137" y1="34.3682" x2="18.9222" y2="43.9433" gradientUnits="userSpaceOnUse">
<stop stop-color="#FEF0AE"/>
<stop offset="1" stop-color="#FAC600"/>
</linearGradient>
<linearGradient id="paint14_linear_1_310" x1="14.288" y1="33.6675" x2="10.5817" y2="33.0127" gradientUnits="userSpaceOnUse">
<stop stop-color="#FE9738" stop-opacity="0"/>
<stop offset="1" stop-color="#FE9738"/>
</linearGradient>
<linearGradient id="paint15_linear_1_310" x1="10.4392" y1="39.1531" x2="10.3386" y2="40.399" gradientUnits="userSpaceOnUse">
<stop stop-color="#FE9738" stop-opacity="0"/>
<stop offset="1" stop-color="#FE9738"/>
</linearGradient>
<linearGradient id="paint16_linear_1_310" x1="18.0081" y1="34.8024" x2="19.6682" y2="35.5435" gradientUnits="userSpaceOnUse">
<stop stop-color="#FE9738" stop-opacity="0"/>
<stop offset="1" stop-color="#FE9738"/>
</linearGradient>
<linearGradient id="paint17_linear_1_310" x1="18.154" y1="33.5956" x2="20.3236" y2="33.1431" gradientUnits="userSpaceOnUse">
<stop stop-color="#FE9738" stop-opacity="0"/>
<stop offset="1" stop-color="#FE9738"/>
</linearGradient>
<linearGradient id="paint18_linear_1_310" x1="12.1316" y1="43.9573" x2="12.5535" y2="45.7931" gradientUnits="userSpaceOnUse">
<stop stop-color="#FE9738" stop-opacity="0"/>
<stop offset="1" stop-color="#FE9738"/>
</linearGradient>
<linearGradient id="paint19_linear_1_310" x1="13.4878" y1="43.3293" x2="14.767" y2="43.9732" gradientUnits="userSpaceOnUse">
<stop stop-color="#FE9738" stop-opacity="0"/>
<stop offset="1" stop-color="#FE9738"/>
</linearGradient>
<linearGradient id="paint20_linear_1_310" x1="21.4789" y1="38.988" x2="22.7754" y2="40.3514" gradientUnits="userSpaceOnUse">
<stop stop-color="#FE9738" stop-opacity="0"/>
<stop offset="1" stop-color="#FE9738"/>
</linearGradient>
<linearGradient id="paint21_linear_1_310" x1="20.0227" y1="40.353" x2="19.6671" y2="41.8026" gradientUnits="userSpaceOnUse">
<stop stop-color="#FE9738" stop-opacity="0"/>
<stop offset="1" stop-color="#FE9738"/>
</linearGradient>
<linearGradient id="paint22_linear_1_310" x1="18.3277" y1="43.7396" x2="20.6282" y2="44.2357" gradientUnits="userSpaceOnUse">
<stop stop-color="#FE9738" stop-opacity="0"/>
<stop offset="1" stop-color="#FE9738"/>
</linearGradient>
<linearGradient id="paint23_linear_1_310" x1="15.4914" y1="45.0712" x2="14.8067" y2="45.6517" gradientUnits="userSpaceOnUse">
<stop stop-color="#FE9738" stop-opacity="0"/>
<stop offset="1" stop-color="#FE9738"/>
</linearGradient>
<clipPath id="clip0_1_310">
<rect width="42" height="42" fill="white" transform="translate(6 6)"/>
</clipPath>
</defs>
</svg>
